<?xml version="1.0" encoding="UTF-8"?>
<svg width="1323px" height="299px" viewBox="0 0 1323 299" version="1.1" xmlns="http://www.w3.org/2000/svg" xmlns:xlink="http://www.w3.org/1999/xlink">
    <!-- Generator: Sketch 47.1 (45422) - http://www.bohemiancoding.com/sketch -->
    <title>City Background</title>
    <desc>Created with Sketch.</desc>
    <defs></defs>
    <g id="Klue-Marketing-Landing-Page" stroke="none" stroke-width="1" fill="none" fill-rule="evenodd">
        <g id="About" transform="translate(-117.000000, -942.000000)">
            <g id="Every-Company-Has-Competitors" transform="translate(-49.000000, 942.000000)">
                <g id="City-Background">
                    <g id="City-graphics" transform="translate(0.000000, 215.000000)">
                        <path d="M944,82 L166.999356,82" id="Line" stroke="#43BC8F" stroke-width="2" stroke-linecap="square"></path>
                        <path d="M1112.04816,82 L945.903481,82" id="Line-Copy-5" stroke="#43BC8F" stroke-width="2" stroke-linecap="square"></path>
                        <path d="M1229,82 L1165.48898,82" id="Line-Copy-7" stroke="#43BC8F" stroke-width="2" stroke-linecap="square"></path>
                        <path d="M1515,82 L1397,82" id="Line-Copy-9" stroke="#43BC8F" stroke-width="2" stroke-linecap="square"></path>
                        <g id="City-Trees-Sun" transform="translate(1311.000000, 15.000000)" fill-rule="nonzero" fill="#43BC8F">
                            <path d="M1.93992636,68.437184 L88.1048672,68.437184 C88.7932688,68.437184 89.2522033,67.9782496 89.2522033,67.289848 C89.2522033,66.6014463 88.7932688,66.1425119 88.1048672,66.1425119 L84.3186581,66.1425119 L84.3186581,59.9468969 C87.8754,59.2584953 90.514273,55.0133517 90.514273,49.8503393 C90.514273,44.1136588 87.3017319,39.639048 83.171322,39.639048 C79.040912,39.639048 75.8283709,44.1136588 75.8283709,49.8503393 C75.8283709,55.0133517 78.467244,59.1437617 82.0239859,59.9468969 L82.0239859,66.0277782 L69.632756,66.0277782 L69.632756,62.0121019 C72.3863627,61.3237003 74.4515676,57.9964256 74.4515676,53.9807492 C74.4515676,49.3914048 71.8126946,45.834663 68.4854199,45.834663 C65.1581453,45.834663 62.5192722,49.5061385 62.5192722,54.0954828 C62.5192722,58.1111592 64.5844772,61.4384339 67.3380838,62.1268355 L67.3380838,66.1425119 L55.8647229,66.1425119 L55.8647229,61.6679011 C58.6183295,60.8647658 60.6835345,56.9638231 60.6835345,52.1450115 C60.6835345,46.6377982 58.0446615,42.3926547 54.7173868,42.3926547 C51.3901121,42.3926547 48.7512391,46.6377982 48.7512391,52.0302779 C48.7512391,56.8490895 50.8164441,60.7500322 53.5700507,61.5531675 L53.5700507,66.0277782 L46.6860341,66.0277782 L46.6860341,20.5932688 C46.6860341,19.9048672 46.2270997,19.4459327 45.538698,19.4459327 L43.3587594,19.4459327 C43.1292922,17.4954614 42.0966897,15.8891908 40.83462,15.0860556 C40.7198864,12.6766498 39.3430831,10.4967112 37.7368126,10.4967112 L36.9336773,10.4967112 L36.9336773,4.07162905 C36.9336773,3.38322739 36.4747429,2.92429295 35.7863412,2.92429295 C35.0979395,2.92429295 34.6390051,3.38322739 34.6390051,4.07162905 L34.6390051,10.4967112 L33.8358698,10.4967112 C32.2295993,10.4967112 30.852796,12.6766498 30.7380624,15.0860556 C29.4759927,15.8891908 28.4433902,17.4954614 28.213923,19.4459327 L27.1813205,19.4459327 L27.1813205,1.43275603 C27.1813205,0.744354372 26.722386,0.285419934 26.0339844,0.285419934 L5.49666825,0.285419934 C4.8082666,0.285419934 4.34933216,0.744354372 4.34933216,1.43275603 L4.34933216,66.0277782 L1.93992636,66.0277782 C1.2515247,66.0277782 0.792590259,66.4867127 0.792590259,67.1751143 C0.792590259,67.863516 1.2515247,68.437184 1.93992636,68.437184 Z M78.1230431,49.8503393 C78.1230431,45.6051957 80.4177153,41.9337202 83.171322,41.9337202 C85.9249286,41.9337202 88.2196008,45.6051957 88.2196008,49.8503393 C88.2196008,53.5218148 86.4985966,56.7343559 84.3186581,57.5374911 L84.3186581,49.8503393 C84.3186581,49.1619376 83.8597236,48.7030032 83.171322,48.7030032 C82.4829203,48.7030032 82.0239859,49.1619376 82.0239859,49.8503393 L82.0239859,57.5374911 C79.8440473,56.7343559 78.1230431,53.5218148 78.1230431,49.8503393 Z M64.8139444,54.0954828 C64.8139444,50.8829418 66.5349486,48.2440688 68.4854199,48.2440688 C70.4358913,48.2440688 72.1568954,50.8829418 72.1568954,54.0954828 C72.1568954,56.6196223 71.124293,58.7995608 69.632756,59.6026961 L69.632756,54.0954828 C69.632756,53.4070812 69.1738216,52.9481467 68.4854199,52.9481467 C67.7970183,52.9481467 67.3380838,53.4070812 67.3380838,54.0954828 L67.3380838,59.6026961 C65.8465469,58.7995608 64.8139444,56.6196223 64.8139444,54.0954828 Z M51.0459113,52.0302779 C51.0459113,47.6704007 52.9963826,44.5725932 54.7173868,44.5725932 C56.4383909,44.5725932 58.3888623,47.6704007 58.3888623,52.0302779 C58.3888623,55.4722862 57.2415262,57.9964256 55.8647229,59.0290281 L55.8647229,53.6365484 C55.8647229,52.9481467 55.4057884,52.4892123 54.7173868,52.4892123 C54.0289851,52.4892123 53.5700507,52.9481467 53.5700507,53.6365484 L53.5700507,59.0290281 C52.1932474,58.1111592 51.0459113,55.4722862 51.0459113,52.0302779 Z M33.8358698,12.7913834 L37.6220789,12.7913834 C37.8515462,12.906117 38.3104806,13.5945186 38.4252142,14.3976539 L33.0327346,14.3976539 C33.2622018,13.479785 33.6064026,12.906117 33.8358698,12.7913834 Z M32.4590665,16.6923261 L38.9988823,16.6923261 C39.5725503,16.6923261 40.7198864,17.8396622 41.0640872,19.4459327 L30.3938615,19.4459327 C30.7380624,17.7249286 32.0001321,16.6923261 32.4590665,16.6923261 Z M44.3913619,21.7406049 L44.3913619,66.1425119 L27.2960541,66.1425119 L27.1813205,21.7406049 L44.3913619,21.7406049 L44.3913619,21.7406049 Z M6.64400435,2.58009213 L24.7719147,2.58009213 L24.7719147,66.0277782 L6.64400435,66.0277782 L6.64400435,2.58009213 Z" id="Shape"></path>
                            <path d="M10.8891479,7.16943651 C10.2007462,7.16943651 9.74181181,7.62837095 9.74181181,8.31677261 L9.74181181,11.8735145 C9.74181181,12.5619162 10.2007462,13.0208506 10.8891479,13.0208506 C11.5775496,13.0208506 12.036484,12.5619162 12.036484,11.8735145 L12.036484,8.31677261 C12.036484,7.62837095 11.462816,7.16943651 10.8891479,7.16943651 Z" id="Shape"></path>
                            <path d="M15.9374267,7.16943651 C15.2490251,7.16943651 14.7900906,7.62837095 14.7900906,8.31677261 L14.7900906,11.8735145 C14.7900906,12.5619162 15.2490251,13.0208506 15.9374267,13.0208506 C16.6258284,13.0208506 17.0847628,12.5619162 17.0847628,11.8735145 L17.0847628,8.31677261 C17.0847628,7.62837095 16.5110948,7.16943651 15.9374267,7.16943651 Z" id="Shape"></path>
                            <path d="M20.9857056,7.16943651 C20.2973039,7.16943651 19.8383695,7.62837095 19.8383695,8.31677261 L19.8383695,11.8735145 C19.8383695,12.5619162 20.2973039,13.0208506 20.9857056,13.0208506 C21.6741072,13.0208506 22.1330416,12.5619162 22.1330416,11.8735145 L22.1330416,8.31677261 C22.1330416,7.62837095 21.5593736,7.16943651 20.9857056,7.16943651 Z" id="Shape"></path>
                            <path d="M10.8891479,16.4628589 C10.2007462,16.4628589 9.74181181,16.9217933 9.74181181,17.610195 L9.74181181,21.1669369 C9.74181181,21.8553385 10.2007462,22.314273 10.8891479,22.314273 C11.5775496,22.314273 12.036484,21.8553385 12.036484,21.1669369 L12.036484,17.610195 C12.036484,17.0365269 11.462816,16.4628589 10.8891479,16.4628589 Z" id="Shape"></path>
                            <path d="M15.9374267,16.4628589 C15.2490251,16.4628589 14.7900906,16.9217933 14.7900906,17.610195 L14.7900906,21.1669369 C14.7900906,21.8553385 15.2490251,22.314273 15.9374267,22.314273 C16.6258284,22.314273 17.0847628,21.8553385 17.0847628,21.1669369 L17.0847628,17.610195 C17.0847628,17.0365269 16.5110948,16.4628589 15.9374267,16.4628589 Z" id="Shape"></path>
                            <path d="M20.9857056,16.4628589 C20.2973039,16.4628589 19.8383695,16.9217933 19.8383695,17.610195 L19.8383695,21.1669369 C19.8383695,21.8553385 20.2973039,22.314273 20.9857056,22.314273 C21.6741072,22.314273 22.1330416,21.8553385 22.1330416,21.1669369 L22.1330416,17.610195 C22.1330416,17.0365269 21.5593736,16.4628589 20.9857056,16.4628589 Z" id="Shape"></path>
                            <path d="M10.8891479,25.7562813 C10.2007462,25.7562813 9.74181181,26.2152157 9.74181181,26.9036174 L9.74181181,30.4603593 C9.74181181,31.1487609 10.2007462,31.6076954 10.8891479,31.6076954 C11.5775496,31.6076954 12.036484,31.1487609 12.036484,30.4603593 L12.036484,26.9036174 C12.036484,26.3299493 11.462816,25.7562813 10.8891479,25.7562813 Z" id="Shape"></path>
                            <path d="M15.9374267,25.7562813 C15.2490251,25.7562813 14.7900906,26.2152157 14.7900906,26.9036174 L14.7900906,30.4603593 C14.7900906,31.1487609 15.2490251,31.6076954 15.9374267,31.6076954 C16.6258284,31.6076954 17.0847628,31.1487609 17.0847628,30.4603593 L17.0847628,26.9036174 C17.0847628,26.3299493 16.5110948,25.7562813 15.9374267,25.7562813 Z" id="Shape"></path>
                            <path d="M20.9857056,25.7562813 C20.2973039,25.7562813 19.8383695,26.2152157 19.8383695,26.9036174 L19.8383695,30.4603593 C19.8383695,31.1487609 20.2973039,31.6076954 20.9857056,31.6076954 C21.6741072,31.6076954 22.1330416,31.1487609 22.1330416,30.4603593 L22.1330416,26.9036174 C22.1330416,26.3299493 21.5593736,25.7562813 20.9857056,25.7562813 Z" id="Shape"></path>
                            <path d="M10.8891479,35.1644373 C10.2007462,35.1644373 9.74181181,35.6233717 9.74181181,36.3117734 L9.74181181,39.8685153 C9.74181181,40.5569169 10.2007462,41.0158513 10.8891479,41.0158513 C11.5775496,41.0158513 12.036484,40.5569169 12.036484,39.8685153 L12.036484,36.3117734 C12.036484,35.6233717 11.462816,35.1644373 10.8891479,35.1644373 Z" id="Shape"></path>
                            <path d="M15.9374267,35.1644373 C15.2490251,35.1644373 14.7900906,35.6233717 14.7900906,36.3117734 L14.7900906,39.8685153 C14.7900906,40.5569169 15.2490251,41.0158513 15.9374267,41.0158513 C16.6258284,41.0158513 17.0847628,40.5569169 17.0847628,39.8685153 L17.0847628,36.3117734 C17.0847628,35.6233717 16.5110948,35.1644373 15.9374267,35.1644373 Z" id="Shape"></path>
                            <path d="M20.9857056,35.1644373 C20.2973039,35.1644373 19.8383695,35.6233717 19.8383695,36.3117734 L19.8383695,39.8685153 C19.8383695,40.5569169 20.2973039,41.0158513 20.9857056,41.0158513 C21.6741072,41.0158513 22.1330416,40.5569169 22.1330416,39.8685153 L22.1330416,36.3117734 C22.1330416,35.6233717 21.5593736,35.1644373 20.9857056,35.1644373 Z" id="Shape"></path>
                            <path d="M10.8891479,44.4578596 C10.2007462,44.4578596 9.74181181,44.9167941 9.74181181,45.6051957 L9.74181181,49.1619376 C9.74181181,49.8503393 10.2007462,50.3092737 10.8891479,50.3092737 C11.5775496,50.3092737 12.036484,49.8503393 12.036484,49.1619376 L12.036484,45.6051957 C12.036484,45.0315277 11.462816,44.4578596 10.8891479,44.4578596 Z" id="Shape"></path>
                            <path d="M15.9374267,44.4578596 C15.2490251,44.4578596 14.7900906,44.9167941 14.7900906,45.6051957 L14.7900906,49.1619376 C14.7900906,49.8503393 15.2490251,50.3092737 15.9374267,50.3092737 C16.6258284,50.3092737 17.0847628,49.8503393 17.0847628,49.1619376 L17.0847628,45.6051957 C17.0847628,45.0315277 16.5110948,44.4578596 15.9374267,44.4578596 Z" id="Shape"></path>
                            <path d="M20.9857056,44.4578596 C20.2973039,44.4578596 19.8383695,44.9167941 19.8383695,45.6051957 L19.8383695,49.1619376 C19.8383695,49.8503393 20.2973039,50.3092737 20.9857056,50.3092737 C21.6741072,50.3092737 22.1330416,49.8503393 22.1330416,49.1619376 L22.1330416,45.6051957 C22.1330416,45.0315277 21.5593736,44.4578596 20.9857056,44.4578596 Z" id="Shape"></path>
                            <path d="M10.8891479,53.8660156 C10.2007462,53.8660156 9.74181181,54.3249501 9.74181181,55.0133517 L9.74181181,58.5700936 C9.74181181,59.2584953 10.2007462,59.7174297 10.8891479,59.7174297 C11.5775496,59.7174297 12.036484,59.2584953 12.036484,58.5700936 L12.036484,55.0133517 C12.036484,54.3249501 11.462816,53.8660156 10.8891479,53.8660156 Z" id="Shape"></path>
                            <path d="M15.9374267,53.8660156 C15.2490251,53.8660156 14.7900906,54.3249501 14.7900906,55.0133517 L14.7900906,58.5700936 C14.7900906,59.2584953 15.2490251,59.7174297 15.9374267,59.7174297 C16.6258284,59.7174297 17.0847628,59.2584953 17.0847628,58.5700936 L17.0847628,55.0133517 C17.0847628,54.3249501 16.5110948,53.8660156 15.9374267,53.8660156 Z" id="Shape"></path>
                            <path d="M20.9857056,53.8660156 C20.2973039,53.8660156 19.8383695,54.3249501 19.8383695,55.0133517 L19.8383695,58.5700936 C19.8383695,59.2584953 20.2973039,59.7174297 20.9857056,59.7174297 C21.6741072,59.7174297 22.1330416,59.2584953 22.1330416,58.5700936 L22.1330416,55.0133517 C22.1330416,54.3249501 21.5593736,53.8660156 20.9857056,53.8660156 Z" id="Shape"></path>
                            <path d="M30.6233288,31.722429 C31.3117304,31.722429 31.7706649,31.2634945 31.7706649,30.5750929 L31.7706649,27.018351 C31.7706649,26.3299493 31.3117304,25.8710149 30.6233288,25.8710149 C29.9349271,25.8710149 29.4759927,26.3299493 29.4759927,27.018351 L29.4759927,30.5750929 C29.4759927,31.1487609 30.0496607,31.722429 30.6233288,31.722429 Z" id="Shape"></path>
                            <path d="M35.6716076,31.722429 C36.3600092,31.722429 36.8189437,31.2634945 36.8189437,30.5750929 L36.8189437,27.018351 C36.8189437,26.3299493 36.3600092,25.8710149 35.6716076,25.8710149 C34.9832059,25.8710149 34.5242715,26.3299493 34.5242715,27.018351 L34.5242715,30.5750929 C34.5242715,31.1487609 35.0979395,31.722429 35.6716076,31.722429 Z" id="Shape"></path>
                            <path d="M40.7198864,31.722429 C41.4082881,31.722429 41.8672225,31.2634945 41.8672225,30.5750929 L41.8672225,27.018351 C41.8672225,26.3299493 41.4082881,25.8710149 40.7198864,25.8710149 C40.0314847,25.8710149 39.5725503,26.3299493 39.5725503,27.018351 L39.5725503,30.5750929 C39.5725503,31.1487609 40.1462184,31.722429 40.7198864,31.722429 Z" id="Shape"></path>
                            <path d="M30.6233288,41.0158513 C31.3117304,41.0158513 31.7706649,40.5569169 31.7706649,39.8685153 L31.7706649,36.3117734 C31.7706649,35.6233717 31.3117304,35.1644373 30.6233288,35.1644373 C29.9349271,35.1644373 29.4759927,35.6233717 29.4759927,36.3117734 L29.4759927,39.8685153 C29.4759927,40.5569169 30.0496607,41.0158513 30.6233288,41.0158513 Z" id="Shape"></path>
                            <path d="M35.6716076,41.0158513 C36.3600092,41.0158513 36.8189437,40.5569169 36.8189437,39.8685153 L36.8189437,36.3117734 C36.8189437,35.6233717 36.3600092,35.1644373 35.6716076,35.1644373 C34.9832059,35.1644373 34.5242715,35.6233717 34.5242715,36.3117734 L34.5242715,39.8685153 C34.5242715,40.5569169 35.0979395,41.0158513 35.6716076,41.0158513 Z" id="Shape"></path>
                            <path d="M40.7198864,41.0158513 C41.4082881,41.0158513 41.8672225,40.5569169 41.8672225,39.8685153 L41.8672225,36.3117734 C41.8672225,35.6233717 41.4082881,35.1644373 40.7198864,35.1644373 C40.0314847,35.1644373 39.5725503,35.6233717 39.5725503,36.3117734 L39.5725503,39.8685153 C39.5725503,40.5569169 40.1462184,41.0158513 40.7198864,41.0158513 Z" id="Shape"></path>
                            <path d="M30.6233288,50.4240073 C31.3117304,50.4240073 31.7706649,49.9650729 31.7706649,49.2766712 L31.7706649,45.7199293 C31.7706649,45.0315277 31.3117304,44.5725932 30.6233288,44.5725932 C29.9349271,44.5725932 29.4759927,45.0315277 29.4759927,45.7199293 L29.4759927,49.2766712 C29.4759927,49.8503393 30.0496607,50.4240073 30.6233288,50.4240073 Z" id="Shape"></path>
                            <path d="M35.6716076,50.4240073 C36.3600092,50.4240073 36.8189437,49.9650729 36.8189437,49.2766712 L36.8189437,45.7199293 C36.8189437,45.0315277 36.3600092,44.5725932 35.6716076,44.5725932 C34.9832059,44.5725932 34.5242715,45.0315277 34.5242715,45.7199293 L34.5242715,49.2766712 C34.5242715,49.8503393 35.0979395,50.4240073 35.6716076,50.4240073 Z" id="Shape"></path>
                            <path d="M40.7198864,50.4240073 C41.4082881,50.4240073 41.8672225,49.9650729 41.8672225,49.2766712 L41.8672225,45.7199293 C41.8672225,45.0315277 41.4082881,44.5725932 40.7198864,44.5725932 C40.0314847,44.5725932 39.5725503,45.0315277 39.5725503,45.7199293 L39.5725503,49.2766712 C39.5725503,49.8503393 40.1462184,50.4240073 40.7198864,50.4240073 Z" id="Shape"></path>
                            <path d="M30.6233288,59.7174297 C31.3117304,59.7174297 31.7706649,59.2584953 31.7706649,58.5700936 L31.7706649,55.0133517 C31.7706649,54.3249501 31.3117304,53.8660156 30.6233288,53.8660156 C29.9349271,53.8660156 29.4759927,54.3249501 29.4759927,55.0133517 L29.4759927,58.5700936 C29.4759927,59.2584953 30.0496607,59.7174297 30.6233288,59.7174297 Z" id="Shape"></path>
                            <path d="M35.6716076,59.7174297 C36.3600092,59.7174297 36.8189437,59.2584953 36.8189437,58.5700936 L36.8189437,55.0133517 C36.8189437,54.3249501 36.3600092,53.8660156 35.6716076,53.8660156 C34.9832059,53.8660156 34.5242715,54.3249501 34.5242715,55.0133517 L34.5242715,58.5700936 C34.5242715,59.2584953 35.0979395,59.7174297 35.6716076,59.7174297 Z" id="Shape"></path>
                            <path d="M40.7198864,59.7174297 C41.4082881,59.7174297 41.8672225,59.2584953 41.8672225,58.5700936 L41.8672225,55.0133517 C41.8672225,54.3249501 41.4082881,53.8660156 40.7198864,53.8660156 C40.0314847,53.8660156 39.5725503,54.3249501 39.5725503,55.0133517 L39.5725503,58.5700936 C39.5725503,59.2584953 40.1462184,59.7174297 40.7198864,59.7174297 Z" id="Shape"></path>
                            <path d="M73.763166,17.3807278 C73.763166,14.7418547 71.5832274,12.6766498 69.059088,12.6766498 C66.5349486,12.6766498 64.35501,14.8565884 64.35501,17.3807278 C64.35501,19.9048672 66.5349486,22.0848058 69.059088,22.0848058 C71.5832274,22.0848058 73.763166,20.0196008 73.763166,17.3807278 Z M68.9443544,19.9048672 C67.5675511,19.9048672 66.5349486,18.7575311 66.5349486,17.4954614 C66.5349486,16.2333917 67.6822847,15.0860556 68.9443544,15.0860556 C70.2064241,15.0860556 71.3537602,16.2333917 71.3537602,17.4954614 C71.3537602,18.7575311 70.3211577,19.9048672 68.9443544,19.9048672 Z" id="Shape"></path>
                            <path d="M68.9443544,10.7261784 C69.632756,10.7261784 70.0916905,10.267244 70.0916905,9.57884231 L70.0916905,6.82523568 C70.0916905,6.13683402 69.632756,5.67789959 68.9443544,5.67789959 C68.2559527,5.67789959 67.7970183,6.13683402 67.7970183,6.82523568 L67.7970183,9.57884231 C67.7970183,10.267244 68.3706863,10.7261784 68.9443544,10.7261784 Z" id="Shape"></path>
                            <path d="M72.3863627,11.6440473 C72.6158299,11.7587809 72.7305635,11.7587809 72.9600307,11.7587809 C73.3042315,11.7587809 73.763166,11.5293137 73.9926332,11.1851128 L75.3694365,8.77570705 C75.7136373,8.202039 75.4841701,7.51363734 74.9105021,7.16943651 C74.336834,6.82523568 73.6484324,7.0547029 73.3042315,7.62837095 L71.9274282,10.0377768 C71.5832274,10.6114448 71.8126946,11.2998465 72.3863627,11.6440473 Z" id="Shape"></path>
                            <path d="M74.9105021,14.1681867 C75.1399693,14.5123875 75.4841701,14.7418547 75.9431046,14.7418547 C76.1725718,14.7418547 76.2873054,14.7418547 76.5167726,14.6271211 L78.9261784,13.2503178 C79.4998465,12.906117 79.6145801,12.2177153 79.3851128,11.6440473 C79.040912,11.0703792 78.3525104,10.9556456 77.7788423,11.1851128 L75.3694365,12.5619162 C74.6810349,12.906117 74.5663012,13.5945186 74.9105021,14.1681867 Z" id="Shape"></path>
                            <path d="M75.8283709,17.4954614 C75.8283709,18.0691294 76.402039,18.6427975 76.975707,18.6427975 L76.975707,18.6427975 L79.7293137,18.6427975 C80.4177153,18.6427975 80.8766498,18.0691294 80.8766498,17.4954614 C80.8766498,16.8070597 80.3029817,16.3481253 79.7293137,16.3481253 L76.975707,16.3481253 C76.2873054,16.3481253 75.8283709,16.9217933 75.8283709,17.4954614 Z" id="Shape"></path>
                            <path d="M78.467244,23.9205435 C78.9261784,23.9205435 79.2703792,23.6910763 79.4998465,23.3468755 C79.8440473,22.7732074 79.6145801,22.0848058 79.040912,21.7406049 L76.6315062,20.3638016 C76.0578382,20.0196008 75.3694365,20.249068 75.0252357,20.8227361 C74.6810349,21.3964041 74.9105021,22.0848058 75.4841701,22.4290066 L77.8935759,23.8058099 C78.0083095,23.9205435 78.2377768,23.9205435 78.467244,23.9205435 Z" id="Shape"></path>
                            <path d="M73.6484324,27.3625518 C73.8778996,27.7067526 74.2221004,27.9362199 74.6810349,27.9362199 C74.9105021,27.9362199 75.1399693,27.9362199 75.2547029,27.8214862 C75.8283709,27.4772854 75.9431046,26.7888838 75.5989037,26.2152157 L74.1073668,23.8058099 C73.763166,23.2321419 73.0747643,23.1174082 72.5010963,23.4616091 C71.9274282,23.8058099 71.8126946,24.4942116 72.1568954,25.0678796 L73.6484324,27.3625518 Z" id="Shape"></path>
                            <path d="M69.1738216,24.4942116 C68.4854199,24.4942116 68.0264855,25.0678796 68.0264855,25.6415477 L68.1412191,28.3951543 C68.1412191,28.9688223 68.7148872,29.5424904 69.2885552,29.5424904 L69.2885552,29.5424904 C69.9769569,29.5424904 70.4358913,28.9688223 70.4358913,28.3951543 L70.4358913,25.526814 C70.3211577,24.953146 69.8622232,24.379478 69.1738216,24.4942116 Z" id="Shape"></path>
                            <path d="M63.4371411,28.1656871 C63.5518747,28.2804207 63.7813419,28.2804207 64.0108092,28.2804207 C64.4697436,28.2804207 64.8139444,28.0509535 65.0434116,27.7067526 L66.3054814,25.2973468 C66.6496822,24.7236788 66.420215,24.0352771 65.8465469,23.6910763 C65.2728789,23.3468755 64.5844772,23.5763427 64.2402764,24.1500107 L62.9782067,26.6741501 C62.6340058,27.1330846 62.8634731,27.8214862 63.4371411,28.1656871 Z" id="Shape"></path>
                            <path d="M63.2076739,21.2816705 C62.8634731,20.7080024 62.1750714,20.5932688 61.6014034,20.9374697 L59.3067312,22.4290066 C58.7330631,22.7732074 58.6183295,23.4616091 58.9625303,24.0352771 C59.1919976,24.379478 59.5361984,24.6089452 59.8803992,24.6089452 C60.1098664,24.6089452 60.3393337,24.4942116 60.4540673,24.379478 L62.7487395,22.887941 C63.4371411,22.5437402 63.5518747,21.8553385 63.2076739,21.2816705 Z" id="Shape"></path>
                            <path d="M58.1593951,19.3311991 L58.1593951,19.3311991 L61.0277353,19.2164655 C61.716137,19.2164655 62.1750714,18.6427975 62.0603378,18.0691294 C62.0603378,17.3807278 61.4866697,16.9217933 60.9130017,17.0365269 L58.1593951,17.1512605 C57.4709934,17.1512605 57.012059,17.7249286 57.1267926,18.2985966 C57.1267926,18.8722647 57.585727,19.3311991 58.1593951,19.3311991 Z" id="Shape"></path>
                            <path d="M58.8477967,13.8239859 L61.3719361,15.0860556 C61.4866697,15.2007892 61.716137,15.2007892 61.9456042,15.2007892 C62.4045386,15.2007892 62.7487395,14.971322 62.9782067,14.6271211 C63.2076739,14.0534531 63.0929403,13.3650514 62.5192722,13.1355842 L59.8803992,11.7587809 C59.3067312,11.5293137 58.6183295,11.6440473 58.3888623,12.2177153 C58.0446615,12.7913834 58.2741287,13.479785 58.8477967,13.8239859 Z" id="Shape"></path>
                            <path d="M63.5518747,11.5293137 C63.7813419,11.8735145 64.1255428,11.9882481 64.4697436,11.9882481 C64.6992108,11.9882481 64.928678,11.8735145 65.1581453,11.7587809 C65.7318133,11.4145801 65.8465469,10.7261784 65.5023461,10.1525104 L64.0108092,7.85783817 C63.6666083,7.28417012 62.9782067,7.16943651 62.4045386,7.51363734 C61.8308706,7.85783817 61.716137,8.54623983 62.0603378,9.11990787 L63.5518747,11.5293137 Z" id="Shape"></path>
                        </g>
                        <g id="Round-Trees" transform="translate(836.000000, 13.000000)" fill-rule="nonzero" fill="#43BC8F">
                            <path d="M14.7059238,45.8753356 L14.7059238,63.3148442 C14.7059238,64.0032459 15.1648582,64.4621803 15.8532599,64.4621803 C16.5416615,64.4621803 17.000596,64.0032459 17.000596,63.3148442 L17.000596,45.8753356 C24.8024814,45.3016675 30.8833627,38.8765854 30.8833627,30.9599663 C30.8833627,22.6991464 24.1140798,15.9298634 15.8532599,15.9298634 C7.59243998,15.9298634 0.937890625,22.6991464 0.937890625,30.9599663 C0.937890625,38.7618518 7.01877193,45.1869339 14.7059238,45.8753356 Z M15.9679935,18.2245356 C22.9667437,18.2245356 28.7034242,23.9612161 28.7034242,30.9599663 C28.7034242,37.6145157 23.5404117,43.0069953 17.1153296,43.5806634 L17.1153296,35.7787779 L22.3930756,29.6978966 C22.8520101,29.2389622 22.7372765,28.5505605 22.278342,28.0916261 C21.8194076,27.6326916 21.1310059,27.7474252 20.6720715,28.2063597 L17.1153296,32.222036 L17.1153296,22.81388 C17.1153296,22.1254784 16.6563951,21.6665439 15.9679935,21.6665439 C15.2795918,21.6665439 14.8206574,22.1254784 14.8206574,22.81388 L14.8206574,37.8439829 C12.9849196,35.5493107 10.4607802,32.3367696 10.4607802,32.3367696 C10.1165794,31.8778352 9.31344413,31.7631016 8.85450969,32.1073024 C8.39557525,32.4515032 8.28084164,33.2546385 8.62504247,33.7135729 C8.85450969,33.9430402 13.4438541,39.7944542 14.8206574,41.4007248 L14.935391,41.4007248 L14.935391,43.3511961 C8.51030886,42.7775281 3.46203004,37.2703148 3.46203004,30.7304991 C3.23256282,23.9612161 8.9692433,18.2245356 15.9679935,18.2245356 Z" id="Shape"></path>
                            <path d="M75.0558024,15.9298634 C73.5642655,15.9298634 72.1874622,16.1593307 70.8106589,16.5035315 C69.0896547,7.43957633 61.1730357,0.555559756 51.5354125,0.555559756 C40.7504532,0.555559756 31.9159652,9.3900477 31.9159652,20.175007 C31.9159652,30.6157655 40.0620515,39.1060526 50.2733428,39.6797206 L50.2733428,63.2001106 C50.2733428,63.8885123 50.7322772,64.3474467 51.4206789,64.3474467 C52.1090805,64.3474467 52.568015,63.8885123 52.568015,63.2001106 L52.568015,39.6797206 C55.780556,39.4502534 58.7636299,38.5323845 61.4025029,37.0408476 C63.6971751,41.9743928 68.4012531,45.4164011 73.9084663,45.8753356 L73.9084663,63.3148442 C73.9084663,64.0032459 74.3674008,64.4621803 75.0558024,64.4621803 C75.7442041,64.4621803 76.2031385,64.0032459 76.2031385,63.3148442 L76.2031385,45.8753356 C84.005024,45.3016675 90.0859053,38.8765854 90.0859053,30.9599663 C89.9711717,22.6991464 83.3166223,15.9298634 75.0558024,15.9298634 Z M62.4351054,33.5988393 C59.6814987,35.7787779 56.3542241,37.1555812 52.568015,37.3850484 L52.568015,26.4853555 L59.6814987,18.3392692 C60.1404332,17.8803348 60.0256996,17.1919332 59.5667651,16.7329987 C59.1078307,16.2740643 58.419429,16.3887979 57.9604946,16.8477323 L52.568015,23.0433472 L52.568015,9.50478131 C52.568015,8.81637965 52.1090805,8.35744521 51.4206789,8.35744521 C50.7322772,8.35744521 50.2733428,8.81637965 50.2733428,9.50478131 L50.2733428,30.6157655 C47.7492033,27.517958 43.733527,22.4696792 43.733527,22.4696792 C43.3893262,22.0107448 42.5861909,21.8960111 42.1272565,22.240212 C41.668322,22.5844128 41.5535884,23.3875481 41.8977893,23.8464825 C42.1272565,24.1906833 48.3228714,31.9925688 50.0438755,34.0577738 C50.0438755,34.1725074 50.1586092,34.1725074 50.2733428,34.1725074 L50.2733428,37.3850484 C41.3241212,36.6966468 34.2106374,29.2389622 34.2106374,20.175007 C34.2106374,10.6521174 42.0125229,2.85023195 51.5354125,2.85023195 C60.3699004,2.85023195 67.7128514,9.61951492 68.7454539,18.2245356 L68.7454539,18.6834701 C68.7454539,19.1424045 68.8601875,19.601339 68.8601875,20.0602734 L68.8601875,20.0602734 L68.8601875,20.0602734 C68.8601875,20.6339414 68.8601875,21.0928759 68.7454539,21.5518103 L68.7454539,21.8960111 C68.7454539,22.3549456 68.6307203,22.81388 68.5159867,23.2728145 C68.5159867,23.3875481 68.4012531,23.5022817 68.4012531,23.7317489 C68.2865195,24.1906833 68.1717859,24.5348842 68.0570523,24.879085 C68.0570523,24.9938186 67.9423186,25.1085522 67.9423186,25.2232858 C67.827585,25.6822203 67.5981178,26.0264211 67.4833842,26.4853555 C67.4833842,26.6000891 67.3686506,26.7148227 67.3686506,26.94429 C67.1391834,27.4032244 67.0244498,27.7474252 66.7949825,28.2063597 C66.7949825,28.3210933 66.6802489,28.4358269 66.6802489,28.4358269 C66.4507817,28.7800277 66.2213145,29.2389622 65.9918473,29.583163 C65.9918473,29.6978966 65.8771137,29.6978966 65.8771137,29.8126302 C65.6476464,30.2715646 65.3034456,30.6157655 64.9592448,30.9599663 C64.9592448,31.0746999 64.8445112,31.0746999 64.8445112,31.1894335 C64.1561095,31.9925688 63.4677079,32.6809704 62.6645726,33.3693721 C62.549839,33.4841057 62.4351054,33.4841057 62.4351054,33.5988393 Z M76.0884049,43.5806634 L76.0884049,35.7787779 L81.366151,29.6978966 C81.8250854,29.2389622 81.7103518,28.5505605 81.2514174,28.0916261 C80.7924829,27.6326916 80.1040813,27.7474252 79.6451468,28.2063597 L76.0884049,32.222036 L76.0884049,22.81388 C76.0884049,22.1254784 75.6294705,21.6665439 74.9410688,21.6665439 C74.2526672,21.6665439 73.7937327,22.1254784 73.7937327,22.81388 L73.7937327,37.8439829 C71.957995,35.5493107 69.4338556,32.3367696 69.4338556,32.3367696 C69.0896547,31.8778352 68.2865195,31.7631016 67.827585,32.1073024 C67.3686506,32.4515032 67.253917,33.2546385 67.5981178,33.7135729 C67.827585,33.9430402 72.4169294,39.7944542 73.7937327,41.4007248 L73.9084663,41.4007248 L73.9084663,43.3511961 C69.2043883,42.8922617 65.188712,39.9091879 63.3529743,35.5493107 C63.5824415,35.4345771 63.6971751,35.2051099 63.9266423,35.0903763 L64.0413759,34.9756426 C64.5003104,34.6314418 64.9592448,34.1725074 65.3034456,33.8283065 L65.4181792,33.7135729 C66.2213145,32.9104377 67.0244498,31.9925688 67.5981178,30.9599663 C67.5981178,30.8452327 67.7128514,30.8452327 67.7128514,30.7304991 C68.0570523,30.2715646 68.2865195,29.8126302 68.5159867,29.3536958 C68.6307203,29.2389622 68.6307203,29.1242286 68.7454539,29.0094949 C68.9749211,28.5505605 69.2043883,28.0916261 69.4338556,27.517958 C69.4338556,27.4032244 69.5485892,27.2884908 69.5485892,27.2884908 C69.7780564,26.8295564 69.89279,26.3706219 70.0075236,25.9116875 C70.0075236,25.7969539 70.1222572,25.6822203 70.1222572,25.5674867 C70.2369908,25.1085522 70.3517244,24.5348842 70.4664581,24.0759497 C70.4664581,23.9612161 70.5811917,23.7317489 70.5811917,23.6170153 C70.6959253,23.0433472 70.8106589,22.5844128 70.8106589,22.0107448 L70.8106589,21.6665439 C70.8106589,21.0928759 70.9253925,20.5192078 70.9253925,19.9455398 L70.9253925,19.9455398 L70.9253925,19.9455398 L70.9253925,18.6834701 C72.1874622,18.2245356 73.5642655,17.9950684 74.9410688,17.9950684 C81.939819,17.9950684 87.6764995,23.7317489 87.6764995,30.7304991 C87.6764995,37.6145157 82.6282207,43.0069953 76.0884049,43.5806634 Z" id="Shape"></path>
                        </g>
                        <g id="Tower-and-swings" transform="translate(935.000000, 0.000000)" fill-rule="nonzero" fill="#43BC8F">
                            <path d="M87.3122769,83 C88.0006786,83 88.459613,82.5363869 88.459613,81.8409673 C88.459613,81.1455477 88.0006786,80.6819346 87.3122769,80.6819346 L82.2639981,80.6819346 L82.2639981,75.5821907 C84.2144695,75.1185777 85.5912728,73.2641253 85.5912728,71.1778665 C85.5912728,69.671124 84.9028711,68.396188 83.755535,67.5848651 C84.5586703,66.8894455 85.0176047,65.8463161 85.0176047,64.6872834 C85.0176047,62.4851212 83.2966006,60.7465722 81.116662,60.7465722 C78.9367234,60.7465722 77.2157193,62.4851212 77.2157193,64.6872834 C77.2157193,65.8463161 77.6746537,66.8894455 78.477789,67.5848651 C77.3304529,68.396188 76.6420512,69.7870272 76.6420512,71.1778665 C76.6420512,73.2641253 78.0188545,75.0026744 79.9693259,75.5821907 L79.9693259,80.6819346 L72.0527068,80.6819346 L72.0527068,77.7843529 C74.1179118,77.2048365 75.7241823,75.3503842 75.7241823,73.0323188 C75.7241823,70.3665436 73.5442438,68.1643815 70.9053707,68.1643815 C68.2664977,68.1643815 66.0865591,70.3665436 66.0865591,73.0323188 C66.0865591,75.3503842 67.6928297,77.2048365 69.7580346,77.7843529 L69.7580346,80.7978379 L62.8740181,80.7978379 L62.8740181,27.9459469 C62.8740181,27.2505272 62.4150836,26.7869142 61.726682,26.7869142 L58.5141409,26.7869142 C58.1699401,24.4688488 56.7931368,22.4984932 55.0721326,21.571267 C54.957399,18.9054918 53.1216613,16.4715231 51.2859235,16.4715231 L49.7943866,16.4715231 L49.7943866,8.93781061 C49.7943866,8.24239099 49.3354521,7.77877791 48.6470505,7.77877791 C47.9586488,7.77877791 47.4997144,8.24239099 47.4997144,8.93781061 L47.4997144,16.4715231 L46.0081775,16.4715231 C44.1724397,16.4715231 42.3367019,18.9054918 42.2219683,21.571267 C40.6156978,22.4984932 39.1241609,24.4688488 38.7799601,26.7869142 L35.567419,26.7869142 C35.2232182,26.7869142 34.9937509,26.9028174 34.7642837,27.134624 C34.5348165,27.3664305 34.4200829,27.598237 34.4200829,27.9459469 L34.6495501,80.6819346 L31.7812099,80.6819346 L29.9454721,58.8921199 C29.9454721,58.3126035 29.3718041,57.8489905 28.798136,57.8489905 L6.19561492,57.8489905 C5.62194687,57.8489905 5.04827882,58.3126035 5.04827882,58.8921199 L3.21254107,80.6819346 L1.1473361,80.6819346 C0.458934438,80.6819346 0,81.1455477 0,81.8409673 C0,82.5363869 0.458934438,83 1.1473361,83 L87.3122769,83 Z M81.116662,63.0646376 C82.0345309,63.0646376 82.7229325,63.7600572 82.7229325,64.6872834 C82.7229325,65.6145095 82.0345309,66.3099292 81.116662,66.3099292 C80.1987931,66.3099292 79.5103915,65.6145095 79.5103915,64.6872834 C79.5103915,63.7600572 80.3135267,63.0646376 81.116662,63.0646376 Z M78.9367234,71.2937698 C78.9367234,70.1347371 79.9693259,69.0916076 81.116662,69.0916076 C82.2639981,69.0916076 83.2966006,70.1347371 83.2966006,71.2937698 C83.2966006,72.4528024 82.2639981,73.4959319 81.116662,73.4959319 C79.9693259,73.4959319 78.9367234,72.4528024 78.9367234,71.2937698 Z M68.3812313,73.0323188 C68.3812313,71.6414796 69.5285674,70.4824469 70.9053707,70.4824469 C72.2821741,70.4824469 73.4295102,71.6414796 73.4295102,73.0323188 C73.4295102,74.423158 72.2821741,75.5821907 70.9053707,75.5821907 C69.5285674,75.5821907 68.3812313,74.423158 68.3812313,73.0323188 Z M54.1542637,80.6819346 L43.2545708,80.6819346 L43.2545708,68.6279945 C43.2545708,65.6145095 45.6639766,63.0646376 48.7617841,63.0646376 C51.7448579,63.0646376 54.2689973,65.4986063 54.2689973,68.6279945 L54.2689973,80.6819346 L54.1542637,80.6819346 Z M46.0081775,18.7895885 L51.2859235,18.7895885 C51.6301243,18.7895885 52.4332596,19.7168147 52.6627268,20.9917507 L44.5166405,20.9917507 C44.8608414,19.6009114 45.6639766,18.7895885 46.0081775,18.7895885 Z M44.2871733,23.3098161 L53.0069276,23.3098161 C54.0395301,23.3098161 55.7605343,24.7006553 56.2194687,26.7869142 L41.0746322,26.7869142 C41.5335667,24.7006553 43.2545708,23.3098161 44.2871733,23.3098161 Z M60.5793459,29.1049795 L60.5793459,80.6819346 L56.4489359,80.6819346 L56.4489359,68.6279945 C56.4489359,64.3395736 53.0069276,60.7465722 48.6470505,60.7465722 C44.2871733,60.7465722 40.845165,64.2236703 40.845165,68.6279945 L40.845165,80.6819346 L36.9442223,80.6819346 L36.7147551,29.1049795 L60.5793459,29.1049795 Z M20.881517,60.2829591 L24.2087916,60.2829591 L24.2087916,75.4662875 C24.2087916,76.2776104 23.52039,76.97303 22.6025211,76.97303 C21.6846522,76.97303 20.881517,76.3935136 20.881517,75.4662875 L20.881517,60.2829591 Z M10.4407585,60.2829591 L13.7680332,60.2829591 L13.7680332,75.4662875 C13.7680332,76.2776104 13.0796315,76.97303 12.1617626,76.97303 C11.2438937,76.97303 10.5554921,76.2776104 10.5554921,75.4662875 L10.5554921,60.2829591 L10.4407585,60.2829591 Z M7.34295102,60.2829591 L8.14608628,60.2829591 L8.14608628,75.4662875 C8.14608628,77.5525463 9.86709043,79.2910954 12.047029,79.2910954 C14.2269676,79.2910954 15.9479717,77.5525463 15.9479717,75.4662875 L15.9479717,60.2829591 L18.5868448,60.2829591 L18.5868448,75.4662875 C18.5868448,77.5525463 20.3078489,79.2910954 22.4877875,79.2910954 C24.6677261,79.2910954 26.3887302,77.5525463 26.3887302,75.4662875 L26.3887302,60.2829591 L27.5360663,60.2829591 L29.2570705,80.7978379 L5.50721326,80.7978379 L7.34295102,60.2829591 Z" id="Shape"></path>
                            <path d="M42.1066882,42.7725288 C42.7950899,42.7725288 43.2540243,42.3135944 43.2540243,41.6251927 L43.2540243,36.3474467 C43.2540243,35.659045 42.7950899,35.2001106 42.1066882,35.2001106 C41.4182866,35.2001106 40.9593521,35.659045 40.9593521,36.3474467 L40.9593521,41.6251927 C40.9593521,42.3135944 41.5330202,42.7725288 42.1066882,42.7725288 Z" id="Shape"></path>
                            <path d="M55.4157869,42.7725288 C56.1041886,42.7725288 56.563123,42.3135944 56.563123,41.6251927 L56.563123,36.3474467 C56.563123,35.659045 56.1041886,35.2001106 55.4157869,35.2001106 C54.7273853,35.2001106 54.2684508,35.659045 54.2684508,36.3474467 L54.2684508,41.6251927 C54.2684508,42.3135944 54.7273853,42.7725288 55.4157869,42.7725288 Z" id="Shape"></path>
                            <path d="M42.1066882,56.540562 C42.7950899,56.540562 43.2540243,56.0816276 43.2540243,55.3932259 L43.2540243,50.1154799 C43.2540243,49.4270782 42.7950899,48.9681438 42.1066882,48.9681438 C41.4182866,48.9681438 40.9593521,49.4270782 40.9593521,50.1154799 L40.9593521,55.3932259 C40.9593521,56.0816276 41.5330202,56.540562 42.1066882,56.540562 Z" id="Shape"></path>
                            <path d="M55.4157869,56.540562 C56.1041886,56.540562 56.563123,56.0816276 56.563123,55.3932259 L56.563123,50.1154799 C56.563123,49.4270782 56.1041886,48.9681438 55.4157869,48.9681438 C54.7273853,48.9681438 54.2684508,49.4270782 54.2684508,50.1154799 L54.2684508,55.3932259 C54.2684508,56.0816276 54.7273853,56.540562 55.4157869,56.540562 Z" id="Shape"></path>
                            <path d="M48.7612376,42.7725288 C49.4496392,42.7725288 49.9085737,42.3135944 49.9085737,41.6251927 L49.9085737,36.3474467 C49.9085737,35.659045 49.4496392,35.2001106 48.7612376,35.2001106 C48.0728359,35.2001106 47.6139015,35.659045 47.6139015,36.3474467 L47.6139015,41.6251927 C47.6139015,42.3135944 48.0728359,42.7725288 48.7612376,42.7725288 Z" id="Shape"></path>
                            <path d="M48.7612376,56.540562 C49.4496392,56.540562 49.9085737,56.0816276 49.9085737,55.3932259 L49.9085737,50.1154799 C49.9085737,49.4270782 49.4496392,48.9681438 48.7612376,48.9681438 C48.0728359,48.9681438 47.6139015,49.4270782 47.6139015,50.1154799 L47.6139015,55.3932259 C47.6139015,56.0816276 48.0728359,56.540562 48.7612376,56.540562 Z" id="Shape"></path>
                            <path d="M79.2803777,14.3185937 C79.2803777,11.3355198 76.8709719,8.926114 73.8878981,8.926114 C70.9048242,8.926114 68.4954184,11.3355198 68.4954184,14.3185937 C68.4954184,17.3016675 70.9048242,19.7110733 73.8878981,19.7110733 C76.8709719,19.7110733 79.2803777,17.1869339 79.2803777,14.3185937 Z M73.8878981,17.3016675 C72.1668939,17.3016675 70.7900906,15.9248642 70.7900906,14.20386 C70.7900906,12.4828559 72.1668939,11.1060526 73.8878981,11.1060526 C75.6089022,11.1060526 76.9857056,12.4828559 76.9857056,14.20386 C76.9857056,15.9248642 75.6089022,17.3016675 73.8878981,17.3016675 Z" id="Shape"></path>
                            <path d="M75.0352342,5.13990489 L75.0352342,1.92736382 C75.0352342,1.23896216 74.5762997,0.780027722 73.8878981,0.780027722 C73.1994964,0.780027722 72.740562,1.23896216 72.740562,1.92736382 L72.740562,5.13990489 C72.740562,5.82830654 73.1994964,6.28724098 73.8878981,6.28724098 C74.5762997,6.28724098 75.0352342,5.71357294 75.0352342,5.13990489 Z" id="Shape"></path>
                            <path d="M80.6571811,2.50103187 C80.083513,2.15683104 79.3951114,2.38629826 79.0509105,2.9599663 L77.44464,5.82830654 C77.1004392,6.40197459 77.3299064,7.09037625 77.9035744,7.43457708 C78.1330416,7.54931069 78.2477753,7.54931069 78.4772425,7.54931069 C78.8214433,7.54931069 79.2803777,7.31984347 79.509845,6.97564264 L81.1161155,4.1073024 C81.4603163,3.53363435 81.2308491,2.84523269 80.6571811,2.50103187 Z" id="Shape"></path>
                            <path d="M81.0013819,10.3029173 C81.2308491,10.6471181 81.5750499,10.8765854 82.0339844,10.8765854 C82.2634516,10.8765854 82.3781852,10.8765854 82.6076524,10.7618518 L85.3612591,9.04084761 C85.9349271,8.69664679 86.0496607,8.00824513 85.8201935,7.43457708 C85.5907263,6.86090903 84.787591,6.74617542 84.213923,6.97564264 L81.4603163,8.69664679 C80.7719147,9.04084761 80.6571811,9.72924927 81.0013819,10.3029173 Z" id="Shape"></path>
                            <path d="M87.6559312,14.3185937 C87.6559312,13.7449256 87.0822632,13.1712576 86.5085952,13.1712576 L86.5085952,13.1712576 L83.2960541,13.1712576 C82.6076524,13.1712576 82.148718,13.7449256 82.148718,14.3185937 C82.148718,14.8922617 82.722386,15.4659298 83.2960541,15.4659298 L83.2960541,15.4659298 L86.5085952,15.4659298 C87.1969968,15.4659298 87.6559312,14.8922617 87.6559312,14.3185937 Z" id="Shape"></path>
                            <path d="M85.0170582,21.7762783 C85.4759927,21.7762783 85.8201935,21.5468111 86.0496607,21.2026102 C86.3938615,20.6289422 86.1643943,19.9405405 85.5907263,19.5963397 L82.722386,17.9900692 C82.148718,17.6458683 81.4603163,17.8753356 81.1161155,18.4490036 C80.7719147,19.0226717 81.0013819,19.7110733 81.5750499,20.0552741 L84.4433902,21.6615447 C84.5581238,21.6615447 84.787591,21.7762783 85.0170582,21.7762783 Z" id="Shape"></path>
                            <path d="M79.509845,25.9066882 C79.7393122,26.2508891 80.083513,26.4803563 80.5424474,26.4803563 C80.7719147,26.4803563 81.0013819,26.4803563 81.1161155,26.3656227 C81.6897835,26.0214218 81.8045172,25.3330202 81.4603163,24.7593521 L79.7393122,22.0057455 C79.3951114,21.4320775 78.7067097,21.3173438 78.1330416,21.6615447 C77.5593736,22.0057455 77.44464,22.6941472 77.7888408,23.2678152 L79.509845,25.9066882 Z" id="Shape"></path>
                            <path d="M74.1173653,22.6941472 C73.4289637,22.6941472 72.9700292,23.2678152 72.9700292,23.8414833 L73.0847628,27.0540243 C73.0847628,27.6276924 73.6584309,28.2013604 74.2320989,28.2013604 L74.2320989,28.2013604 C74.9205006,28.2013604 75.379435,27.6276924 75.379435,27.0540243 L75.2647014,23.8414833 C75.2647014,23.2678152 74.805767,22.6941472 74.1173653,22.6941472 Z" id="Shape"></path>
                            <path d="M67.462816,26.7098235 C67.5775496,26.8245571 67.8070168,26.8245571 68.036484,26.8245571 C68.4954184,26.8245571 68.8396193,26.5950899 69.0690865,26.2508891 L70.5606234,23.3825488 C70.9048242,22.8088808 70.675357,22.1204791 70.101689,21.7762783 C69.5280209,21.4320775 68.8396193,21.6615447 68.4954184,22.2352127 L67.0038815,25.103553 C66.6596807,25.677221 66.8891479,26.3656227 67.462816,26.7098235 Z" id="Shape"></path>
                            <path d="M63.2176724,22.4646799 C63.4471396,22.4646799 63.6766068,22.3499463 63.7913404,22.2352127 L66.5449471,20.5142086 C67.1186151,20.1700077 67.2333487,19.4816061 66.8891479,18.907938 C66.5449471,18.33427 65.8565454,18.2195364 65.2828774,18.5637372 L62.5292707,20.2847414 C61.9556027,20.6289422 61.8408691,21.3173438 62.1850699,21.8910119 C62.4145371,22.2352127 62.8734716,22.4646799 63.2176724,22.4646799 Z" id="Shape"></path>
                            <path d="M60.1198649,15.2364625 C60.1198649,15.8101306 60.693533,16.3837986 61.267201,16.3837986 L61.3819346,16.3837986 L64.5944757,16.269065 C65.2828774,16.269065 65.7418118,15.695397 65.6270782,15.1217289 C65.6270782,14.4333273 65.0534102,13.9743928 64.4797421,14.0891264 L61.1524674,13.9743928 C60.5787994,13.9743928 60.0051313,14.5480609 60.1198649,15.2364625 Z" id="Shape"></path>
                            <path d="M61.4966683,8.23771235 C61.267201,8.8113804 61.3819346,9.49978205 61.9556027,9.72924927 L64.8239429,11.2207862 C64.9386765,11.3355198 65.1681438,11.3355198 65.397611,11.3355198 C65.8565454,11.3355198 66.2007462,11.1060526 66.4302135,10.7618518 C66.6596807,10.1881837 66.5449471,9.49978205 65.971279,9.27031483 L63.1029388,7.77877791 C62.5292707,7.43457708 61.8408691,7.6640443 61.4966683,8.23771235 Z" id="Shape"></path>
                            <path d="M68.7248857,7.77877791 C68.9543529,7.77877791 69.1838201,7.6640443 69.4132873,7.54931069 C69.9869554,7.20510986 70.101689,6.5167082 69.7574881,5.94304015 L67.9217504,3.18943352 C67.5775496,2.61576548 66.8891479,2.50103187 66.3154799,2.84523269 C65.7418118,3.18943352 65.6270782,3.87783518 65.971279,4.45150323 L67.8070168,7.20510986 C67.9217504,7.6640443 68.2659512,7.77877791 68.7248857,7.77877791 Z" id="Shape"></path>
                        </g>
                        <g id="City" transform="translate(1227.000000, 0.000000)" fill-rule="nonzero" fill="#43BC8F">
                            <path d="M1.49153693,83.181867 L87.6564777,83.181867 C88.3448794,83.181867 88.8038138,82.7229325 88.8038138,82.0345309 C88.8038138,81.3461292 88.3448794,80.8871948 87.6564777,80.8871948 L86.394408,80.8871948 L86.394408,34.0758821 C86.394408,33.3874804 85.9354736,32.928546 85.2470719,32.928546 L66.43076,32.928546 C65.7423583,32.928546 65.2834239,33.3874804 65.2834239,34.0758821 L65.2834239,39.8125625 L61.726682,39.8125625 L61.726682,5.85141409 C61.726682,5.16301243 61.2677475,4.70407799 60.5793459,4.70407799 L41.8777675,4.70407799 C41.1893659,4.70407799 40.7304314,5.16301243 40.7304314,5.85141409 L40.7304314,43.9429725 L37.8620912,43.9429725 L36.7147551,23.2909228 C36.7147551,22.7172547 36.141087,22.2583203 35.567419,22.2583203 L29.6012713,22.2583203 C29.0276032,22.2583203 28.4539352,22.7172547 28.4539352,23.2909228 L27.3065991,43.9429725 L24.8971933,43.9429725 L24.8971933,30.0602057 C24.8971933,29.3718041 24.4382588,28.9128696 23.7498572,28.9128696 L22.028853,28.9128696 C21.6846522,25.9297958 19.7341809,23.2909228 17.6689759,23.2909228 L15.4890373,23.2909228 L15.4890373,15.7185045 C15.4890373,15.0301029 15.0301029,14.5711684 14.3417012,14.5711684 C13.6532995,14.5711684 13.1943651,15.0301029 13.1943651,15.7185045 L13.1943651,23.2909228 L11.1291601,23.2909228 C9.06395516,23.2909228 6.99875019,25.9297958 6.76928297,28.9128696 L4.8188116,28.9128696 C4.13040995,28.9128696 3.67147551,29.3718041 3.67147551,30.0602057 L3.67147551,80.8871948 L1.26206971,80.8871948 C0.573668048,80.8871948 0.11473361,81.3461292 0.11473361,82.0345309 C0.11473361,82.7229325 0.917868877,83.181867 1.49153693,83.181867 Z M84.0997358,35.2232182 L84.0997358,80.8871948 L67.5780961,80.8871948 L67.5780961,35.2232182 L84.0997358,35.2232182 Z M65.5128911,80.8871948 L49.2207185,80.8871948 L49.1059849,42.1072347 L65.5128911,42.1072347 L65.5128911,80.8871948 Z M43.0251036,6.99875019 L59.4320098,6.99875019 L59.4320098,39.8125625 L47.9586488,39.8125625 C47.614448,39.8125625 47.3849808,39.9272961 47.1555136,40.1567634 C46.9260463,40.3862306 46.8113127,40.6156978 46.8113127,40.9598986 L47.0407799,80.8871948 L43.0251036,80.8871948 L43.0251036,6.99875019 Z M30.7486074,24.4382588 L34.5348165,24.4382588 L35.567419,43.9429725 L29.7160049,43.9429725 L30.7486074,24.4382588 Z M28.4539352,46.2376447 L36.7147551,46.2376447 L40.6156978,46.2376447 L40.6156978,80.8871948 L25.1266605,80.8871948 L25.0119269,46.2376447 L28.4539352,46.2376447 Z M11.3586274,25.5855949 L17.7837095,25.5855949 C18.2426439,25.5855949 19.6194472,26.8476647 19.8489145,28.9128696 L9.29342238,28.9128696 C9.5228896,26.8476647 10.8996929,25.5855949 11.3586274,25.5855949 Z M6.19561492,31.2075418 L22.7172547,31.2075418 L22.7172547,80.8871948 L6.19561492,80.8871948 L6.19561492,31.2075418 Z" id="Shape"></path>
                            <path d="M9.86709043,34.1906157 C9.17868877,34.1906157 8.71975433,34.6495501 8.71975433,35.3379518 L8.71975433,38.206292 C8.71975433,38.8946937 9.17868877,39.3536281 9.86709043,39.3536281 C10.5554921,39.3536281 11.0144265,38.8946937 11.0144265,38.206292 L11.0144265,35.3379518 C11.0144265,34.7642837 10.5554921,34.1906157 9.86709043,34.1906157 Z" id="Shape"></path>
                            <path d="M14.5711684,34.1906157 C13.8827668,34.1906157 13.4238323,34.6495501 13.4238323,35.3379518 L13.4238323,38.206292 C13.4238323,38.8946937 13.8827668,39.3536281 14.5711684,39.3536281 C15.2595701,39.3536281 15.7185045,38.8946937 15.7185045,38.206292 L15.7185045,35.3379518 C15.7185045,34.7642837 15.1448365,34.1906157 14.5711684,34.1906157 Z" id="Shape"></path>
                            <path d="M19.1605128,34.1906157 C18.4721111,34.1906157 18.0131767,34.6495501 18.0131767,35.3379518 L18.0131767,38.206292 C18.0131767,38.8946937 18.4721111,39.3536281 19.1605128,39.3536281 C19.8489145,39.3536281 20.3078489,38.8946937 20.3078489,38.206292 L20.3078489,35.3379518 C20.3078489,34.7642837 19.8489145,34.1906157 19.1605128,34.1906157 Z" id="Shape"></path>
                            <path d="M9.86709043,41.6483003 C9.17868877,41.6483003 8.71975433,42.1072347 8.71975433,42.7956364 L8.71975433,45.6639766 C8.71975433,46.3523783 9.17868877,46.8113127 9.86709043,46.8113127 C10.5554921,46.8113127 11.0144265,46.3523783 11.0144265,45.6639766 L11.0144265,42.7956364 C11.0144265,42.1072347 10.5554921,41.6483003 9.86709043,41.6483003 Z" id="Shape"></path>
                            <path d="M14.5711684,41.6483003 C13.8827668,41.6483003 13.4238323,42.1072347 13.4238323,42.7956364 L13.4238323,45.6639766 C13.4238323,46.3523783 13.8827668,46.8113127 14.5711684,46.8113127 C15.2595701,46.8113127 15.7185045,46.3523783 15.7185045,45.6639766 L15.7185045,42.7956364 C15.7185045,42.1072347 15.1448365,41.6483003 14.5711684,41.6483003 Z" id="Shape"></path>
                            <path d="M19.1605128,41.6483003 C18.4721111,41.6483003 18.0131767,42.1072347 18.0131767,42.7956364 L18.0131767,45.6639766 C18.0131767,46.3523783 18.4721111,46.8113127 19.1605128,46.8113127 C19.8489145,46.8113127 20.3078489,46.3523783 20.3078489,45.6639766 L20.3078489,42.7956364 C20.3078489,42.1072347 19.8489145,41.6483003 19.1605128,41.6483003 Z" id="Shape"></path>
                            <path d="M9.86709043,48.9912513 C9.17868877,48.9912513 8.71975433,49.4501857 8.71975433,50.1385874 L8.71975433,53.0069276 C8.71975433,53.6953293 9.17868877,54.1542637 9.86709043,54.1542637 C10.5554921,54.1542637 11.0144265,53.6953293 11.0144265,53.0069276 L11.0144265,50.1385874 C11.0144265,49.5649194 10.5554921,48.9912513 9.86709043,48.9912513 Z" id="Shape"></path>
                            <path d="M14.5711684,48.9912513 C13.8827668,48.9912513 13.4238323,49.4501857 13.4238323,50.1385874 L13.4238323,53.0069276 C13.4238323,53.6953293 13.8827668,54.1542637 14.5711684,54.1542637 C15.2595701,54.1542637 15.7185045,53.6953293 15.7185045,53.0069276 L15.7185045,50.1385874 C15.7185045,49.5649194 15.1448365,48.9912513 14.5711684,48.9912513 Z" id="Shape"></path>
                            <path d="M19.1605128,48.9912513 C18.4721111,48.9912513 18.0131767,49.4501857 18.0131767,50.1385874 L18.0131767,53.0069276 C18.0131767,53.6953293 18.4721111,54.1542637 19.1605128,54.1542637 C19.8489145,54.1542637 20.3078489,53.6953293 20.3078489,53.0069276 L20.3078489,50.1385874 C20.3078489,49.5649194 19.8489145,48.9912513 19.1605128,48.9912513 Z" id="Shape"></path>
                            <path d="M9.86709043,56.3342023 C9.17868877,56.3342023 8.71975433,56.7931368 8.71975433,57.4815384 L8.71975433,60.3498787 C8.71975433,61.0382803 9.17868877,61.4972148 9.86709043,61.4972148 C10.5554921,61.4972148 11.0144265,61.0382803 11.0144265,60.3498787 L11.0144265,57.4815384 C11.0144265,56.9078704 10.5554921,56.3342023 9.86709043,56.3342023 Z" id="Shape"></path>
                            <path d="M14.5711684,56.3342023 C13.8827668,56.3342023 13.4238323,56.7931368 13.4238323,57.4815384 L13.4238323,60.3498787 C13.4238323,61.0382803 13.8827668,61.4972148 14.5711684,61.4972148 C15.2595701,61.4972148 15.7185045,61.0382803 15.7185045,60.3498787 L15.7185045,57.4815384 C15.7185045,56.9078704 15.1448365,56.3342023 14.5711684,56.3342023 Z" id="Shape"></path>
                            <path d="M19.1605128,56.3342023 C18.4721111,56.3342023 18.0131767,56.7931368 18.0131767,57.4815384 L18.0131767,60.3498787 C18.0131767,61.0382803 18.4721111,61.4972148 19.1605128,61.4972148 C19.8489145,61.4972148 20.3078489,61.0382803 20.3078489,60.3498787 L20.3078489,57.4815384 C20.3078489,56.9078704 19.8489145,56.3342023 19.1605128,56.3342023 Z" id="Shape"></path>
                            <path d="M9.86709043,63.7918869 C9.17868877,63.7918869 8.71975433,64.2508214 8.71975433,64.939223 L8.71975433,67.6928297 C8.71975433,68.3812313 9.17868877,68.8401658 9.86709043,68.8401658 C10.5554921,68.8401658 11.0144265,68.3812313 11.0144265,67.6928297 L11.0144265,64.8244894 C11.0144265,64.2508214 10.5554921,63.7918869 9.86709043,63.7918869 Z" id="Shape"></path>
                            <path d="M14.5711684,63.7918869 C13.8827668,63.7918869 13.4238323,64.2508214 13.4238323,64.939223 L13.4238323,67.6928297 C13.4238323,68.3812313 13.8827668,68.8401658 14.5711684,68.8401658 C15.2595701,68.8401658 15.7185045,68.3812313 15.7185045,67.6928297 L15.7185045,64.8244894 C15.7185045,64.2508214 15.1448365,63.7918869 14.5711684,63.7918869 Z" id="Shape"></path>
                            <path d="M19.1605128,63.7918869 C18.4721111,63.7918869 18.0131767,64.2508214 18.0131767,64.939223 L18.0131767,67.6928297 C18.0131767,68.3812313 18.4721111,68.8401658 19.1605128,68.8401658 C19.8489145,68.8401658 20.3078489,68.3812313 20.3078489,67.6928297 L20.3078489,64.8244894 C20.3078489,64.2508214 19.8489145,63.7918869 19.1605128,63.7918869 Z" id="Shape"></path>
                            <path d="M9.86709043,71.134838 C9.17868877,71.134838 8.71975433,71.5937724 8.71975433,72.2821741 L8.71975433,75.1505143 C8.71975433,75.838916 9.17868877,76.2978504 9.86709043,76.2978504 C10.5554921,76.2978504 11.0144265,75.838916 11.0144265,75.1505143 L11.0144265,72.2821741 C11.0144265,71.708506 10.5554921,71.134838 9.86709043,71.134838 Z" id="Shape"></path>
                            <path d="M14.5711684,71.134838 C13.8827668,71.134838 13.4238323,71.5937724 13.4238323,72.2821741 L13.4238323,75.1505143 C13.4238323,75.838916 13.8827668,76.2978504 14.5711684,76.2978504 C15.2595701,76.2978504 15.7185045,75.838916 15.7185045,75.1505143 L15.7185045,72.2821741 C15.7185045,71.708506 15.1448365,71.134838 14.5711684,71.134838 Z" id="Shape"></path>
                            <path d="M19.1605128,71.134838 C18.4721111,71.134838 18.0131767,71.5937724 18.0131767,72.2821741 L18.0131767,75.1505143 C18.0131767,75.838916 18.4721111,76.2978504 19.1605128,76.2978504 C19.8489145,76.2978504 20.3078489,75.838916 20.3078489,75.1505143 L20.3078489,72.2821741 C20.3078489,71.708506 19.8489145,71.134838 19.1605128,71.134838 Z" id="Shape"></path>
                            <path d="M28.1097344,54.1542637 C28.798136,54.1542637 29.2570705,53.6953293 29.2570705,53.0069276 L29.2570705,50.1385874 C29.2570705,49.4501857 28.798136,48.9912513 28.1097344,48.9912513 C27.4213327,48.9912513 26.9623983,49.4501857 26.9623983,50.1385874 L26.9623983,53.0069276 C26.9623983,53.5805957 27.5360663,54.1542637 28.1097344,54.1542637 Z" id="Shape"></path>
                            <path d="M32.8138124,54.1542637 C33.502214,54.1542637 33.9611484,53.6953293 33.9611484,53.0069276 L33.9611484,50.1385874 C33.9611484,49.4501857 33.502214,48.9912513 32.8138124,48.9912513 C32.1254107,48.9912513 31.6664763,49.4501857 31.6664763,50.1385874 L31.6664763,53.0069276 C31.6664763,53.5805957 32.1254107,54.1542637 32.8138124,54.1542637 Z" id="Shape"></path>
                            <path d="M37.4031567,54.1542637 C38.0915584,54.1542637 38.5504928,53.6953293 38.5504928,53.0069276 L38.5504928,50.1385874 C38.5504928,49.4501857 38.0915584,48.9912513 37.4031567,48.9912513 C36.7147551,48.9912513 36.2558206,49.4501857 36.2558206,50.1385874 L36.2558206,53.0069276 C36.2558206,53.5805957 36.8294887,54.1542637 37.4031567,54.1542637 Z" id="Shape"></path>
                            <path d="M28.1097344,61.4972148 C28.798136,61.4972148 29.2570705,61.0382803 29.2570705,60.3498787 L29.2570705,57.4815384 C29.2570705,56.7931368 28.798136,56.3342023 28.1097344,56.3342023 C27.4213327,56.3342023 26.9623983,56.7931368 26.9623983,57.4815384 L26.9623983,60.3498787 C26.9623983,61.0382803 27.5360663,61.4972148 28.1097344,61.4972148 Z" id="Shape"></path>
                            <path d="M32.8138124,61.4972148 C33.502214,61.4972148 33.9611484,61.0382803 33.9611484,60.3498787 L33.9611484,57.4815384 C33.9611484,56.7931368 33.502214,56.3342023 32.8138124,56.3342023 C32.1254107,56.3342023 31.6664763,56.7931368 31.6664763,57.4815384 L31.6664763,60.3498787 C31.6664763,61.0382803 32.1254107,61.4972148 32.8138124,61.4972148 Z" id="Shape"></path>
                            <path d="M37.4031567,61.4972148 C38.0915584,61.4972148 38.5504928,61.0382803 38.5504928,60.3498787 L38.5504928,57.4815384 C38.5504928,56.7931368 38.0915584,56.3342023 37.4031567,56.3342023 C36.7147551,56.3342023 36.2558206,56.7931368 36.2558206,57.4815384 L36.2558206,60.3498787 C36.2558206,61.0382803 36.8294887,61.4972148 37.4031567,61.4972148 Z" id="Shape"></path>
                            <path d="M28.1097344,68.8401658 C28.798136,68.8401658 29.2570705,68.3812313 29.2570705,67.6928297 L29.2570705,64.8244894 C29.2570705,64.1360878 28.798136,63.6771533 28.1097344,63.6771533 C27.4213327,63.6771533 26.9623983,64.1360878 26.9623983,64.8244894 L26.9623983,67.6928297 C26.9623983,68.3812313 27.5360663,68.8401658 28.1097344,68.8401658 Z" id="Shape"></path>
                            <path d="M32.8138124,68.8401658 C33.502214,68.8401658 33.9611484,68.3812313 33.9611484,67.6928297 L33.9611484,64.8244894 C33.9611484,64.1360878 33.502214,63.6771533 32.8138124,63.6771533 C32.1254107,63.6771533 31.6664763,64.1360878 31.6664763,64.8244894 L31.6664763,67.6928297 C31.6664763,68.3812313 32.1254107,68.8401658 32.8138124,68.8401658 Z" id="Shape"></path>
                            <path d="M37.4031567,68.8401658 C38.0915584,68.8401658 38.5504928,68.3812313 38.5504928,67.6928297 L38.5504928,64.8244894 C38.5504928,64.1360878 38.0915584,63.6771533 37.4031567,63.6771533 C36.7147551,63.6771533 36.2558206,64.1360878 36.2558206,64.8244894 L36.2558206,67.6928297 C36.2558206,68.3812313 36.8294887,68.8401658 37.4031567,68.8401658 Z" id="Shape"></path>
                            <path d="M28.1097344,76.2978504 C28.798136,76.2978504 29.2570705,75.838916 29.2570705,75.1505143 L29.2570705,72.2821741 C29.2570705,71.5937724 28.798136,71.134838 28.1097344,71.134838 C27.4213327,71.134838 26.9623983,71.5937724 26.9623983,72.2821741 L26.9623983,75.1505143 C26.9623983,75.7241823 27.5360663,76.2978504 28.1097344,76.2978504 Z" id="Shape"></path>
                            <path d="M32.8138124,76.2978504 C33.502214,76.2978504 33.9611484,75.838916 33.9611484,75.1505143 L33.9611484,72.2821741 C33.9611484,71.5937724 33.502214,71.134838 32.8138124,71.134838 C32.1254107,71.134838 31.6664763,71.5937724 31.6664763,72.2821741 L31.6664763,75.1505143 C31.6664763,75.7241823 32.1254107,76.2978504 32.8138124,76.2978504 Z" id="Shape"></path>
                            <path d="M37.4031567,76.2978504 C38.0915584,76.2978504 38.5504928,75.838916 38.5504928,75.1505143 L38.5504928,72.2821741 C38.5504928,71.5937724 38.0915584,71.134838 37.4031567,71.134838 C36.7147551,71.134838 36.2558206,71.5937724 36.2558206,72.2821741 L36.2558206,75.1505143 C36.2558206,75.7241823 36.8294887,76.2978504 37.4031567,76.2978504 Z" id="Shape"></path>
                            <path d="M71.3643052,62.6445509 C72.0527068,62.6445509 72.5116413,62.1856164 72.5116413,61.4972148 L72.5116413,53.1216613 C72.5116413,52.4332596 72.0527068,51.9743252 71.3643052,51.9743252 C70.6759035,51.9743252 70.2169691,52.4332596 70.2169691,53.1216613 L70.2169691,61.4972148 C70.2169691,62.1856164 70.7906371,62.6445509 71.3643052,62.6445509 Z" id="Shape"></path>
                            <path d="M75.838916,62.6445509 C76.5273176,62.6445509 76.9862521,62.1856164 76.9862521,61.4972148 L76.9862521,53.1216613 C76.9862521,52.4332596 76.5273176,51.9743252 75.838916,51.9743252 C75.1505143,51.9743252 74.6915799,52.4332596 74.6915799,53.1216613 L74.6915799,61.4972148 C74.6915799,62.1856164 75.2652479,62.6445509 75.838916,62.6445509 Z" id="Shape"></path>
                            <path d="M80.3135267,62.6445509 C81.0019284,62.6445509 81.4608628,62.1856164 81.4608628,61.4972148 L81.4608628,53.1216613 C81.4608628,52.4332596 81.0019284,51.9743252 80.3135267,51.9743252 C79.6251251,51.9743252 79.1661906,52.4332596 79.1661906,53.1216613 L79.1661906,61.4972148 C79.1661906,62.1856164 79.6251251,62.6445509 80.3135267,62.6445509 Z" id="Shape"></path>
                            <path d="M71.3643052,49.2207185 C72.0527068,49.2207185 72.5116413,48.7617841 72.5116413,48.0733824 L72.5116413,39.6978289 C72.5116413,39.0094273 72.0527068,38.5504928 71.3643052,38.5504928 C70.6759035,38.5504928 70.2169691,39.0094273 70.2169691,39.6978289 L70.2169691,48.0733824 C70.2169691,48.7617841 70.7906371,49.2207185 71.3643052,49.2207185 Z" id="Shape"></path>
                            <path d="M75.838916,49.2207185 C76.5273176,49.2207185 76.9862521,48.7617841 76.9862521,48.0733824 L76.9862521,39.6978289 C76.9862521,39.0094273 76.5273176,38.5504928 75.838916,38.5504928 C75.1505143,38.5504928 74.6915799,39.0094273 74.6915799,39.6978289 L74.6915799,48.0733824 C74.6915799,48.7617841 75.2652479,49.2207185 75.838916,49.2207185 Z" id="Shape"></path>
                            <path d="M80.3135267,49.2207185 C81.0019284,49.2207185 81.4608628,48.7617841 81.4608628,48.0733824 L81.4608628,39.6978289 C81.4608628,39.0094273 81.0019284,38.5504928 80.3135267,38.5504928 C79.6251251,38.5504928 79.1661906,39.0094273 79.1661906,39.6978289 L79.1661906,48.0733824 C79.1661906,48.7617841 79.6251251,49.2207185 80.3135267,49.2207185 Z" id="Shape"></path>
                            <path d="M71.3643052,75.838916 C72.0527068,75.838916 72.5116413,75.3799815 72.5116413,74.6915799 L72.5116413,66.3160264 C72.5116413,65.6276247 72.0527068,65.1686903 71.3643052,65.1686903 C70.6759035,65.1686903 70.2169691,65.6276247 70.2169691,66.3160264 L70.2169691,74.6915799 C70.2169691,75.3799815 70.7906371,75.838916 71.3643052,75.838916 Z" id="Shape"></path>
                            <path d="M75.838916,75.838916 C76.5273176,75.838916 76.9862521,75.3799815 76.9862521,74.6915799 L76.9862521,66.3160264 C76.9862521,65.6276247 76.5273176,65.1686903 75.838916,65.1686903 C75.1505143,65.1686903 74.6915799,65.6276247 74.6915799,66.3160264 L74.6915799,74.6915799 C74.6915799,75.3799815 75.2652479,75.838916 75.838916,75.838916 Z" id="Shape"></path>
                            <path d="M80.3135267,75.838916 C81.0019284,75.838916 81.4608628,75.3799815 81.4608628,74.6915799 L81.4608628,66.3160264 C81.4608628,65.6276247 81.0019284,65.1686903 80.3135267,65.1686903 C79.6251251,65.1686903 79.1661906,65.6276247 79.1661906,66.3160264 L79.1661906,74.6915799 C79.1661906,75.3799815 79.6251251,75.838916 80.3135267,75.838916 Z" id="Shape"></path>
                            <path d="M46.8113127,34.4200829 C47.4997144,34.4200829 47.9586488,33.9611484 47.9586488,33.2727468 L47.9586488,24.8971933 C47.9586488,24.2087916 47.4997144,23.7498572 46.8113127,23.7498572 C46.1229111,23.7498572 45.6639766,24.2087916 45.6639766,24.8971933 L45.6639766,33.2727468 C45.6639766,33.9611484 46.1229111,34.4200829 46.8113127,34.4200829 Z" id="Shape"></path>
                            <path d="M51.1711899,34.4200829 C51.8595915,34.4200829 52.318526,33.9611484 52.318526,33.2727468 L52.318526,24.8971933 C52.318526,24.2087916 51.8595915,23.7498572 51.1711899,23.7498572 C50.4827882,23.7498572 50.0238538,24.2087916 50.0238538,24.8971933 L50.0238538,33.2727468 C50.0238538,33.9611484 50.5975218,34.4200829 51.1711899,34.4200829 Z" id="Shape"></path>
                            <path d="M55.6458007,34.4200829 C56.3342023,34.4200829 56.7931368,33.9611484 56.7931368,33.2727468 L56.7931368,24.8971933 C56.7931368,24.2087916 56.3342023,23.7498572 55.6458007,23.7498572 C54.957399,23.7498572 54.4984646,24.2087916 54.4984646,24.8971933 L54.4984646,33.2727468 C54.4984646,33.9611484 55.0721326,34.4200829 55.6458007,34.4200829 Z" id="Shape"></path>
                            <path d="M46.8113127,20.9962506 C47.4997144,20.9962506 47.9586488,20.5373161 47.9586488,19.8489145 L47.9586488,11.473361 C47.9586488,10.7849593 47.4997144,10.3260249 46.8113127,10.3260249 C46.1229111,10.3260249 45.6639766,10.7849593 45.6639766,11.473361 L45.6639766,19.8489145 C45.6639766,20.5373161 46.1229111,20.9962506 46.8113127,20.9962506 Z" id="Shape"></path>
                            <path d="M51.1711899,20.9962506 C51.8595915,20.9962506 52.318526,20.5373161 52.318526,19.8489145 L52.318526,11.473361 C52.318526,10.7849593 51.8595915,10.3260249 51.1711899,10.3260249 C50.4827882,10.3260249 50.0238538,10.7849593 50.0238538,11.473361 L50.0238538,19.8489145 C50.0238538,20.5373161 50.5975218,20.9962506 51.1711899,20.9962506 Z" id="Shape"></path>
                            <path d="M55.6458007,20.9962506 C56.3342023,20.9962506 56.7931368,20.5373161 56.7931368,19.8489145 L56.7931368,11.473361 C56.7931368,10.7849593 56.3342023,10.3260249 55.6458007,10.3260249 C54.957399,10.3260249 54.4984646,10.7849593 54.4984646,11.473361 L54.4984646,19.8489145 C54.4984646,20.5373161 55.0721326,20.9962506 55.6458007,20.9962506 Z" id="Shape"></path>
                            <path d="M52.318526,54.1542637 C53.0069276,54.1542637 53.4658621,53.6953293 53.4658621,53.0069276 L53.4658621,50.1385874 C53.4658621,49.4501857 53.0069276,48.9912513 52.318526,48.9912513 C51.6301243,48.9912513 51.1711899,49.4501857 51.1711899,50.1385874 L51.1711899,53.0069276 C51.1711899,53.5805957 51.6301243,54.1542637 52.318526,54.1542637 Z" id="Shape"></path>
                            <path d="M56.9078704,54.1542637 C57.596272,54.1542637 58.0552065,53.6953293 58.0552065,53.0069276 L58.0552065,50.1385874 C58.0552065,49.4501857 57.596272,48.9912513 56.9078704,48.9912513 C56.2194687,48.9912513 55.7605343,49.4501857 55.7605343,50.1385874 L55.7605343,53.0069276 C55.7605343,53.5805957 56.3342023,54.1542637 56.9078704,54.1542637 Z" id="Shape"></path>
                            <path d="M61.6119484,54.1542637 C62.30035,54.1542637 62.7592845,53.6953293 62.7592845,53.0069276 L62.7592845,50.1385874 C62.7592845,49.4501857 62.30035,48.9912513 61.6119484,48.9912513 C60.9235467,48.9912513 60.4646123,49.4501857 60.4646123,50.1385874 L60.4646123,53.0069276 C60.4646123,53.5805957 60.9235467,54.1542637 61.6119484,54.1542637 Z" id="Shape"></path>
                            <path d="M52.318526,61.4972148 C53.0069276,61.4972148 53.4658621,61.0382803 53.4658621,60.3498787 L53.4658621,57.4815384 C53.4658621,56.7931368 53.0069276,56.3342023 52.318526,56.3342023 C51.6301243,56.3342023 51.1711899,56.7931368 51.1711899,57.4815384 L51.1711899,60.3498787 C51.1711899,61.0382803 51.6301243,61.4972148 52.318526,61.4972148 Z" id="Shape"></path>
                            <path d="M56.9078704,61.4972148 C57.596272,61.4972148 58.0552065,61.0382803 58.0552065,60.3498787 L58.0552065,57.4815384 C58.0552065,56.7931368 57.596272,56.3342023 56.9078704,56.3342023 C56.2194687,56.3342023 55.7605343,56.7931368 55.7605343,57.4815384 L55.7605343,60.3498787 C55.7605343,61.0382803 56.3342023,61.4972148 56.9078704,61.4972148 Z" id="Shape"></path>
                            <path d="M61.6119484,61.4972148 C62.30035,61.4972148 62.7592845,61.0382803 62.7592845,60.3498787 L62.7592845,57.4815384 C62.7592845,56.7931368 62.30035,56.3342023 61.6119484,56.3342023 C60.9235467,56.3342023 60.4646123,56.7931368 60.4646123,57.4815384 L60.4646123,60.3498787 C60.4646123,61.0382803 60.9235467,61.4972148 61.6119484,61.4972148 Z" id="Shape"></path>
                            <path d="M52.318526,68.8401658 C53.0069276,68.8401658 53.4658621,68.3812313 53.4658621,67.6928297 L53.4658621,64.8244894 C53.4658621,64.1360878 53.0069276,63.6771533 52.318526,63.6771533 C51.6301243,63.6771533 51.1711899,64.1360878 51.1711899,64.8244894 L51.1711899,67.6928297 C51.1711899,68.3812313 51.6301243,68.8401658 52.318526,68.8401658 Z" id="Shape"></path>
                            <path d="M56.9078704,68.8401658 C57.596272,68.8401658 58.0552065,68.3812313 58.0552065,67.6928297 L58.0552065,64.8244894 C58.0552065,64.1360878 57.596272,63.6771533 56.9078704,63.6771533 C56.2194687,63.6771533 55.7605343,64.1360878 55.7605343,64.8244894 L55.7605343,67.6928297 C55.7605343,68.3812313 56.3342023,68.8401658 56.9078704,68.8401658 Z" id="Shape"></path>
                            <path d="M61.6119484,68.8401658 C62.30035,68.8401658 62.7592845,68.3812313 62.7592845,67.6928297 L62.7592845,64.8244894 C62.7592845,64.1360878 62.30035,63.6771533 61.6119484,63.6771533 C60.9235467,63.6771533 60.4646123,64.1360878 60.4646123,64.8244894 L60.4646123,67.6928297 C60.4646123,68.3812313 60.9235467,68.8401658 61.6119484,68.8401658 Z" id="Shape"></path>
                            <path d="M52.318526,76.2978504 C53.0069276,76.2978504 53.4658621,75.838916 53.4658621,75.1505143 L53.4658621,72.2821741 C53.4658621,71.5937724 53.0069276,71.134838 52.318526,71.134838 C51.6301243,71.134838 51.1711899,71.5937724 51.1711899,72.2821741 L51.1711899,75.1505143 C51.1711899,75.7241823 51.6301243,76.2978504 52.318526,76.2978504 Z" id="Shape"></path>
                            <path d="M56.9078704,76.2978504 C57.596272,76.2978504 58.0552065,75.838916 58.0552065,75.1505143 L58.0552065,72.2821741 C58.0552065,71.5937724 57.596272,71.134838 56.9078704,71.134838 C56.2194687,71.134838 55.7605343,71.5937724 55.7605343,72.2821741 L55.7605343,75.1505143 C55.7605343,75.7241823 56.3342023,76.2978504 56.9078704,76.2978504 Z" id="Shape"></path>
                            <path d="M61.6119484,76.2978504 C62.30035,76.2978504 62.7592845,75.838916 62.7592845,75.1505143 L62.7592845,72.2821741 C62.7592845,71.5937724 62.30035,71.134838 61.6119484,71.134838 C60.9235467,71.134838 60.4646123,71.5937724 60.4646123,72.2821741 L60.4646123,75.1505143 C60.4646123,75.7241823 60.9235467,76.2978504 61.6119484,76.2978504 Z" id="Shape"></path>
                            <path d="M26.8476647,11.1291601 C29.7160049,11.1291601 32.1254107,8.71975433 32.1254107,5.85141409 C32.1254107,2.98307385 29.7160049,0.573668048 26.8476647,0.573668048 C23.9793244,0.573668048 21.5699186,2.98307385 21.5699186,5.85141409 C21.5699186,8.71975433 23.9793244,11.1291601 26.8476647,11.1291601 Z M26.8476647,2.86834024 C28.4539352,2.86834024 29.8307385,4.24514356 29.8307385,5.85141409 C29.8307385,7.45768463 28.4539352,8.83448794 26.8476647,8.83448794 C25.2413941,8.83448794 23.8645908,7.45768463 23.8645908,5.85141409 C23.8645908,4.24514356 25.2413941,2.86834024 26.8476647,2.86834024 Z" id="Shape"></path>
                            <path d="M27.9950007,15.7185045 C27.9950007,17.7837095 29.6012713,19.38998 31.6664763,19.38998 C33.7316812,19.38998 35.3379518,17.7837095 35.3379518,15.7185045 C35.3379518,13.6532995 33.7316812,12.047029 31.6664763,12.047029 C29.6012713,12.047029 27.9950007,13.6532995 27.9950007,15.7185045 Z M32.928546,15.7185045 C32.928546,16.5216398 32.3548779,17.0953078 31.5517426,17.0953078 C30.7486074,17.0953078 30.1749393,16.5216398 30.1749393,15.7185045 C30.1749393,14.9153693 30.7486074,14.3417012 31.5517426,14.3417012 C32.3548779,14.3417012 32.928546,14.9153693 32.928546,15.7185045 Z" id="Shape"></path>
                        </g>
                        <g id="Fountain" transform="translate(1109.000000, 31.000000)" fill-rule="nonzero" fill="#43BC8F">
                            <path d="M83.328471,49.681739 L74.0095523,49.681739 L74.0095523,38.5087715 C79.7526069,37.7494436 84.1953472,30.9154926 84.1953472,22.5628858 C84.1953472,13.667902 79.1024497,6.50852476 72.9259571,6.50852476 C66.7494644,6.50852476 61.5482075,13.667902 61.5482075,22.5628858 C61.5482075,30.9154926 66.0993073,37.7494436 71.7340024,38.5087715 L71.7340024,49.681739 L65.8825883,49.681739 L65.8825883,43.8240667 C65.8825883,43.1732143 65.4491502,42.7393126 64.7989931,42.7393126 L53.6379625,42.7393126 L53.6379625,40.3528535 C53.6379625,38.5087715 54.9382767,36.9901157 56.5636695,36.9901157 C58.1890623,36.9901157 59.4893766,38.5087715 59.4893766,40.3528535 C59.4893766,41.003706 59.9228147,41.4376077 60.5729718,41.4376077 C61.2231289,41.4376077 61.656567,41.003706 61.656567,40.3528535 C61.656567,37.315542 59.3810171,34.8206075 56.5636695,34.8206075 C55.4800743,34.8206075 54.5048387,35.2545091 53.6379625,35.7968862 L53.6379625,31.7832959 C53.6379625,30.3731156 54.6131982,29.2883614 55.9135124,29.2883614 C57.2138267,29.2883614 58.1890623,30.481591 58.1890623,31.7832959 C58.1890623,32.4341484 58.6225004,32.8680501 59.2726575,32.8680501 C59.9228147,32.8680501 60.3562527,32.4341484 60.3562527,31.7832959 C60.3562527,29.179886 58.4057814,27.1188532 55.9135124,27.1188532 C55.0466363,27.1188532 54.3964791,27.335804 53.6379625,27.7697057 L53.6379625,24.8408695 C53.6379625,23.9730662 54.2881196,23.2137383 55.0466363,23.2137383 C55.8051529,23.2137383 56.45531,23.9730662 56.45531,24.8408695 C56.45531,25.491722 56.8887481,25.9256236 57.5389052,25.9256236 C58.1890623,25.9256236 58.6225004,25.491722 58.6225004,24.8408695 C58.6225004,22.7798367 56.9971076,21.0442301 55.0466363,21.0442301 C54.0714006,21.0442301 53.2045244,21.4781317 52.5543673,22.1289842 C51.9042102,21.4781317 51.037334,21.0442301 50.0620983,21.0442301 C48.111627,21.0442301 46.4862342,22.7798367 46.4862342,24.8408695 C46.4862342,25.491722 46.9196722,25.9256236 47.5698294,25.9256236 C48.2199865,25.9256236 48.6534246,25.491722 48.6534246,24.8408695 C48.6534246,23.9730662 49.3035817,23.2137383 50.0620983,23.2137383 C50.820615,23.2137383 51.4707721,23.9730662 51.4707721,24.8408695 L51.4707721,27.7697057 C50.820615,27.335804 50.0620983,27.1188532 49.1952222,27.1188532 C46.8113127,27.1188532 44.7524818,29.2883614 44.7524818,31.7832959 C44.7524818,32.4341484 45.1859199,32.8680501 45.836077,32.8680501 C46.4862342,32.8680501 46.9196722,32.4341484 46.9196722,31.7832959 C46.9196722,30.3731156 47.8949079,29.2883614 49.1952222,29.2883614 C50.4955364,29.2883614 51.4707721,30.481591 51.4707721,31.7832959 L51.4707721,35.7968862 C50.7122555,35.1460337 49.6286602,34.8206075 48.545065,34.8206075 C45.7277175,34.8206075 43.4521676,37.315542 43.4521676,40.3528535 C43.4521676,41.003706 43.8856057,41.4376077 44.5357628,41.4376077 C45.1859199,41.4376077 45.619358,41.003706 45.619358,40.3528535 C45.619358,38.5087715 46.9196722,36.9901157 48.545065,36.9901157 C50.1704579,36.9901157 51.4707721,38.5087715 51.4707721,40.3528535 L51.4707721,42.7393126 L40.201382,42.7393126 C39.5512249,42.7393126 39.1177868,43.1732143 39.1177868,43.8240667 L39.1177868,49.681739 L33.4830917,49.681739 L33.4830917,41.6545585 C37.8174725,40.7867552 41.0682582,34.7121321 41.0682582,27.1188532 C41.0682582,18.8747218 37.2756749,12.4746725 32.3994965,12.4746725 C27.5233181,12.4746725 23.7307349,18.8747218 23.7307349,27.1188532 C23.7307349,34.7121321 26.9815205,40.7867552 31.3159013,41.6545585 L31.3159013,49.681739 L12.3529853,49.681739 L12.3529853,38.5087715 C18.0960399,37.6409682 22.5387802,29.5053123 22.5387802,19.3086235 C22.5387802,8.46108219 17.5542423,0 11.2693901,0 C4.98453793,0 0,8.46108219 0,19.3086235 C0,29.5053123 4.44274033,37.6409682 10.1857949,38.5087715 L10.1857949,49.681739 L1.95047136,49.681739 C1.30031424,49.681739 0.866876162,50.1156407 0.866876162,50.7664932 C0.866876162,51.4173456 1.30031424,51.8512473 1.95047136,51.8512473 L60.6015625,51.8512473 L83.328471,51.8512473 C83.9786282,51.8512473 84.4120662,51.4173456 84.4120662,50.7664932 C84.4120662,50.1156407 83.8702686,49.681739 83.328471,49.681739 Z M11.2693901,12.5831479 C10.619233,12.5831479 10.1857949,13.0170495 10.1857949,13.667902 L10.1857949,28.637509 C9.21055922,27.4442794 7.91024497,25.8171482 6.71829025,24.2984925 C6.39321169,23.8645908 5.63469505,23.7561154 5.20125697,24.0815416 C4.76781889,24.4069679 4.65945937,25.1662958 4.98453793,25.6001974 C8.01860449,29.6137877 9.42727826,31.1324435 10.1857949,31.7832959 L10.1857949,36.2307879 C5.74305457,35.1460337 2.1671904,27.7697057 2.1671904,19.2001481 C2.1671904,9.87126256 6.39321169,2.06103284 11.2693901,2.06103284 C16.1455685,2.06103284 20.3715898,9.97973797 20.3715898,19.3086235 C20.3715898,27.8781811 16.7957256,35.2545091 12.3529853,36.3392633 L12.3529853,25.3832466 L17.0124447,20.0679514 C17.4458828,19.6340497 17.3375232,18.9831972 16.9040852,18.5492956 C16.4706471,18.1153939 15.7121304,18.2238693 15.3870519,18.657771 L12.3529853,22.1289842 L12.3529853,13.7763774 C12.3529853,13.0170495 11.8111877,12.5831479 11.2693901,12.5831479 Z M32.3994965,21.9120334 C31.7493394,21.9120334 31.3159013,22.345935 31.3159013,22.9967875 L31.3159013,33.3019517 C30.6657442,32.5426238 29.9072276,31.5663451 29.2570705,30.6985418 C28.9319919,30.2646402 28.1734753,30.1561647 27.7400372,30.481591 C27.3065991,30.8070172 27.1982396,31.5663451 27.5233181,32.0002468 C29.6905085,34.8206075 30.7741037,36.013837 31.3159013,36.5562141 L31.3159013,39.3765748 C28.2818348,38.4002961 25.8979253,33.1934763 25.8979253,27.1188532 C25.8979253,20.3933776 28.8236324,14.6441807 32.3994965,14.6441807 C35.9753607,14.6441807 38.9010677,20.3933776 38.9010677,27.1188532 C38.9010677,33.1934763 36.5171583,38.2918207 33.4830917,39.3765748 L33.4830917,31.7832959 L36.8422369,27.8781811 C37.2756749,27.4442794 37.1673154,26.7934269 36.7338773,26.3595253 C36.3004393,25.9256236 35.5419226,26.0340991 35.2168441,26.4680007 L33.4830917,28.4205581 L33.4830917,22.9967875 C33.4830917,22.4544104 33.0496537,21.9120334 32.3994965,21.9120334 Z M63.7153979,49.5732636 L41.2849772,49.5732636 L41.2849772,44.9088209 L63.7153979,44.9088209 L63.7153979,49.5732636 Z M72.8175976,12.5831479 C72.1674404,12.5831479 71.7340024,13.0170495 71.7340024,13.667902 L71.7340024,28.637509 C70.7587667,27.4442794 69.4584524,25.8171482 68.2664977,24.2984925 C67.9414192,23.8645908 67.1829025,23.7561154 66.7494644,24.0815416 C66.3160264,24.4069679 66.2076668,25.1662958 66.5327454,25.6001974 C69.566812,29.6137877 70.9754857,31.1324435 71.7340024,31.7832959 L71.7340024,36.2307879 C67.1829025,35.3629845 63.7153979,29.5053123 63.7153979,22.4544104 C63.7153979,14.7526561 67.8330596,8.56955761 72.8175976,8.56955761 C77.8021355,8.56955761 81.9197973,14.7526561 81.9197973,22.4544104 C81.9197973,29.5053123 78.3439331,35.3629845 73.9011928,36.2307879 L73.9011928,25.3832466 L78.5606521,20.0679514 C78.9940902,19.6340497 78.8857307,18.9831972 78.4522926,18.5492956 C78.0188545,18.1153939 77.2603379,18.2238693 76.9352593,18.657771 L73.9011928,22.1289842 L73.9011928,13.7763774 C73.9011928,13.0170495 73.4677547,12.5831479 72.8175976,12.5831479 Z" id="Shape"></path>
                        </g>
                    </g>
                    <path d="M1144.05882,111.644542 C1147.63005,111.644542 1150.86116,112.852601 1153.41204,115.096137 C1154.77251,105.94941 1162.42515,99.0462198 1171.77838,99.0462198 C1175.34962,99.0462198 1178.75079,100.081698 1181.64179,101.980076 C1184.8729,85.2398392 1199.32789,72.9866763 1216.33376,72.9866763 C1235.89051,72.9866763 1251.87603,89.2091736 1251.87603,109.055846 C1251.87603,114.405818 1250.68562,119.583211 1248.47485,124.415444 L1269.73219,124.415444 C1270.75254,124.415444 1271.43278,125.105763 1271.43278,126.141242 C1271.43278,127.17672 1270.75254,127.86704 1269.73219,127.86704 L1245.58386,127.86704 L1233.50969,127.86704 C1232.48934,127.86704 1231.8091,127.17672 1231.8091,126.141242 C1231.8091,125.105763 1232.48934,124.415444 1233.50969,124.415444 L1244.5635,124.415444 C1247.11438,119.755791 1248.47485,114.405818 1248.47485,109.055846 C1248.47485,91.1075509 1234.01986,76.4382715 1216.33376,76.4382715 C1200.17818,76.4382715 1186.40343,88.6914343 1184.53278,105.086511 C1184.53278,105.431671 1184.36273,105.77683 1184.19267,105.94941 C1184.19267,105.94941 1184.19267,105.94941 1184.19267,106.12199 C1184.02261,106.12199 1184.02261,106.12199 1183.85255,106.29457 C1183.17232,106.812309 1182.32202,106.812309 1181.64179,106.29457 C1178.92085,103.878453 1175.34962,102.497815 1171.60832,102.497815 C1163.27545,102.497815 1156.4731,109.401005 1156.4731,117.857414 L1156.4731,119.238052 C1156.4731,119.928371 1156.13298,120.44611 1155.62281,120.791269 C1154.60245,121.136429 1153.75216,120.963849 1153.24199,120.10095 C1151.20128,116.821935 1147.80011,114.750978 1143.88876,114.750978 C1138.44688,114.750978 1133.85529,118.892892 1133.17506,124.070285 L1208.85118,124.070285 C1209.87153,124.070285 1210.55176,124.760604 1210.55176,125.796082 C1210.55176,126.831561 1209.87153,127.52188 1208.85118,127.52188 L1131.47447,127.52188 C1130.45412,127.52188 1129.77389,126.831561 1129.77389,125.796082 C1129.77389,118.202573 1136.23612,111.644542 1144.05882,111.644542 Z M1206.47036,133.389592 L1297.45176,133.389592 C1298.47211,133.389592 1299.15234,134.079911 1299.15234,135.115389 C1299.15234,136.150868 1298.47211,136.841187 1297.45176,136.841187 L1206.47036,136.841187 C1205.45,136.841187 1204.76977,136.150868 1204.76977,135.115389 C1204.76977,134.079911 1205.45,133.389592 1206.47036,133.389592 Z" id="Right-Cloud" fill="#807B8F" fill-rule="nonzero"></path>
                    <path d="M909.747351,30.9445727 C909.747351,30.7707267 909.747351,30.7707267 909.747351,30.9445727 C909.062126,30.7707267 908.376901,30.7707267 907.691675,30.7707267 C899.297664,30.7707267 892.44541,37.7245633 892.44541,46.2430131 C892.44541,47.8076263 892.616716,49.3722395 893.130635,50.7630068 L898.098519,50.7630068 C899.126358,50.7630068 899.811583,51.4583905 899.811583,52.501466 C899.811583,53.5445415 899.126358,54.2399251 898.098519,54.2399251 L892.102797,54.2399251 L885.250543,54.2399251 C884.222705,54.2399251 883.537479,53.5445415 883.537479,52.501466 C883.537479,51.4583905 884.222705,50.7630068 885.250543,50.7630068 L889.704508,50.7630068 C889.361895,49.1983936 889.190589,47.8076263 889.190589,46.2430131 C889.190589,35.8122582 897.5846,27.2938085 907.862981,27.2938085 L908.89082,27.2938085 C913.002172,11.2999844 927.220599,0 943.666009,0 C961.310563,0 976.214216,13.2122895 979.126424,30.5968808 C982.209938,28.5107299 985.978678,27.4676544 989.747418,27.4676544 C998.997961,27.4676544 1006.87805,33.8999532 1008.93373,42.7660948 C1009.79026,42.5922489 1010.64679,42.418403 1011.50332,42.418403 C1016.81382,42.418403 1021.43909,45.8953212 1022.98085,50.9368527 L1045.59329,50.9368527 C1046.62113,50.9368527 1047.30635,51.6322364 1047.30635,52.6753119 C1047.30635,53.7183874 1046.62113,54.413771 1045.59329,54.413771 L1003.62323,54.413771 C1002.59539,54.413771 1001.91017,53.7183874 1001.91017,52.6753119 C1001.91017,51.6322364 1002.59539,50.9368527 1003.62323,50.9368527 L1018.8695,50.9368527 C1017.49905,47.9814722 1014.41553,45.8953212 1010.98941,45.8953212 C1009.79026,45.8953212 1008.76242,46.0691672 1007.73458,46.5907049 L1007.56328,46.5907049 L1007.39197,46.5907049 L1007.22067,46.5907049 L1007.04936,46.5907049 L1006.70675,46.5907049 L1006.53544,46.416859 C1006.36413,46.416859 1006.36413,46.2430131 1006.19283,46.2430131 L1006.02152,46.0691672 C1006.02152,45.8953212 1005.85021,45.8953212 1005.85021,45.7214753 C1005.85021,45.7214753 1005.85021,45.7214753 1005.85021,45.5476294 L1005.85021,45.3737835 L1005.85021,45.1999376 C1004.82238,37.0291796 997.970123,30.9445727 989.747418,30.9445727 C985.807372,30.9445727 981.867326,32.5091859 978.955118,35.1168746 C978.955118,35.1168746 978.783811,35.1168746 978.783811,35.2907205 C978.612505,35.2907205 978.612505,35.4645664 978.441199,35.4645664 L978.098586,35.4645664 L977.92728,35.4645664 L977.755973,35.4645664 L977.584667,35.4645664 C977.41336,35.4645664 977.242054,35.4645664 977.242054,35.2907205 C977.242054,35.2907205 977.070748,35.2907205 977.070748,35.1168746 C976.899441,35.1168746 976.899441,34.9430287 976.728135,34.9430287 C976.728135,34.9430287 976.728135,34.7691828 976.556829,34.7691828 C976.556829,34.5953368 976.385522,34.5953368 976.385522,34.4214909 L976.385522,34.0737991 L976.385522,33.8999532 C975.186378,16.8630536 960.967951,3.47691828 944.008622,3.47691828 C929.447582,3.47691828 916.428299,13.5599813 912.659559,27.8153462 C914.201317,28.163038 915.743074,28.8584217 917.113525,29.5538053 C917.970056,30.0753431 918.312669,31.1184186 917.79875,31.9876481 C917.284831,32.8568777 916.256993,33.2045695 915.400461,32.6830318 C913.344785,31.6399563 911.631721,31.1184186 909.747351,30.9445727 C909.747351,30.7707267 909.747351,30.9445727 909.747351,30.9445727 Z M934.072853,61.5414535 L1020.41125,61.5414535 C1021.43909,61.5414535 1022.12432,62.2368371 1022.12432,63.2799126 C1022.12432,64.3229881 1021.43909,65.0183718 1020.41125,65.0183718 L934.072853,65.0183718 C933.045015,65.0183718 932.35979,64.3229881 932.35979,63.2799126 C932.35979,62.2368371 933.045015,61.5414535 934.072853,61.5414535 Z M877.713064,61.5414535 L908.89082,61.5414535 C909.918658,61.5414535 910.603883,62.2368371 910.603883,63.2799126 C910.603883,64.3229881 909.918658,65.0183718 908.89082,65.0183718 L877.713064,65.0183718 C876.685225,65.0183718 876,64.3229881 876,63.2799126 C876,62.2368371 876.685225,61.5414535 877.713064,61.5414535 Z" id="Left-Cloud" fill="#807B8F" fill-rule="nonzero"></path>
                </g>
            </g>
        </g>
    </g>
</svg>