<?xml version="1.0" encoding="UTF-8"?>
<svg width="144px" height="60px" viewBox="0 0 144 60" version="1.1" xmlns="http://www.w3.org/2000/svg" xmlns:xlink="http://www.w3.org/1999/xlink">
    <!-- Generator: Sketch 44.1 (41455) - http://www.bohemiancoding.com/sketch -->
    <title>Klue Logo - Dark</title>
    <desc>Created with Sketch.</desc>
    <defs></defs>
    <g id="Klue-Marketing-Landing-Page" stroke="none" stroke-width="1" fill="none" fill-rule="evenodd">
        <g id="v1-Klue-Landing-Page" transform="translate(-120.000000, -91.000000)">
            <g id="1.-Header-Copy" transform="translate(-560.000000, 0.000000)">
                <g id="Klue-Logo---Dark" transform="translate(680.000000, 91.000000)">
                    <g id="Layer_1">
                        <g fill-rule="nonzero">
                            <g id="Group" fill="#FFFFFF">
                                <rect id="Rectangle-path" x="0" y="0" width="9.85110664" height="59.7087379"></rect>
                                <polygon id="Shape" points="28.7420523 19.8058252 11.5026157 37.9514563 16.804829 44.2718447 40.0128773 19.8058252"></polygon>
                            </g>
                            <rect id="Rectangle-path" fill="#FFFFFF" x="46.6478873" y="0" width="9.85110664" height="59.7087379"></rect>
                            <path d="M88.9496982,19.8058252 L88.9496982,40.5436893 C88.9496982,43.7475728 88.9496982,51.3786408 81.1267606,51.3786408 L81.1267606,51.4660194 L80.8080483,51.3786408 C72.7533199,51.3786408 72.4346076,43.7475728 72.4346076,40.5436893 L72.4346076,19.8058252 L63.4527163,19.8058252 L63.4527163,39.961165 C63.4527163,45.7281553 64.3219316,59.3009709 79.9678068,59.7378641 L79.9678068,59.7669903 L80.6921529,59.7669903 L81.416499,59.7669903 L81.416499,59.7087379 C97.3521127,59.2718447 98.8008048,45.6990291 98.8008048,39.9320388 L98.8008048,19.8058252 L88.9496982,19.8058252 Z" id="Shape" fill="#FFFFFF"></path>
                            <polygon id="Shape" fill="#5ABF94" points="18.6591549 46.776699 29.5533199 59.7087379 40.1577465 59.7087379 24.2800805 40.8349515"></polygon>
                            <path d="M105.55171,39.9029126 C105.55171,28.9514563 113.577465,20.0970874 125.022133,20.0970874 C136.23501,20.0970874 143.884105,28.5436893 143.884105,40.9223301 L143.884105,43.1067961 L115.924346,43.1067961 C116.561771,47.8834951 120.357344,51.8737864 126.760563,51.8737864 C129.947686,51.8737864 134.409658,50.4757282 136.814487,48.1165049 L141.189537,54.5242718 C137.451911,57.961165 131.541247,59.7669903 125.688531,59.7669903 C114.214889,59.7961165 105.55171,52.0485437 105.55171,39.9029126 Z M125.022133,28.0194175 C118.879678,28.0194175 116.214085,32.6504854 115.750503,36.407767 L134.293763,36.407767 C134.061972,32.7961165 131.570221,28.0194175 125.022133,28.0194175 Z" id="Shape" fill="#FFFFFF"></path>
                        </g>
                    </g>
                </g>
            </g>
        </g>
    </g>
</svg>