<?xml version="1.0" encoding="utf-8"?>
<!-- Generator: Adobe Illustrator 19.2.1, SVG Export Plug-In . SVG Version: 6.00 Build 0)  -->
<svg version="1.1" id="Layer_1" xmlns="http://www.w3.org/2000/svg" xmlns:xlink="http://www.w3.org/1999/xlink" x="0px" y="0px"
	 viewBox="0 0 496.6 205.3" style="enable-background:new 0 0 496.6 205.3;" xml:space="preserve">
<style type="text/css">
	.st0{fill:#ECEEEB;}
</style>
<g>
	<rect class="st0" width="34" height="205"/>
	<polygon class="st0" points="99.2,68 39.7,130.3 58,152 138.1,68 	"/>
</g>
<rect x="161" class="st0" width="34" height="205"/>
<g>
	<path class="st0" d="M307,68v71.2c0,11,0,37.2-27,37.2v0.3l-1.1-0.3c-27.8,0-28.9-26.2-28.9-37.2V68h-31v69.2
		c0,19.8,3,66.4,57,67.9v0.1c0,0,2,0,2.5,0s2.5,0,2.5,0V205c55-1.5,60-48.1,60-67.9V68H307z"/>
</g>
<g>
	<g>
		<polygon class="st0" points="64.4,160.6 102,205 138.6,205 83.8,140.2 		"/>
	</g>
</g>
<g>
	<path class="st0" d="M364.3,137c0-37.6,27.7-68,67.2-68c38.7,0,65.1,29,65.1,71.5v7.5h-96.5c2.2,16.4,15.3,30.1,37.4,30.1
		c11,0,26.4-4.8,34.7-12.9l15.1,22c-12.9,11.8-33.3,18-53.5,18C394.2,205.3,364.3,178.7,364.3,137z M431.5,96.2
		c-21.2,0-30.4,15.9-32,28.8h64C462.7,112.6,454.1,96.2,431.5,96.2z"/>
</g>
</svg>
