<?xml version="1.0" encoding="utf-8"?>
<!-- Generator: Adobe Illustrator 19.2.1, SVG Export Plug-In . SVG Version: 6.00 Build 0)  -->
<svg version="1.1" id="Layer_1" xmlns="http://www.w3.org/2000/svg" xmlns:xlink="http://www.w3.org/1999/xlink" x="0px" y="0px"
	 viewBox="0 0 496.6 205.3" style="enable-background:new 0 0 496.6 205.3;" xml:space="preserve">
<path fill='#ECEEEB' d="M0,0h34v205H0V0z M99.2,68l-59.5,62.3L58,152l80.1-84H99.2z M161,0h34v205h-34V0z M307,68v71.2
	c0,11,0,37.2-27,37.2v0.3l-1.1-0.3c-27.8,0-28.9-26.2-28.9-37.2V68h-31v69.2c0,19.8,3,66.4,57,67.9v0.1h5V205
	c55-1.5,60-48.1,60-67.9V68H307z"/>
<path fill='#5BBF95' d="M64.4,160.6L102,205h36.6l-54.8-64.8L64.4,160.6z"/>
<g>
	<path fill='#ECEEEB' d="M364.3,137c0-37.6,27.7-68,67.2-68c38.7,0,65.1,29,65.1,71.5v7.5h-96.5c2.2,16.4,15.3,30.1,37.4,30.1
		c11,0,26.4-4.8,34.7-12.9l15.1,22c-12.9,11.8-33.3,18-53.5,18C394.2,205.3,364.3,178.7,364.3,137L364.3,137z M431.5,96.2
		c-21.2,0-30.4,15.9-32,28.8h64C462.7,112.6,454.1,96.2,431.5,96.2z"/>
</g>
</svg>
