<svg xmlns="http://www.w3.org/2000/svg" xmlns:xlink="http://www.w3.org/1999/xlink" version="1.1" x="0px" y="0px" viewBox="0 0 100 100" style="enable-background:new 0 0 100 100;" xml:space="preserve"><path fill="#43BC8F" d="M80,44.4c-0.8,0-1.5,0.7-1.5,1.5v16.4c0,2.7-2.1,4.9-4.8,4.9H16.3c-2.6,0-4.8-2.2-4.8-4.9V37.5c0-2.7,2.1-4.9,4.8-4.9h48.6  c0.8,0,1.5-0.7,1.5-1.5s-0.7-1.5-1.5-1.5H16.3c-4.3,0-7.8,3.6-7.8,7.9v24.8c0,4.4,3.5,7.9,7.8,7.9h15.6c-5.7,3.4-6,8.6-6,8.7  c0,0.4,0.1,0.8,0.4,1.1c0.3,0.3,0.7,0.5,1.1,0.5h35.4c0.4,0,0.8-0.2,1.1-0.5c0.3-0.3,0.4-0.7,0.4-1.1c0-0.1-0.3-5.2-6-8.7h15.6  c4.3,0,7.8-3.6,7.8-7.9V45.9C81.5,45.1,80.8,44.4,80,44.4z M60.8,77.5H29.2c1-2.5,4.3-7.2,15.8-7.2C56.5,70.2,59.9,74.9,60.8,77.5z   M81.5,35.7c0,0.9-0.7,1.6-1.5,1.6c-0.8,0-1.5-0.7-1.5-1.6c0-0.9,0.7-1.6,1.5-1.6C80.8,34.1,81.5,34.8,81.5,35.7z M81.5,26.4v5.3  c0,0.9-0.7,1.6-1.5,1.6c-0.8,0-1.5-0.7-1.5-1.6v-5.3c0-0.9,0.7-1.6,1.5-1.6C80.8,24.8,81.5,25.5,81.5,26.4z M80,19.5  c-6.3,0-11.5,5.2-11.5,11.5S73.7,42.5,80,42.5S91.5,37.4,91.5,31S86.3,19.5,80,19.5z M80,39.5c-4.7,0-8.5-3.8-8.5-8.5  s3.8-8.5,8.5-8.5s8.5,3.8,8.5,8.5S84.7,39.5,80,39.5z"></path></svg>
