<svg xmlns="http://www.w3.org/2000/svg" xmlns:xlink="http://www.w3.org/1999/xlink" viewBox="0 0 68 86" version="1.1" x="0px" y="0px"><g stroke="none" stroke-width="1" fill="none" fill-rule="evenodd"><g transform="translate(-769.000000, -1769.000000)" fill="#43BC8F"><path d="M785.22,1790.13 C784.89,1787.06 782.42,1784.71 780.1,1782.66 L773.93,1777.2 C773.324067,1776.52771 773.269901,1775.52357 773.8,1774.79 C774.329562,1774.09476 775.014495,1773.53311 775.8,1773.15 C779,1771.32 782.23,1769.46 785.84,1769.08 C792.25,1768.39 798.14,1772.44 803,1776.62 C808.828071,1781.56674 814.248878,1786.97417 819.21,1792.79 C821.89,1795.93 824.47,1799.28 825.77,1803.2 C827.07,1807.12 827,1811.44 826.87,1815.62 C826.82,1817.28 826.53,1819.28 825.01,1819.94 L820.51,1815.55 C817.27,1812.39 813.82,1809.11 809.43,1808 C805.23,1806.94 800.79,1808 796.76,1809.64 C796.081286,1809.85954 795.473629,1810.25659 795,1810.79 C794.520278,1811.36681 794.56379,1812.21529 795.1,1812.74 C809.329505,1823.53089 822.887983,1835.17916 835.7,1847.62 C836.241291,1847.94306 836.60979,1848.49121 836.704624,1849.11441 C836.799457,1849.7376 836.610692,1850.37055 836.19,1850.84 C835.632512,1852.00635 834.818966,1853.03183 833.81,1853.84 C832.758203,1854.64011 831.301797,1854.64011 830.25,1853.84 C817.416667,1841.71333 804.12,1830.1 790.36,1819 C789.936908,1818.58164 789.396107,1818.30252 788.81,1818.2 C788.22,1818.2 787.57,1818.65 787.68,1819.2 C787.79,1819.75 787.11,1820.32 786.5,1820.27 C785.888241,1820.16028 785.325661,1819.86327 784.89,1819.42 L776.36,1812.4 C775.442411,1811.76159 774.705271,1810.897 774.22,1809.89 C773.761323,1808.82451 774.196131,1807.5853 775.22,1807.04 C775.808284,1806.71424 776.040672,1805.98639 775.75,1805.38 C775.433192,1804.80962 774.970815,1804.33344 774.41,1804 L769.82,1800.51 C768.90954,1799.65015 768.722138,1798.2717 769.37,1797.2 C770.037995,1796.17418 770.939205,1795.32094 772,1794.71 C772.282499,1794.46598 772.630008,1794.3096 773,1794.26 C773.395526,1794.29949 773.769213,1794.46014 774.07,1794.72 L780.07,1798.95 C781.13,1799.69 782.39,1798.37 783.01,1797.24 C784.21,1795.03 785.45,1792.63 785.18,1790.13 L785.22,1790.13 Z M818,1796.37 C813.379154,1790.86041 808.333714,1785.72135 802.91,1781 C799.34,1777.82 795.57,1774.67 791.06,1773.07 C786.55,1771.47 781.06,1771.72 777.49,1774.84 C777.282293,1774.97999 777.144081,1775.20185 777.11,1775.45 C777.138602,1775.66693 777.245252,1775.86601 777.41,1776.01 C779.34,1778.12 781.69,1779.81 783.7,1781.85 C785.71,1783.89 787.44,1786.42 787.63,1789.28 C787.681288,1791.52215 787.117567,1793.73554 786,1795.68 C783.79,1799.92 780.48,1803.48 777.2,1806.96 C776.7,1807.48 777.15,1808.33 777.62,1808.88 C779.845988,1811.49218 782.53419,1813.67189 785.55,1815.31 C786.27,1815.7 787.33,1815.98 787.77,1815.31 C790.628843,1810.74097 794.933941,1807.25958 800,1805.42 C805.140398,1803.63518 810.803404,1804.17921 815.51,1806.91 C817.104101,1807.94225 818.606321,1809.1099 820,1810.4 L824.6,1814.4 C824.994321,1811.40403 824.672164,1808.35725 823.66,1805.51 C822.307303,1802.16339 820.393133,1799.07231 818,1796.37 L818,1796.37 Z M832.12,1849.09 C829.013598,1845.69272 825.672013,1842.51822 822.12,1839.59 C812.28,1831.06333 802.24,1822.74667 792,1814.64 C791.874983,1814.52006 791.719251,1814.437 791.55,1814.4 C791.15,1814.4 790.87,1814.85 790.97,1815.24 C791.112694,1815.61484 791.372126,1815.93387 791.71,1816.15 C796.38,1819.89 801.19,1823.46 805.79,1827.29 C814.93,1834.9 823.2,1843.51 832.57,1850.83 C832.97,1850.31 832.57,1849.58 832.1,1849.09 L832.12,1849.09 Z M771.87,1797.09 C771.72,1797.74 772.22,1798.34 772.69,1798.81 C774.46,1800.59 776.45,1802.35 778.91,1802.87 C778.91,1802.23 778.34,1801.76 777.82,1801.38 L771.87,1797.09 Z"></path></g></g></svg>
