<svg xmlns="http://www.w3.org/2000/svg" xmlns:xlink="http://www.w3.org/1999/xlink" version="1.1" x="0px" y="0px" viewBox="0 0 100 100" style="enable-background:new 0 0 100 100;" xml:space="preserve"><g><path fill="#FFFFFF" d="M40,6.7H15.7c-5,0-9,4-9,9V40c0,5,4,9,9,9H40c5,0,9-4,9-9V15.7C49,10.7,45,6.7,40,6.7z M45,40c0,2.8-2.2,5-5,5H15.7   c-2.8,0-5-2.2-5-5V15.7c0-2.8,2.2-5,5-5H40c2.8,0,5,2.2,5,5V40z"></path><path fill="#FFFFFF" d="M84.3,6.7H60c-5,0-9,4-9,9V40c0,5,4,9,9,9h24.3c5,0,9-4,9-9V15.7C93.3,10.7,89.3,6.7,84.3,6.7z M89.3,40c0,2.8-2.2,5-5,5   H60c-2.8,0-5-2.2-5-5V15.7c0-2.8,2.2-5,5-5h24.3c2.8,0,5,2.2,5,5V40z"></path><path fill="#FFFFFF" d="M40,51.3H15.7c-5,0-9,4-9,9v24.3c0,5,4,9,9,9H40c5,0,9-4,9-9V60.3C49,55.3,45,51.3,40,51.3z M45,84.6c0,2.8-2.2,5-5,5H15.7   c-2.8,0-5-2.2-5-5V60.3c0-2.8,2.2-5,5-5H40c2.8,0,5,2.2,5,5V84.6z"></path><path fill="#FFFFFF" d="M84.3,51.3H60c-5,0-9,4-9,9v24.3c0,5,4,9,9,9h24.3c5,0,9-4,9-9V60.3C93.3,55.3,89.3,51.3,84.3,51.3z M89.3,84.6   c0,2.8-2.2,5-5,5H60c-2.8,0-5-2.2-5-5V60.3c0-2.8,2.2-5,5-5h24.3c2.8,0,5,2.2,5,5V84.6z"></path></g></svg>
