<svg xmlns="http://www.w3.org/2000/svg" xmlns:xlink="http://www.w3.org/1999/xlink" version="1.1" x="0px" y="0px" viewBox="0 0 100 100" enable-background="new 0 0 100 100" xml:space="preserve"><g><path fill="#FFFFFF" d="M89.735,34.508H78.77v-9.49c0-2.903-2.362-5.264-5.265-5.264h-9.489v-8.015   c0-2.903-2.362-5.264-5.265-5.264H10.265C7.362,6.475,5,8.837,5,11.739v48.488c0,2.903,2.362,5.264,5.265,5.264h9.489v8.015   c0,2.903,2.362,5.264,5.265,5.264h10.965v9.49c0,2.903,2.362,5.264,5.265,5.264h48.487c2.903,0,5.265-2.362,5.265-5.264V39.772   C95,36.87,92.638,34.508,89.735,34.508z M19.754,25.018v36.047h-9.489c-0.463,0-0.839-0.376-0.839-0.838V11.739   c0-0.462,0.376-0.838,0.839-0.838h48.487c0.463,0,0.839,0.376,0.839,0.838v8.015H25.019C22.116,19.754,19.754,22.116,19.754,25.018   z M35.984,39.772v34.572H25.019c-0.463,0-0.839-0.376-0.839-0.838V25.018c0-0.462,0.376-0.838,0.839-0.838h48.487   c0.463,0,0.839,0.376,0.839,0.838v9.49H41.248C38.345,34.508,35.984,36.87,35.984,39.772z M90.574,88.261   c0,0.462-0.376,0.838-0.839,0.838H41.248c-0.463,0-0.839-0.376-0.839-0.838V39.772c0-0.462,0.376-0.838,0.839-0.838h48.487   c0.463,0,0.839,0.376,0.839,0.838V88.261z"></path></g></svg>
