<svg xmlns="http://www.w3.org/2000/svg" xmlns:xlink="http://www.w3.org/1999/xlink" version="1.1" x="0px" y="0px" viewBox="0 0 100 100" enable-background="new 0 0 100 100" xml:space="preserve"><g><g><path fill="#FFFFFF" d="M67.423,5.082c2.287,0,4.083,1.851,4.083,4.083c0,2.287-1.797,4.083-4.083,4.083h-34.9    c-2.232,0-4.083-1.797-4.083-4.083c0-2.232,1.851-4.083,4.083-4.083H67.423z"></path><path fill="#FFFFFF" d="M81.524,21.416c0,2.287-1.851,4.083-4.083,4.083H22.559c-2.287,0-4.083-1.797-4.083-4.083    c0-2.232,1.797-4.083,4.083-4.083h54.882C79.673,17.332,81.524,19.183,81.524,21.416z"></path><path fill="#FFFFFF" d="M5.082,44.555c0-8.221,6.697-14.973,14.973-14.973h59.891c8.276,0,14.973,6.751,14.973,14.973v35.39    c0,8.276-6.697,14.973-14.973,14.973H20.054c-8.276,0-14.973-6.697-14.973-14.973V44.555z M79.946,37.75H20.054    c-3.757,0.054-6.806,3.049-6.806,6.806v35.39c0,3.757,3.049,6.806,6.806,6.806h59.891c3.757,0,6.806-3.049,6.806-6.806v-35.39    C86.751,40.799,83.702,37.804,79.946,37.75z"></path></g></g></svg>
