<svg xmlns:dc="http://purl.org/dc/elements/1.1/" xmlns:cc="http://creativecommons.org/ns#" xmlns:rdf="http://www.w3.org/1999/02/22-rdf-syntax-ns#" xmlns:svg="http://www.w3.org/2000/svg" xmlns="http://www.w3.org/2000/svg" xmlns:sodipodi="http://sodipodi.sourceforge.net/DTD/sodipodi-0.dtd" xmlns:inkscape="http://www.inkscape.org/namespaces/inkscape" version="1.1" x="0px" y="0px" viewBox="0 0 100 100"><g transform="translate(0,-952.36218)"><path style="text-indent:0;text-transform:none;direction:ltr;block-progression:tb;baseline-shift:baseline;color:#000000;enable-background:accumulate;" d="m 10,973.36215 c -2.1641,0 -4,1.8359 -4,3.99997 l 0,50.00008 c 0,2.1641 1.8359,4 4,4 l 80,0 c 2.1641,0 4,-1.8359 4,-4 l 0,-50.00008 c 0,-2.16407 -1.8359,-3.99997 -4,-3.99997 l -80,0 z m 2.59375,5.99997 74.8125,0 L 50,1008.5496 12.59375,979.36211 z M 12,986.48712 48.15625,1014.7059 a 3.0003,3.0003 0 0 0 3.6875,0 L 88,986.48712 l 0,38.87508 -76,0 0,-38.87508 z" fill="#43BC8F" fill-opacity="1" stroke="none" marker="none" visibility="visible" display="inline" overflow="visible"></path></g></svg>
