<svg xmlns="http://www.w3.org/2000/svg" xmlns:xlink="http://www.w3.org/1999/xlink" version="1.1" x="0px" y="0px" viewBox="0 0 100 100" enable-background="new 0 0 100 100" xml:space="preserve"><g><g><path fill="#43BC8F" clip-rule="evenodd" d="M38.614,93.018c8.986-2.387,6.168-13.158,3.047-21.292    c-0.068-0.237-0.145-0.456-0.486-0.322c-3.751,2.553-11.311,4.943-16.781,4.214C25.479,86.386,29.141,95.537,38.614,93.018z"></path><path fill="#43BC8F" clip-rule="evenodd" d="M40.661,70.066c-4.334,2.506-10.288,4.213-15.951,4.066    c-2.362-8.768-7.047-15.988-7.188-23.536c-0.062-3.367-0.051-6.67,0.656-10.695c0.89-5.061,2.565-12.818,8.111-14.468    c7.663-2.276,11.523,6.25,13.58,11.414c1.075,2.69,2.062,5.613,2.235,7.737C42.925,54.549,36.382,59.769,40.661,70.066z"></path></g><g><path fill="#43BC8F" clip-rule="evenodd" d="M62.744,74.808c-9.057-2.099-6.584-12.955-3.725-21.185    c0.061-0.238,0.131-0.46,0.476-0.337c3.832,2.431,11.463,4.579,16.907,3.676C75.662,67.758,72.293,77.023,62.744,74.808z"></path><path fill="#43BC8F" clip-rule="evenodd" d="M59.994,51.933c4.412,2.365,10.418,3.883,16.072,3.555    c2.082-8.838,6.534-16.204,6.434-23.753c-0.046-3.368-0.161-6.668-0.997-10.669c-1.051-5.03-2.974-12.73-8.567-14.201    c-7.733-2.03-11.318,6.613-13.21,11.841c-0.988,2.723-1.88,5.677-1.986,7.806C57.235,36.496,63.942,41.503,59.994,51.933z"></path></g></g></svg>
