<svg xmlns="http://www.w3.org/2000/svg" xmlns:xlink="http://www.w3.org/1999/xlink" version="1.1" x="0px" y="0px" viewBox="0 0 100 100" enable-background="new 0 0 100 100" xml:space="preserve"><path fill="#43BC8F" d="M92.787,44.907c-2.207-8.448-9.888-14.681-19.027-14.681c-8.188,0-15.205,5.003-18.164,12.117  c-1.457-1.303-3.312-2.019-5.515-2.051h-0.105c-2.202,0.033-4.059,0.749-5.515,2.051c-2.959-7.114-9.978-12.117-18.165-12.117  c-9.139,0-16.821,6.233-19.028,14.681h-4.27v5.954h3.657c0.506,10.409,9.106,18.694,19.641,18.694  c10.419,0,18.944-8.101,19.648-18.347c0.453-4.853,2.368-5.79,4.106-5.832c1.694,0.042,3.608,0.98,4.062,5.832  c0.702,10.246,9.229,18.347,19.647,18.347c10.534,0,19.137-8.285,19.642-18.694h3.657v-5.954H92.787z M9.775,48.88H5.468v-2.112  h4.308V48.88z M26.296,64.471c-8.051,0-14.578-6.527-14.578-14.58c0-8.052,6.527-14.579,14.578-14.579  c8.053,0,14.579,6.527,14.579,14.579C40.875,57.943,34.349,64.471,26.296,64.471z M73.76,64.471c-8.053,0-14.579-6.527-14.579-14.58  c0-8.052,6.528-14.579,14.579-14.579s14.578,6.527,14.578,14.579C88.338,57.943,81.811,64.471,73.76,64.471z M94.589,48.88h-4.308  v-2.112h4.308V48.88z"></path></svg>
