<svg xmlns="http://www.w3.org/2000/svg" xmlns:xlink="http://www.w3.org/1999/xlink" version="1.1" x="0px" y="0px" viewBox="0 0 90 60" enable-background="new 0 0 90 60" xml:space="preserve"><g><path fill="#43BC8F" d="M7.351,34.775h11.854l2.969,12.034c0.087,0.354,0.417,0.594,0.781,0.568   c0.363-0.025,0.656-0.311,0.693-0.673l1.604-15.912l4.443,23.831c0.068,0.367,0.395,0.627,0.768,0.611   c0.373-0.015,0.677-0.301,0.715-0.673l4.484-43.827l3.687,23.569c0.057,0.364,0.372,0.634,0.741,0.634h13.75   c0.414,0,0.75-0.336,0.75-0.75s-0.336-0.75-0.75-0.75H40.731L36.247,4.772c-0.059-0.374-0.383-0.644-0.761-0.634   c-0.378,0.01-0.688,0.297-0.726,0.673l-4.544,44.422l-4.449-23.857c-0.068-0.367-0.396-0.627-0.769-0.612   c-0.374,0.016-0.678,0.303-0.715,0.674L22.59,42.237l-2.07-8.392c-0.083-0.334-0.384-0.57-0.728-0.57H7.351   c-0.414,0-0.75,0.336-0.75,0.75S6.937,34.775,7.351,34.775z"></path><path fill="#43BC8F" d="M72.664,34.938h9.985c0.414,0,0.75-0.336,0.75-0.75s-0.336-0.75-0.75-0.75h-9.985   c-0.414,0-0.75,0.336-0.75,0.75S72.25,34.938,72.664,34.938"></path><path fill="#43BC8F" d="M58.259,34.938h9.985c0.414,0,0.75-0.336,0.75-0.75s-0.336-0.75-0.75-0.75h-9.985   c-0.414,0-0.75,0.336-0.75,0.75S57.845,34.938,58.259,34.938"></path></g></svg>
