<svg xmlns="http://www.w3.org/2000/svg" xmlns:xlink="http://www.w3.org/1999/xlink" version="1.1" x="0px" y="0px" viewBox="0 0 100 100" style="enable-background:new 0 0 100 100;" xml:space="preserve"><g><path fill="#43BC8F" d="M27.5,56.4l0.5-0.8l2.5-3.8l8.4,19c0.4,1,1.3,1.8,2.3,2.2c2.1,0.7,4.4-0.4,5.1-2.5l9.5-27l7.5,19c0.2,0.6,0.6,1.1,1.1,1.6   c1.7,1.4,4.2,1.2,5.6-0.4l5.9-6.9l11.7-3.3l-14.1-4c-0.9-0.2-1.9,0-2.5,0.7l-0.6,0.6l-2.2,2.6l-9-22.9c-0.4-1-1.3-1.9-2.4-2.3   c-2.1-0.7-4.4,0.4-5.1,2.5l-9.7,27.7l-7.3-16.5c-0.3-0.7-0.8-1.3-1.5-1.7c-1.8-1.2-4.3-0.7-5.5,1.1l-5.9,9l-9.6,3.1l12.3,4   C25.7,57.7,26.8,57.3,27.5,56.4z"></path></g></svg>
