<svg xmlns:dc="http://purl.org/dc/elements/1.1/" xmlns:cc="http://creativecommons.org/ns#" xmlns:rdf="http://www.w3.org/1999/02/22-rdf-syntax-ns#" xmlns:svg="http://www.w3.org/2000/svg" xmlns="http://www.w3.org/2000/svg" xmlns:sodipodi="http://sodipodi.sourceforge.net/DTD/sodipodi-0.dtd" xmlns:inkscape="http://www.inkscape.org/namespaces/inkscape" viewBox="0 0 100 100" version="1.1" x="0px" y="0px"><g transform="translate(0,-952.36216)"><path style="font-size:medium;font-style:normal;font-variant:normal;font-weight:normal;font-stretch:normal;text-indent:0;text-align:start;text-decoration:none;line-height:normal;letter-spacing:normal;word-spacing:normal;text-transform:none;direction:ltr;block-progression:tb;writing-mode:lr-tb;text-anchor:start;baseline-shift:baseline;opacity:1;color:#000000;fill:#43BC8F;fill-opacity:1;stroke:none;stroke-width:3.99999951999999980;marker:none;visibility:visible;display:inline;overflow:visible;enable-background:accumulate;font-family:Sans;-inkscape-font-specification:Sans" d="M 30 6 C 26.710607 6 24 8.71061 24 12 L 24 88 C 24 91.2894 26.710601 94 30 94 L 70 94 C 73.289399 94 76 91.2894 76 88 L 76 12 C 76 8.71061 73.289393 6 70 6 L 30 6 z M 30 10 L 70 10 C 71.142581 10 72 10.85741 72 12 L 72 88 C 72 89.1426 71.142575 90 70 90 L 30 90 C 28.857425 90 28 89.1426 28 88 L 28 12 C 28 10.85741 28.857419 10 30 10 z M 33.8125 14 A 2.0001998 2.0001998 0 0 0 32 16 L 32 74 A 2.0001998 2.0001998 0 0 0 34 76 L 66 76 A 2.0001998 2.0001998 0 0 0 68 74 L 68 16 A 2.0001998 2.0001998 0 0 0 66 14 L 34 14 A 2.0001998 2.0001998 0 0 0 33.8125 14 z M 36 18 L 64 18 L 64 72 L 36 72 L 36 18 z M 50 79 C 47.79086 79 46 80.7908 46 83 C 46 85.2091 47.79086 87 50 87 C 52.209137 87 54 85.2091 54 83 C 54 80.7908 52.20914 79 50 79 z " transform="translate(0,952.36216)"></path></g></svg>
