<svg xmlns="http://www.w3.org/2000/svg" xmlns:xlink="http://www.w3.org/1999/xlink" version="1.1" x="0px" y="0px" viewBox="0 0 100 100" enable-background="new 0 0 100 100" xml:space="preserve"><g fill="#43BC8F"><polygon points="8.554,85.477 34.408,59.641 40.086,65.312 14.234,91.156  "></polygon></g><path fill="#43BC8F" d="M91.312,37.749c0,16.197-13.135,29.339-29.332,29.339c-16.205,0-29.34-13.143-29.34-29.339  c0-16.206,13.135-29.341,29.34-29.341C78.178,8.408,91.312,21.542,91.312,37.749L91.312,37.749z M85.449,37.749  c0-12.969-10.509-23.477-23.469-23.477c-12.967,0-23.474,10.508-23.474,23.477c0,12.958,10.507,23.466,23.474,23.466  C74.94,61.215,85.449,50.707,85.449,37.749L85.449,37.749z"></path></svg>
