<svg xmlns="http://www.w3.org/2000/svg" xmlns:xlink="http://www.w3.org/1999/xlink" xmlns:a="http://ns.adobe.com/AdobeSVGViewerExtensions/3.0/" version="1.1" x="0px" y="0px" viewBox="-56.77 -46.565 1024 1024" enable-background="new -56.77 -46.565 1024 1024" xml:space="preserve"><g display="none"><g display="inline"><path fill="#43BC8F" d="M861.109,88.539c0,32.449,0,64.898,0,97.348c0,64.045,0,128.09,0,192.135c0,45.687,0,91.374,0,137.062    c0,2.708,0,5.416,0,8.125c4.667-4.667,9.333-9.333,14-14c-19.037,0-38.073,0-57.109,0c-48.026,0-96.052,0-144.078,0    c-63.389,0-126.778,0-190.167,0c-65.126,0-130.253,0-195.379,0c-53.238,0-106.476,0-159.713,0c-27.723,0-55.446,0-83.169,0    c-1.348,0-2.696,0-4.043,0c4.667,4.667,9.333,9.333,14,14c0-32.449,0-64.898,0-97.348c0-64.045,0-128.09,0-192.135    c0-45.687,0-91.374,0-137.061c0-2.699,0-5.399,0-8.098c0-4.232-0.697,2.369,0.091-1.624c0.064-0.328,1.455-4.245,0.276-1.559    c0.515-1.174,1.214-2.255,1.908-3.327c-1.518,2.347,0.8-0.724,1.106-1.03c2.747-2.748-2.064,1.212,1.203-0.902    c0.338-0.218,3.988-1.787,1.303-0.778c0.682-0.256,5.515-1.001,2.75-0.769c0.761-0.064,1.557-0.038,2.326-0.038    c7.76,0,15.521,0,23.28,0c40.382,0,80.764,0,121.145,0c60.747,0,121.493,0,182.239,0c65.771,0,131.541,0,197.312,0    c55.453,0,110.907,0,166.361,0c29.797,0,59.593,0,89.39,0c1.513,0,3.026,0,4.54,0c0.115,0,0.231,0,0.347,0    c3.866,0-1.918-0.619,1.683,0.092c0.851,0.192,1.688,0.431,2.513,0.715c-2.668-0.839,0.896,0.545,1.303,0.778    c1.338,0.913,1.424,0.931,0.258,0.052c0.99,0.8,1.845,1.751,2.693,2.694c-2.136-2.375,1.967,4.592,0.827,1.561    c0.284,0.824,0.522,1.662,0.715,2.512C862.009,90.827,860.995,84.44,861.109,88.539c0.213,7.627,6.207,14,14,14    c7.471,0,14.213-6.369,14-14c-0.584-20.938-17.146-38-38.378-38c-2.175,0-4.349,0-6.522,0c-11.652,0-23.304,0-34.956,0    c-45.807,0-91.612,0-137.419,0c-63.026,0-126.053,0-189.079,0c-64.906,0-129.812,0-194.717,0c-51.444,0-102.889,0-154.333,0    c-22.643,0-45.285,0-67.927,0c-20.777,0-38.33,17.089-38.33,38.003c0,2.512,0,5.025,0,7.537c0,17.146,0,34.292,0,51.439    c0,60.924,0,121.848,0,182.772c0,54.805,0,109.61,0,164.414c0,9.502,0,19.003,0,28.504c0,7.632,6.368,14,14,14    c19.037,0,38.073,0,57.11,0c48.026,0,96.052,0,144.078,0c63.389,0,126.778,0,190.167,0c65.127,0,130.253,0,195.379,0    c53.238,0,106.476,0,159.714,0c27.723,0,55.446,0,83.169,0c1.349,0,2.696,0,4.044,0c7.632,0,14-6.368,14-14    c0-32.449,0-64.898,0-97.348c0-64.045,0-128.09,0-192.135c0-45.687,0-91.374,0-137.061c0-2.708,0-5.417,0-8.125    c0-7.632-6.368-14-14-14S861.109,80.907,861.109,88.539z"></path></g></g><g display="none"><g display="inline"><path fill="#43BC8F" d="M382.863,637.247c0,38.597,0,77.194,0,115.791c4.667-4.667,9.333-9.333,14-14c-31.5,0-63,0-94.5,0    c-7.632,0-14,6.368-14,14s6.368,14,14,14c40.725,0,81.449,0,122.174,0c57.274,0,114.548,0,171.822,0c5.945,0,11.892,0,17.837,0    c7.632,0,14-6.368,14-14s-6.368-14-14-14c-32.333,0-64.667,0-97,0c4.667,4.667,9.333,9.333,14,14c0-38.597,0-77.194,0-115.791    c0-7.632-6.368-14-14-14c-40.111,0-80.222,0-120.333,0C389.231,623.247,382.863,629.615,382.863,637.247s6.368,14,14,14    c40.111,0,80.222,0,120.333,0c-4.667-4.667-9.333-9.333-14-14c0,38.597,0,77.194,0,115.791c0,7.632,6.368,14,14,14    c32.333,0,64.667,0,97,0c7.632,0,14-6.368,14-14s-6.368-14-14-14c-40.725,0-81.449,0-122.174,0c-57.274,0-114.548,0-171.822,0    c-5.946,0-11.891,0-17.837,0c-7.632,0-14,6.368-14,14s6.368,14,14,14c31.5,0,63,0,94.5,0c7.632,0,14-6.368,14-14    c0-38.597,0-77.194,0-115.791c0-7.632-6.368-14-14-14S382.863,629.615,382.863,637.247z"></path></g></g><g display="none"><g display="inline"><path fill="#43BC8F" d="M221.065,832.171c30.299,0,60.597,0,90.896,0c63.115,0,126.23,0,189.345,0c54.26,0,108.52,0,162.779,0    c10.994,0,21.987,0,32.98,0c-4.029-2.312-8.059-4.623-12.089-6.934c6.195,9.299,12.391,18.599,18.586,27.897    c3.783,5.68,7.566,11.358,11.35,17.038c0.994,1.491,1.987,2.982,2.981,4.475c0.139,0.208,0.276,0.416,0.415,0.624    c1.457,2.187,2.728,3.72,5.053,5.039c-2.37-1.345-5.113-4.385-5.76-7.563c0-2.48,0-4.962,0-7.443    c2.888-2.975,5.775-5.948,8.662-8.923c-1.26,0.297-0.777,0.269,1.446-0.086c-1.326,0.174-2.68,0.185-4.014,0.227    c-0.619,0.019-1.241,0.017-1.862,0.017c-0.25,0-0.499,0-0.749,0c-1.242,0-2.483,0-3.725,0c-5.251,0-10.501,0-15.752,0    c-19.678,0-39.355,0-59.032,0c-60.921,0-121.842,0-182.762,0c-60.834,0-121.668,0-182.502,0c-27.53,0-55.079,0.301-82.607,0.009    c-1.489-0.016-2.977-0.078-4.463-0.171c-0.559-0.038-1.116-0.089-1.673-0.152c0.766,0.095,1.531,0.189,2.296,0.284    c-2.502-0.645-0.984,0.334,4.553,2.935c1.2,2.059,2.4,4.118,3.601,6.178c-0.021-0.074-0.041-0.148-0.062-0.223    c-0.471,3.596-0.941,7.191-1.412,10.787c1.125-2.617,3.504-5.1,5.126-7.417c4.148-5.924,8.296-11.848,12.444-17.772    c6.012-8.586,12.024-17.173,18.037-25.759c4.385-6.263,1.155-15.536-5.022-19.155c-6.992-4.096-14.787-1.215-19.154,5.022    c-6.584,9.402-13.167,18.806-19.751,28.208c-4.092,5.844-8.184,11.688-12.275,17.53c-4.692,6.701-8.967,15.323-1.331,22.399    c8.26,7.654,25.632,5.297,36.873,5.297c44.926,0,89.853,0,134.779,0c65.086,0,130.171,0,195.257,0c50.637,0,101.273,0,151.91,0    c7.841,0,15.682,0,23.522,0c1.291,0,2.582,0,3.873,0c6.864,0,13.38-0.51,18.818-5.093c7.548-6.36,4.792-18.801-3.188-23.33    c1.674,1.675,3.348,3.349,5.022,5.022c-6.377-9.571-12.754-19.144-19.131-28.716c-3.824-5.74-7.648-11.481-11.473-17.222    c-3.646-5.474-7.25-11.03-14.887-11.03c-9.237,0-18.475,0-27.712,0c-52.723,0-105.446,0-158.17,0c-63.662,0-127.323,0-190.985,0    c-32.929,0-65.858,0-98.788,0c-0.092,0-0.185,0-0.277,0c-7.632,0-14,6.368-14,14S213.433,832.171,221.065,832.171z"></path></g></g><g display="none"><g display="inline"><path fill="#43BC8F" d="M861.109,523.208c0,24.887,0,49.772,0,74.659c0,5.161,0,10.322,0,15.483c0,0.95,0,1.9,0,2.852    c0,3.851,0.641-1.93-0.188,1.513c-0.883,3.663,1.244-2.017-0.545,1.259c-0.892,1.335-0.896,1.406-0.013,0.212    c-0.557,0.639-1.15,1.241-1.778,1.81c1.962-1.882-0.99,0.596-1.379,0.828c-3.4,2.032,2.238-0.592-1.605,0.704    c-0.179,0.061-4.511,0.915-1.801,0.592c-0.649,0.077-2.003,0.129-2.692,0.129c-0.109,0-0.219,0-0.328,0c-0.73,0-1.461,0-2.192,0    c-27.081,0-54.162,0-81.244,0c-53.966,0-107.931,0-161.896,0c-65.51,0-131.02,0-196.529,0c-61.713,0-123.426,0-185.139,0    c-42.575,0-85.15,0-127.726,0c-9.317,0-18.634,0-27.951,0c-0.758,0-1.516,0-2.273,0c-0.121,0-0.242,0-0.363,0    c-0.322,0-4.429-0.489-1.808-0.039c-1.367-0.235-2.687-0.678-3.997-1.119c2.3,0.775-1.972-1.303-2.516-1.67    c2.297,1.551-0.689-0.953-0.949-1.234c1.902,2.053-0.366-0.86-0.611-1.309c1.375,2.517-0.105-0.819-0.244-1.396    c0.273,1.136,0.109,2.087,0.109-0.167c0-0.864,0-1.729,0-2.593c0-5.015,0-10.03,0-15.046c0-25.155,0-50.311,0-75.467    c-4.667,4.667-9.333,9.333-14,14c19.037,0,38.073,0,57.11,0c48.026,0,96.052,0,144.078,0c63.389,0,126.778,0,190.167,0    c65.127,0,130.253,0,195.379,0c53.238,0,106.476,0,159.714,0c27.723,0,55.446,0,83.169,0c1.349,0,2.696,0,4.044,0    c7.632,0,14-6.368,14-14s-6.368-14-14-14c-19.037,0-38.073,0-57.109,0c-48.026,0-96.052,0-144.078,0    c-63.389,0-126.778,0-190.167,0c-65.126,0-130.253,0-195.379,0c-53.238,0-106.476,0-159.713,0c-27.723,0-55.446,0-83.169,0    c-1.348,0-2.696,0-4.043,0c-7.632,0-14,6.368-14,14c0,24.887,0,49.772,0,74.659c0,11.919-1.373,24.386,4.557,35.238    c6.737,12.33,21.23,18.143,34.661,18.143c24.98,0,49.961,0,74.941,0c52.785,0,105.57,0,158.356,0c65.25,0,130.499,0,195.749,0    c62.373,0,124.746,0,187.119,0c44.156,0,88.313,0,132.469,0c10.453,0,20.905,0,31.358,0c1.481,0,2.962,0,4.443,0    c13.593,0,26.186-6.647,33.45-18.143c3.752-5.938,4.557-12.917,4.557-19.755c0-30.048,0-60.095,0-90.143c0-7.632-6.368-14-14-14    S861.109,515.576,861.109,523.208z"></path></g></g><g display="none"><g display="inline"><path fill="#43BC8F" d="M294.94,224.427c-35.966,34.168-71.933,68.336-107.898,102.504c-4.038,3.836-8.076,7.672-12.113,11.508    c-13.114,12.458,6.718,32.226,19.799,19.799c35.966-34.168,71.933-68.336,107.898-102.504c4.038-3.836,8.076-7.672,12.113-11.508    C327.853,231.768,308.021,212,294.94,224.427L294.94,224.427z"></path></g></g><g display="none"><g display="inline"><path fill="#43BC8F" d="M206.154,212.424c-14.742,14.005-29.484,28.01-44.226,42.015c-13.114,12.458,6.718,32.226,19.799,19.799    c14.742-14.005,29.484-28.01,44.226-42.015C239.066,219.765,219.235,199.997,206.154,212.424L206.154,212.424z"></path></g></g><g display="none"><g display="inline"><path fill="#43BC8F" d="M154.808,55.787c0.025-1.389,0.098-2.755,0.223-4.139c-0.266,2.945,0.394-1.302,0.462-1.592    c0.307-1.293,0.75-2.55,1.191-3.802c-0.942,2.671,0.62-1.169,0.758-1.436c2.401-4.633,4.833-6.897,8.133-9.065    c1.092-0.718,2.254-1.32,3.413-1.92c3.694-1.915-2.427,0.796,1.522-0.596c1.259-0.444,2.561-0.753,3.858-1.061    c4.155-0.986-2.659,0.113,1.655-0.276c1.016-0.092,2.039-0.1,3.058-0.1c2.716,0,5.433,0,8.149,0c15.139,0,30.277,0,45.416,0    c55.85,0,111.7,0,167.55,0c64.709,0,129.418,0,194.127,0c43.281,0,86.563,0,129.844,0c3.923,0,7.846,0,11.769,0    c0.602,0,1.203,0,1.805,0c1.395,0,2.773,0.098,4.161,0.223c-2.946-0.266,1.302,0.394,1.592,0.462    c1.294,0.307,2.551,0.75,3.802,1.191c-2.671-0.942,1.17,0.62,1.437,0.758c1.158,0.6,2.25,1.318,3.339,2.033    c3.448,2.266-1.856-1.688,1.244,1.019c1.304,1.138,2.467,2.425,3.602,3.726c-1.846-2.115,0.722,1.113,0.881,1.355    c0.718,1.092,1.32,2.254,1.921,3.413c1.914,3.694-0.797-2.427,0.596,1.522c0.444,1.259,0.753,2.561,1.061,3.857    c0.985,4.156-0.112-2.658,0.276,1.655c0.066,0.739,0.1,2.034,0.1,2.774c0,0.034,0,0.068,0,0.102c0,0.542,0,1.084,0,1.627    c0,2.971,0,5.941,0,8.912c0,33.036,0,66.071,0,99.107c0,56.413,0,112.825,0,169.237c0,65.833,0,131.666,0,197.499    c0,61.298,0,122.595,0,183.893c0,42.805,0,85.609,0,128.415c0,10.106,0,20.213,0,30.319c0,1.467,0,2.933,0,4.398    c0,1.393-0.098,2.769-0.223,4.153c0.266-2.945-0.394,1.303-0.463,1.593c-0.307,1.293-0.75,2.55-1.191,3.802    c0.942-2.672-0.619,1.169-0.758,1.436c-0.6,1.158-1.317,2.25-2.033,3.339c-2.266,3.448,1.688-1.856-1.019,1.244    c-1.138,1.304-2.425,2.467-3.726,3.602c2.115-1.846-1.113,0.722-1.355,0.881c-1.092,0.718-2.254,1.32-3.412,1.921    c-3.694,1.914,2.426-0.797-1.523,0.596c-1.259,0.444-2.561,0.753-3.857,1.061c-4.156,0.985,2.658-0.112-1.655,0.276    c-0.74,0.066-2.034,0.1-2.774,0.1c-0.05,0-0.1,0-0.149,0c-28.626,0-57.253,0-85.879,0c-60.654,0-121.309,0-181.963,0    c-62.396,0-124.792,0-187.187,0c-33.851,0-67.702,0-101.552,0c-0.716,0-1.432,0-2.147,0c-0.028,0-0.057,0-0.085,0    c-1.387,0-2.759-0.099-4.139-0.223c2.945,0.266-1.302-0.394-1.592-0.463c-1.293-0.307-2.55-0.75-3.802-1.191    c2.671,0.942-1.169-0.619-1.436-0.758c-1.158-0.6-2.25-1.317-3.338-2.033c-1.325-0.946-1.414-1.002-0.268-0.166    c-0.661-0.558-1.302-1.137-1.924-1.737c-0.948-0.886-1.803-1.865-2.654-2.841c1.846,2.115-0.722-1.112-0.881-1.355    c-0.718-1.092-1.32-2.254-1.92-3.412c-1.915-3.694,0.796,2.427-0.596-1.522c-0.444-1.26-0.753-2.561-1.061-3.857    c-0.986-4.156,0.113,2.658-0.276-1.655c-0.082-0.905-0.1-1.905-0.1-2.813c0-0.464,0-0.928,0-1.392c0-7.994,0-15.988,0-23.982    c0-39.784,0-79.567,0-119.352c0-59.881,0-119.762,0-179.643c0-66.021,0-132.043,0-198.064c0-58.206,0-116.412,0-174.618    c0-36.435,0-72.869,0-109.303C154.808,67.208,154.808,61.498,154.808,55.787c0-7.632-6.368-14-14-14s-14,6.368-14,14    c0,19.236,0,38.473,0,57.709c0,48.405,0,96.811,0,145.216c0,63.618,0,127.235,0,190.853c0,64.873,0,129.747,0,194.621    c0,52.174,0,104.347,0,156.521c0,25.517,0,51.033,0,76.55c0,29.323,22.349,54.043,52.386,54.043c9.096,0,18.192,0,27.289,0    c49.217,0,98.435,0,147.652,0c65.345,0,130.689,0,196.034,0c51.187,0,102.372,0,153.559,0c10.818,0,21.638,0,32.456,0    c29.519,0,53.565-23,53.565-52.832c0-23.301,0-46.603,0-69.903c0-50.865,0-101.729,0-152.595c0-64.473,0-128.944,0-193.417    c0-64.124,0-128.247,0-192.37c0-49.818,0-99.636,0-149.455c0-21.557,0-43.113,0-64.669c0-19.653-11.377-38.482-29.232-46.967    c-8.169-3.881-16.816-5.292-25.755-5.292c-12.101,0-24.2,0-36.301,0c-52.613,0-105.227,0-157.84,0c-65.258,0-130.516,0-195.773,0    c-47.616,0-95.232,0-142.848,0c-7.209,0-14.418,0-21.627,0c-29.244,0-53.034,22.485-53.565,51.988c-0.137,7.632,6.472,14,14,14    C148.543,69.787,154.671,63.416,154.808,55.787z"></path></g></g><g display="none"><g display="inline"><path fill="#43BC8F" d="M140.808,144.106c24.052,0,48.104,0,72.156,0c56.506,0,113.012,0,169.519,0c65.485,0,130.971,0,196.456,0    c50.989,0,101.979,0,152.969,0c14.614,0,29.228,0,43.842,0c7.632,0,14-6.368,14-14s-6.368-14-14-14c-24.052,0-48.104,0-72.156,0    c-56.506,0-113.013,0-169.519,0c-65.485,0-130.971,0-196.456,0c-50.99,0-101.979,0-152.969,0c-14.614,0-29.228,0-43.842,0    c-7.632,0-14,6.368-14,14S133.176,144.106,140.808,144.106L140.808,144.106z"></path></g></g><g display="none"><g display="inline"><path fill="#43BC8F" d="M775.75,772.35c-24.052,0-48.104,0-72.156,0c-56.506,0-113.013,0-169.519,0c-65.485,0-130.971,0-196.456,0    c-50.99,0-101.979,0-152.969,0c-14.614,0-29.228,0-43.842,0c-7.632,0-14,6.368-14,14s6.368,14,14,14c24.052,0,48.104,0,72.156,0    c56.506,0,113.012,0,169.519,0c65.485,0,130.971,0,196.456,0c50.989,0,101.979,0,152.969,0c14.614,0,29.228,0,43.842,0    c7.632,0,14-6.368,14-14S783.381,772.35,775.75,772.35L775.75,772.35z"></path></g></g><g display="none"><g display="inline"><path fill="#43BC8F" d="M458.279,88.375c7.632,0,14-6.368,14-14s-6.368-14-14-14s-14,6.368-14,14S450.647,88.375,458.279,88.375    L458.279,88.375z"></path></g></g><g display="none"><g display="inline"><path fill="#43BC8F" d="M469.369,852.279c-0.117,4.328,0.714-2.495-0.079,1.66c-0.051,0.27-1.378,4.319-0.243,1.636    c-0.505,1.194-1.191,2.301-1.873,3.397c1.435-2.311-0.748,0.827-1.054,1.148c-0.265,0.279-3.436,2.642-1.147,1.053    c-1.065,0.74-2.235,1.309-3.397,1.874c2.575-1.252-1.315,0.164-1.636,0.242c-3.934,0.971,2.479-0.032-1.66,0.079    c-4.136,0.111,2.303,0.677-1.66-0.079c-0.27-0.051-4.319-1.377-1.636-0.242c-1.194-0.506-2.3-1.192-3.397-1.874    c2.311,1.435-0.827-0.748-1.147-1.053c-0.28-0.266-2.642-3.437-1.053-1.148c-0.74-1.064-1.309-2.235-1.873-3.397    c1.251,2.576-0.164-1.315-0.243-1.636c-0.97-3.934,0.033,2.48-0.079-1.66c-0.111-4.136-0.677,2.304,0.079-1.66    c0.051-0.27,1.378-4.318,0.243-1.635c0.505-1.194,1.191-2.3,1.873-3.397c-1.435,2.311,0.748-0.826,1.053-1.147    c0.265-0.279,3.436-2.642,1.147-1.054c1.065-0.739,2.235-1.308,3.397-1.873c-2.576,1.252,1.315-0.164,1.636-0.242    c3.934-0.971-2.48,0.032,1.66-0.079c4.136-0.111-2.304-0.677,1.66,0.079c0.27,0.051,4.318,1.377,1.636,0.242    c1.193,0.506,2.3,1.192,3.397,1.873c-2.311-1.434,0.827,0.749,1.147,1.054c0.279,0.266,2.643,3.436,1.054,1.147    c0.739,1.065,1.309,2.235,1.873,3.397c-1.251-2.575,0.164,1.314,0.243,1.635C470.26,854.554,469.257,848.14,469.369,852.279    c0.206,7.627,6.213,14,14,14c7.476,0,14.206-6.368,14-14c-0.585-21.673-17.418-38.503-39.09-39.088    c-21.666-0.584-38.529,18.298-39.089,39.088c-0.584,21.667,18.299,38.529,39.089,39.09c21.666,0.584,38.529-18.3,39.09-39.09    c0.206-7.632-6.524-14-14-14C475.582,838.279,469.575,844.652,469.369,852.279z"></path></g></g><g><g><path fill="#43BC8F" d="M674.259,82.762c0,20.412,0,40.823,0,61.234c0,50.579,0,101.159,0,151.738c0,64.764,0,129.528,0,194.292    c0,62.966,0,125.932,0,188.897c0,45.186,0,90.37,0,135.555c0,10.931,0,21.86,0,32.79c0,1.676,0,3.351,0,5.026    c0,0.48-0.01,0.958-0.015,1.442c-0.015,1.387-0.115,2.771-0.216,4.153c-0.323,4.448,0.507-2.664-0.178,1.704    c-0.417,2.659-1.078,5.273-1.817,7.859c-0.366,1.279-0.81,2.534-1.252,3.787c-0.609,1.537-0.629,1.65-0.06,0.338    c-0.35,0.806-0.716,1.603-1.098,2.394c-1.117,2.37-2.444,4.635-3.834,6.854c-0.692,1.105-1.449,2.169-2.205,3.23    c1.646-2.311-0.884,1.074-1.035,1.254c-1.67,1.994-3.513,3.836-5.403,5.619c-0.946,0.892-1.943,1.728-2.94,2.563    c-1.266,1.022-1.351,1.089-0.256,0.199c-0.703,0.511-1.416,1.008-2.139,1.491c-2.162,1.476-4.45,2.756-6.77,3.964    c-1.167,0.608-2.369,1.146-3.569,1.682c2.643-1.181-1.385,0.43-1.589,0.501c-2.525,0.893-5.125,1.55-7.736,2.126    c-1.324,0.293-2.664,0.503-4.003,0.712c2.775-0.435-2.598,0.113-3.122,0.141c-1.62,0.084-3.251,0.058-4.874,0.058    c-5.811,0-11.621,0-17.432,0c-24.534,0-49.067,0-73.602,0c-62.174,0-124.348,0-186.522,0c-15.613,0-31.227,0-46.84,0    c-0.411,0-0.821,0-1.232,0c-0.064,0-0.129,0-0.193,0c-1.208,0-1.589-0.021-2.795-0.058c-0.515-0.017-5.915-0.52-3.122-0.141    c-2.675-0.362-5.311-0.972-7.918-1.66c-1.289-0.34-2.555-0.759-3.82-1.178c-0.198-0.064-4.262-1.631-1.589-0.501    c-2.419-1.023-4.741-2.262-7.018-3.565c-1.134-0.649-2.228-1.365-3.321-2.08c-0.723-0.483-1.436-0.98-2.138-1.491    c1.095,0.89,1.01,0.823-0.256-0.199c-2.026-1.631-3.905-3.438-5.724-5.293c-0.911-0.929-1.766-1.909-2.62-2.889    c-0.148-0.171-2.731-3.54-1.034-1.254c-1.557-2.098-2.925-4.329-4.222-6.595c-0.652-1.139-1.235-2.314-1.817-3.489    c-0.382-0.791-0.748-1.588-1.098-2.394c0.569,1.313,0.549,1.199-0.059-0.338c-0.94-2.5-1.649-5.079-2.278-7.672    c-0.318-1.313-0.555-2.645-0.792-3.975c-0.775-4.355,0.238,2.737-0.178-1.704c-0.177-1.89-0.23-3.795-0.23-5.692    c0-22.112,0-44.225,0-66.337c0-51.562,0-103.122,0-154.684c0-65.026,0-130.053,0-195.08c0-62.509,0-125.018,0-187.527    c0-44.009,0-88.019,0-132.027c0-10.072,0-20.145,0-30.217c0-3.049,0.008-6.068,0.23-9.118c0.324-4.448-0.506,2.664,0.178-1.704    c0.209-1.335,0.501-2.656,0.792-3.975c0.576-2.608,1.389-5.157,2.278-7.672c1.433-4.057-1.151,2.371,0.597-1.541    c0.536-1.2,1.143-2.366,1.75-3.53c1.409-2.705,3.083-5.263,4.85-7.745c-1.646,2.311,0.884-1.074,1.034-1.253    c0.835-0.997,1.728-1.943,2.62-2.889c1.785-1.893,3.732-3.624,5.724-5.293c3.247-2.72-2.135,1.503,1.318-0.955    c1.063-0.757,2.17-1.451,3.276-2.144c2.596-1.626,5.346-2.989,8.14-4.238c-2.643,1.181,1.385-0.429,1.589-0.501    c1.257-0.444,2.54-0.811,3.82-1.178c2.596-0.743,5.254-1.243,7.918-1.661c-2.959,0.464,1.518-0.052,1.737-0.068    c1.39-0.101,2.784-0.115,4.176-0.13c0.066,0,0.131,0,0.197,0c1.261,0,2.522,0,3.784,0c6.77,0,13.539,0,20.309,0    c25.708,0,51.417,0,77.125,0c61.55,0,123.099,0,184.648,0c13.472,0,26.943,0,40.414,0c11.308,0,19.857,2.167,29.918,8.469    c3.424,2.145,5.17,3.577,9.211,7.698c0.91,0.928,1.766,1.909,2.619,2.889c0.148,0.17,2.731,3.54,1.035,1.253    c1.557,2.098,2.924,4.33,4.221,6.595c1.089,1.901,2.023,3.885,2.916,5.883c-1.181-2.643,0.429,1.385,0.501,1.589    c0.444,1.257,0.812,2.54,1.178,3.821c0.742,2.596,1.243,5.253,1.661,7.918c-0.465-2.959,0.052,1.519,0.067,1.737    C674.231,79.976,674.245,81.37,674.259,82.762c0.079,7.63,6.309,14,14,14c7.571,0,14.079-6.368,14-14    c-0.461-44.35-36.766-80.028-81.045-80.028c-15.023,0-30.047,0-45.071,0c-61.985,0-123.971,0-185.956,0    c-24.936,0-49.871,0-74.807,0c-6.135,0-12.27,0-18.405,0c-13.51,0-26.168,2.688-38.416,8.458    c-28.483,13.419-44.261,43.663-44.261,74.275c0,9.492,0,18.983,0,28.475c0,43.207,0,86.414,0,129.621    c0,62.187,0,124.374,0,186.561c0,65.184,0,130.367,0,195.551c0,52.197,0,104.396,0,156.593c0,23.229,0,46.457,0,69.686    c0,43.701,36.169,80.413,80.03,80.413c11.926,0,23.853,0,35.778,0c60.747,0,121.493,0,182.239,0c26.794,0,53.588,0,80.382,0    c14.668,0,29.668,0.87,44.204-1.408c38.209-5.989,65.327-42.043,65.327-79.686c0-8.008,0-16.016,0-24.024    c0-41.139,0-82.278,0-123.418c0-61.317,0-122.635,0-183.953c0-65.513,0-131.026,0-196.54c0-53.726,0-107.452,0-161.177    c0-25.956,0-51.911,0-77.867c0-0.51,0-1.021,0-1.531c0-7.632-6.368-14-14-14S674.259,75.13,674.259,82.762z"></path></g></g><g><g><path fill="#43BC8F" d="M228.298,181.378c31.177,0,62.353,0,93.53,0c63.66,0,127.32,0,190.98,0c51.339,0,102.678,0,154.017,0    c7.145,0,14.29,0,21.435,0c7.632,0,14-6.368,14-14s-6.368-14-14-14c-31.177,0-62.354,0-93.53,0c-63.659,0-127.319,0-190.979,0    c-51.339,0-102.678,0-154.016,0c-7.145,0-14.29,0-21.435,0c-7.632,0-14,6.368-14,14S220.667,181.378,228.298,181.378    L228.298,181.378z"></path></g></g><g><g><path fill="#43BC8F" d="M688.259,750.004c-31.177,0-62.354,0-93.53,0c-63.659,0-127.319,0-190.979,0    c-51.339,0-102.678,0-154.016,0c-7.145,0-14.29,0-21.435,0c-7.632,0-14,6.368-14,14s6.368,14,14,14c31.177,0,62.353,0,93.53,0    c63.66,0,127.32,0,190.98,0c51.339,0,102.678,0,154.017,0c7.145,0,14.29,0,21.435,0c7.632,0,14-6.368,14-14    S695.891,750.004,688.259,750.004L688.259,750.004z"></path></g></g><g><g><path fill="#43BC8F" d="M369.418,105.436c7.632,0,14-6.368,14-14s-6.368-14-14-14s-14,6.368-14,14    S361.787,105.436,369.418,105.436L369.418,105.436z"></path></g></g><g><g><path fill="#43BC8F" d="M425.256,105.436c22.015,0,44.03,0,66.045,0c7.632,0,14-6.368,14-14s-6.368-14-14-14    c-22.015,0-44.03,0-66.045,0c-7.632,0-14,6.368-14,14S417.625,105.436,425.256,105.436L425.256,105.436z"></path></g></g><g><g><path fill="#43BC8F" d="M476.793,841.021c-0.1,4.818-1.932,9.344-4.975,12.635c-0.396,0.429-4.229,3.564-2.029,1.966    c-1.392,1.012-2.914,1.824-4.443,2.602c2.42-1.23-2.165,0.649-2.782,0.819c-0.859,0.218-1.727,0.399-2.601,0.546    c2.95-0.557-1.358-0.06-1.684-0.053c-0.913,0-1.824-0.038-2.734-0.113c1.486,0.246,1.4,0.219-0.26-0.081    c-1.725-0.325-3.392-0.895-5.036-1.494c2.585,0.942-1.905-1.2-2.413-1.512c-1.326-0.935-1.419-0.959-0.279-0.073    c-0.66-0.542-1.298-1.109-1.914-1.701c-0.429-0.397-3.564-4.229-1.965-2.03c-1.012-1.392-1.824-2.914-2.602-4.443    c1.23,2.421-0.65-2.165-0.82-2.782c-0.217-0.859-0.399-1.726-0.545-2.6c0.556,2.949,0.06-1.36,0.053-1.685    c0-0.913,0.038-1.824,0.113-2.734c-0.246,1.487-0.219,1.4,0.081-0.259c0.325-1.726,0.895-3.393,1.494-5.037    c-0.943,2.586,1.2-1.903,1.511-2.412c0.935-1.326,0.959-1.419,0.073-0.278c0.542-0.66,1.109-1.298,1.701-1.914    c0.397-0.429,4.229-3.564,2.03-1.966c1.392-1.012,2.915-1.824,4.444-2.602c-2.42,1.229,2.166-0.649,2.783-0.819    c0.859-0.218,1.726-0.399,2.601-0.546c-2.949,0.557,1.36,0.06,1.685,0.053c0.913,0,1.824,0.038,2.734,0.113    c-1.487-0.246-1.401-0.219,0.259,0.081c1.725,0.325,3.393,0.895,5.036,1.494c-2.586-0.943,1.904,1.2,2.412,1.512    c1.326,0.935,1.419,0.959,0.278,0.073c0.66,0.542,1.299,1.109,1.914,1.701c0.43,0.397,3.564,4.229,1.966,2.03    c1.012,1.392,1.824,2.914,2.602,4.443c-1.23-2.42,0.649,2.165,0.819,2.782c0.218,0.859,0.399,1.726,0.546,2.6    C476.29,836.388,476.787,840.697,476.793,841.021c0.158,7.629,6.249,14,14,14c7.512,0,14.158-6.368,14-14    c-0.533-25.681-20.832-45.981-46.514-46.515c-25.68-0.533-46,21.634-46.516,46.515c-0.533,25.681,21.635,45.998,46.516,46.515    c25.68,0.533,45.997-21.636,46.514-46.515c0.158-7.632-6.488-14-14-14C483.042,827.021,476.952,833.393,476.793,841.021z"></path></g></g><g display="none"><g display="inline"><path fill="#43BC8F" d="M229.292,855.025c0.461,44.453,36.85,80.073,81.191,80.073c16.214,0,32.429,0,48.644,0    c62.107,0,124.214,0,186.32,0c19.216,0,38.432,0,57.647,0c10.793,0,21.522-1.118,31.703-4.948    c23.778-8.946,41.765-28.301,49.24-52.555c3.475-11.273,3.228-22.798,3.228-34.384c0-13.592,0-27.184,0-40.775    c0-48.653,0-97.307,0-145.959c0-64.143,0-128.284,0-192.426c0-63.866,0-127.732,0-191.598c0-47.825,0-95.651,0-143.477    c0-12.971,0-25.942,0-38.913c0-2.888,0-5.776,0-8.664c0-12.215-2.628-23.523-7.363-34.72    c-9.394-22.213-30.862-38.868-54.023-44.479C617.705,0.221,609.431,0,601.102,0c-20.514,0-41.027,0-61.541,0    C477.66,0,415.758,0,353.856,0c-14.711,0-29.422,0-44.134,0c-43.783,0-80.431,36.261-80.431,80.158c0,21.609,0,43.218,0,64.828    c0,51.128,0,102.257,0,153.386c0,64.883,0,129.766,0,194.649c0,62.873,0,125.747,0,188.62c0,45.099,0,90.197,0,135.296    C229.292,829.633,229.292,842.329,229.292,855.025c0,7.632,6.368,14,14,14s14-6.368,14-14c0-20.29,0-40.581,0-60.871    c0-50.362,0-100.724,0-151.085c0-64.668,0-129.336,0-194.004c0-63.21,0-126.42,0-189.629c0-45.987,0-91.974,0-137.961    c0-11.608,0-23.217,0-34.825c0-2.096,0-4.191,0-6.288c0-0.095,0-0.191,0-0.286c0-2.318,0.143-4.623,0.358-6.929    c-0.276,2.945,0.244-1.428,0.288-1.673c0.314-1.768,0.755-3.51,1.213-5.245c0.34-1.29,0.76-2.558,1.178-3.823    c0.064-0.196,1.631-4.263,0.502-1.593c1.024-2.421,2.263-4.744,3.568-7.023c3.088-5.394,4.098-6.573,9.07-11.45    C283.247,32.752,296.551,28,310.349,28c5.359,0,10.719,0,16.078,0c24.907,0,49.814,0,74.721,0c59.885,0,119.77,0,179.654,0    c7.344,0,14.687,0,22.03,0c1.381,0,2.763,0,4.144,0c2.39,0,4.766,0.136,7.144,0.358c-2.944-0.276,1.429,0.245,1.674,0.288    c1.327,0.236,2.639,0.554,3.948,0.871c1.3,0.315,2.578,0.709,3.855,1.103c0.475,0.146,5.366,1.982,2.856,0.92    c2.421,1.024,4.745,2.263,7.023,3.568c1.135,0.649,2.229,1.366,3.323,2.081c0.172,0.113,3.646,2.625,1.384,0.876    c2.06,1.592,3.975,3.363,5.831,5.184c0.93,0.911,1.804,1.875,2.678,2.839c0.339,0.375,3.486,4.388,1.891,2.237    c1.559,2.1,2.927,4.333,4.224,6.6c0.652,1.14,1.236,2.317,1.819,3.493c0.102,0.205,1.76,4.167,0.692,1.495    c0.988,2.476,1.749,5.037,2.429,7.612c0.345,1.304,0.607,2.626,0.871,3.948c0.168,0.89,0.317,1.784,0.448,2.68    c-0.211-1.462-0.222-1.341-0.032,0.364c0.283,3.021,0.23,6.066,0.23,9.098c0,28.603,0,57.206,0,85.809    c0,55.048,0,110.096,0,165.144c0,65.729,0,131.458,0,197.186c0,60.645,0,121.289,0,181.934c0,39.796,0,79.592,0,119.388    c0,7.153,0,14.306,0,21.459c0,0.15,0,0.3,0,0.449c0,0.481-0.01,0.959-0.015,1.442c-0.015,1.389-0.115,2.773-0.216,4.156    c-0.189,1.705-0.179,1.826,0.032,0.363c-0.131,0.896-0.28,1.789-0.448,2.679c-0.471,2.645-1.184,5.239-1.974,7.804    c-0.392,1.27-0.859,2.514-1.326,3.756c1.01-2.685-0.591,1.279-0.692,1.494c-1.117,2.373-2.445,4.64-3.836,6.859    c-0.692,1.106-1.45,2.17-2.207,3.232c1.547-2.172-1.553,1.85-1.891,2.237c-1.711,1.963-3.59,3.77-5.516,5.517    c-0.965,0.875-1.979,1.691-2.993,2.508c2.222-1.789-1.207,0.756-1.384,0.877c-2.164,1.477-4.453,2.758-6.774,3.967    c-1.168,0.608-2.37,1.146-3.572,1.683c2.48-1.107-2.376,0.763-2.856,0.921c-2.55,0.844-5.172,1.45-7.804,1.975    c-0.235,0.047-4.623,0.626-1.674,0.288c-1.373,0.157-2.754,0.229-4.134,0.301c-1.107,0.058-2.217,0.058-3.325,0.058    c-45.301,0-90.602,0-135.901,0c-51.97,0-103.94,0-155.91,0c-1.709,0-3.418,0-5.127,0c-1.976,0-3.944-0.087-5.915-0.23    c-4.451-0.324,2.663,0.507-1.708-0.179c-1.779-0.278-3.535-0.686-5.284-1.108c-1.3-0.315-2.579-0.71-3.856-1.104    c-0.474-0.146-5.366-1.982-2.856-0.921c-2.421-1.023-4.745-2.264-7.023-3.568c-1.135-0.649-2.229-1.366-3.323-2.081    c-0.723-0.484-1.437-0.981-2.14-1.493c1.094,0.889,1.008,0.821-0.258-0.2c-2.366-1.905-4.54-4.036-6.621-6.244    c-0.893-0.946-1.729-1.945-2.565-2.942c-1.022-1.266-1.089-1.353-0.201-0.259c-0.511-0.703-1.009-1.416-1.492-2.14    c-6.674-9.776-9.08-19.002-9.189-29.604c-0.079-7.631-6.309-14-14-14C235.72,841.025,229.212,847.394,229.292,855.025z"></path></g></g><g display="none"><g display="inline"><path fill="#43BC8F" d="M243.292,153.834c32.795,0,65.59,0,98.386,0c64.201,0,128.403,0,192.604,0c44.332,0,88.665,0,132.997,0    c1.995,0,3.991,0,5.986,0c-4.667-4.667-9.333-9.333-14-14c0,24.242,0,48.484,0,72.726c0,56.777,0,113.555,0,170.332    c0,65.39,0,130.779,0,196.169c0,50.079,0,100.157,0,150.236c0,13.146,0,26.292,0,39.438c4.667-4.667,9.333-9.333,14-14    c-32.795,0-65.59,0-98.386,0c-64.201,0-128.403,0-192.604,0c-44.333,0-88.665,0-132.997,0c-1.996,0-3.991,0-5.987,0    c4.667,4.667,9.333,9.333,14,14c0-24.242,0-48.484,0-72.726c0-56.777,0-113.555,0-170.332c0-65.39,0-130.78,0-196.169    c0-50.079,0-100.158,0-150.236c0-13.146,0-26.292,0-39.438c0-7.632-6.368-14-14-14s-14,6.368-14,14c0,24.242,0,48.484,0,72.726    c0,56.777,0,113.555,0,170.332c0,65.39,0,130.779,0,196.169c0,50.079,0,100.157,0,150.236c0,13.146,0,26.292,0,39.438    c0,7.632,6.368,14,14,14c32.795,0,65.59,0,98.386,0c64.201,0,128.403,0,192.604,0c44.332,0,88.665,0,132.997,0    c1.995,0,3.991,0,5.986,0c7.632,0,14-6.368,14-14c0-24.242,0-48.484,0-72.726c0-56.777,0-113.555,0-170.332    c0-65.39,0-130.78,0-196.169c0-50.079,0-100.158,0-150.236c0-13.146,0-26.292,0-39.438c0-7.632-6.368-14-14-14    c-32.795,0-65.59,0-98.386,0c-64.201,0-128.403,0-192.604,0c-44.333,0-88.665,0-132.997,0c-1.996,0-3.991,0-5.987,0    c-7.632,0-14,6.368-14,14S235.66,153.834,243.292,153.834z"></path></g></g><g display="none"><g display="inline"><path fill="#43BC8F" d="M458.279,69.818c7.632,0,14-6.368,14-14s-6.368-14-14-14s-14,6.368-14,14S450.647,69.818,458.279,69.818    L458.279,69.818z"></path></g></g><g display="none"><g display="inline"><path fill="#43BC8F" d="M488.792,81.438c-20.342,0-40.685,0-61.027,0c-7.632,0-14,6.368-14,14s6.368,14,14,14    c20.342,0,40.685,0,61.027,0c7.632,0,14-6.368,14-14S496.424,81.438,488.792,81.438L488.792,81.438z"></path></g></g><g display="none"><g display="inline"><path fill="#43BC8F" d="M480.351,844.103c-0.012,0.599-0.614,5.858-0.136,3.056c-0.372,2.178-1.064,4.287-1.829,6.354    c0.947-2.561-1.201,1.979-1.494,2.471c-0.453,0.733-0.933,1.45-1.438,2.149c1.62-2.331-0.915,0.901-1.117,1.118    c-0.371,0.398-4.2,3.655-2.029,2.028c-1.731,1.298-3.638,2.339-5.566,3.304c1.356-0.525,1.262-0.497-0.285,0.084    c-1.242,0.46-2.53,0.78-3.814,1.1c-1.661,0.295-1.746,0.354-0.253,0.178c-1.362,0.181-2.739,0.206-4.11,0.231    c-0.619,0.012-5.846-0.612-3.056-0.136c-2.179-0.372-4.288-1.064-6.354-1.829c2.561,0.947-1.978-1.201-2.471-1.494    c-0.733-0.453-1.449-0.933-2.148-1.438c2.33,1.62-0.902-0.915-1.119-1.117c-0.398-0.371-3.655-4.2-2.028-2.029    c-1.297-1.731-2.339-3.638-3.304-5.566c0.525,1.356,0.498,1.262-0.084-0.285c-0.459-1.242-0.78-2.53-1.099-3.814    c-0.295-1.661-0.355-1.746-0.178-0.253c-0.18-1.362-0.206-2.739-0.231-4.11c-0.012-0.619,0.612-5.847,0.136-3.056    c0.372-2.179,1.064-4.288,1.829-6.354c-0.947,2.561,1.202-1.978,1.495-2.471c0.454-0.733,0.933-1.449,1.438-2.148    c-1.62,2.33,0.915-0.902,1.117-1.119c0.371-0.398,4.201-3.655,2.03-2.028c1.731-1.298,3.637-2.339,5.566-3.304    c-1.357,0.525-1.262,0.498,0.284-0.084c1.243-0.46,2.531-0.78,3.814-1.1c1.662-0.295,1.747-0.354,0.254-0.178    c1.362-0.181,2.739-0.206,4.11-0.231c0.619-0.012,5.847,0.612,3.056,0.136c2.178,0.372,4.287,1.064,6.354,1.829    c-2.561-0.948,1.979,1.202,2.471,1.494c0.733,0.454,1.45,0.933,2.149,1.438c-2.331-1.62,0.901,0.915,1.118,1.117    c0.398,0.371,3.655,4.2,2.028,2.03c1.298,1.73,2.339,3.637,3.304,5.566c-0.525-1.357-0.497-1.263,0.084,0.284    c0.46,1.243,0.78,2.531,1.1,3.814c0.295,1.662,0.354,1.746,0.178,0.254C480.3,841.354,480.326,842.731,480.351,844.103    c0.144,7.629,6.26,14,14,14c7.523,0,14.144-6.368,14-14c-0.52-27.613-22.458-49.554-50.072-50.073    c-27.614-0.52-49.568,23.242-50.073,50.073c-0.52,27.613,23.242,49.567,50.073,50.072c27.612,0.52,49.567-23.242,50.072-50.072    c0.144-7.632-6.477-14-14-14C486.611,830.103,480.495,836.474,480.351,844.103z"></path></g></g><g display="none"><g display="inline"><path fill="#43BC8F" d="M667.415,75.758c0,20.094,0,40.188,0,60.282c0,50.004,0,100.008,0,150.012c0,64.497,0,128.993,0,193.49    c0,63.571,0,127.143,0,190.714c0,47.229,0,94.458,0,141.687c0,12.668,0,25.337,0,38.005c0,2.754,0,5.508,0,8.263    c0,0.377,0,0.753,0,1.13c0,2.32-0.166,4.623-0.417,6.929c0.321-2.95-0.366,1.428-0.414,1.658c-0.273,1.323-0.64,2.626-1.006,3.927    c-1.466,5.213-2.783,7.767-6.583,13.472c-0.092,0.139-2.714,3.592-0.991,1.43c-0.83,1.041-1.725,2.029-2.617,3.016    c-1.791,1.978-3.764,3.782-5.783,5.521c-3.276,2.818,2.107-1.458-1.394,1.085c-1.085,0.788-2.217,1.509-3.347,2.229    c-2.651,1.687-5.469,3.096-8.332,4.381c2.553-1.146-1.556,0.493-1.703,0.545c-1.283,0.451-2.594,0.82-3.903,1.188    c-1.315,0.37-2.654,0.655-3.991,0.94c-0.201,0.043-4.638,0.711-1.718,0.352c-2.39,0.295-4.809,0.389-7.215,0.389    c-4.169,0-8.337,0-12.506,0c-22.596,0-45.192,0-67.788,0c-62.463,0-124.926,0-187.389,0c-17.143,0-34.285,0-51.427,0    c-11.479,0-18.952-1.676-28.667-7.795c-12.8-8.062-21.08-23.694-21.08-39.372c0-21.586,0-43.173,0-64.76    c0-50.88,0-101.76,0-152.639c0-64.756,0-129.512,0-194.267c0-63.214,0-126.428,0-189.642c0-46.254,0-92.509,0-138.763    c0-11.95,0-23.899,0-35.849c0-2.337,0-4.674,0-7.012c0-12.53,4.621-24.097,12.874-32.892    c9.437-10.056,21.603-14.712,35.217-14.712c5.1,0,10.2,0,15.3,0c23.778,0,47.556,0,71.333,0c62.1,0,124.199,0,186.298,0    c15.136,0,30.271,0,45.406,0c0.884,0,1.768,0,2.651,0c7.628,0,15.67,2.001,21.962,5.147c2.003,1.001,3.92,2.167,5.809,3.369    c1.13,0.719,2.214,1.507,3.298,2.294c-2.217-1.61,1.204,1.069,1.322,1.17c2.021,1.74,3.877,3.663,5.665,5.637    c0.106,0.117,2.852,3.497,1.17,1.293c0.808,1.058,1.546,2.166,2.282,3.272c3.232,4.854,4.155,7.172,5.452,11.079    c0.853,2.571,1.435,5.222,1.919,7.883c-0.531-2.914,0.14,1.489,0.16,1.733C667.381,72.967,667.398,74.364,667.415,75.758    c0.093,7.63,6.299,14,14,14c7.562,0,14.093-6.368,14-14c-0.519-42.792-37.318-75.059-79.089-75.059c-16.379,0-32.758,0-49.137,0    c-62.3,0-124.599,0-186.898,0c-23.196,0-46.392,0-69.588,0c-4.639,0-9.278,0-13.917,0c-19.756,0-38.355,7.588-52.726,21.072    c-14.694,13.787-22.917,34.126-22.917,54.156c0,1.914,0,3.828,0,5.742c0,11.219,0,22.438,0,33.656c0,45.255,0,90.511,0,135.767    c0,62.831,0,125.663,0,188.494c0,64.989,0,129.979,0,194.97c0,51.73,0,103.461,0,155.192c0,23.054,0,46.108,0,69.162    c0,41.124,33.964,75.49,75.206,75.49c13.143,0,26.286,0,39.429,0c61.281,0,122.563,0,183.844,0c25.414,0,50.828,0,76.242,0    c6.43,0,12.859,0,19.288,0c12.899,0,24.942-2.491,36.743-7.79c23.483-10.544,39.566-33.826,42.921-58.982    c0.513-3.846,0.599-7.641,0.599-11.495c0-9.72,0-19.44,0-29.16c0-43.184,0-86.367,0-129.55c0-61.993,0-123.985,0-185.979    c0-65.384,0-130.769,0-196.153c0-53.359,0-106.718,0-160.077c0-25.916,0-51.831,0-77.747c0-0.57,0-1.139,0-1.709    c0-7.632-6.368-14-14-14S667.415,68.126,667.415,75.758z"></path></g></g><g display="none"><g display="inline"><path fill="#43BC8F" d="M681.415,762.094c-31.853,0-63.704,0-95.557,0c-63.902,0-127.805,0-191.707,0    c-48.471,0-96.941,0-145.412,0c-4.532,0-9.064,0-13.596,0c4.667,4.667,9.333,9.333,14,14c0-23.971,0-47.941,0-71.913    c0-56.391,0-112.782,0-169.173c0-65.53,0-131.059,0-196.589c0-51.385,0-102.771,0-154.157c0-15.285,0-30.571,0-45.856    c-4.667,4.667-9.333,9.333-14,14c31.852,0,63.705,0,95.557,0c63.902,0,127.805,0,191.707,0c48.471,0,96.941,0,145.412,0    c4.531,0,9.063,0,13.596,0c-4.667-4.667-9.333-9.333-14-14c0,23.971,0,47.942,0,71.913c0,56.391,0,112.782,0,169.174    c0,65.529,0,131.059,0,196.588c0,51.386,0,102.771,0,154.157c0,15.285,0,30.571,0,45.856c0,7.632,6.368,14,14,14s14-6.368,14-14    c0-23.971,0-47.941,0-71.913c0-56.391,0-112.782,0-169.173c0-65.53,0-131.059,0-196.589c0-51.385,0-102.771,0-154.157    c0-15.285,0-30.571,0-45.856c0-7.632-6.368-14-14-14c-31.853,0-63.704,0-95.557,0c-63.902,0-127.805,0-191.707,0    c-48.471,0-96.941,0-145.412,0c-4.532,0-9.064,0-13.596,0c-7.632,0-14,6.368-14,14c0,23.971,0,47.942,0,71.913    c0,56.391,0,112.782,0,169.174c0,65.529,0,131.059,0,196.588c0,51.386,0,102.771,0,154.157c0,15.285,0,30.571,0,45.856    c0,7.632,6.368,14,14,14c31.852,0,63.705,0,95.557,0c63.902,0,127.805,0,191.707,0c48.471,0,96.941,0,145.412,0    c4.531,0,9.063,0,13.596,0c7.632,0,14-6.368,14-14S689.046,762.094,681.415,762.094z"></path></g></g><g display="none"><g display="inline"><path fill="#43BC8F" d="M458.279,70.613c7.632,0,14-6.368,14-14s-6.368-14-14-14s-14,6.368-14,14S450.647,70.613,458.279,70.613    L458.279,70.613z"></path></g></g><g display="none"><g display="inline"><path fill="#43BC8F" d="M387.305,108.448c7.632,0,14-6.368,14-14s-6.368-14-14-14s-14,6.368-14,14    S379.673,108.448,387.305,108.448L387.305,108.448z"></path></g></g><g display="none"><g display="inline"><path fill="#43BC8F" d="M431.34,108.448c17.958,0,35.917,0,53.876,0c7.632,0,14-6.368,14-14s-6.368-14-14-14    c-17.959,0-35.917,0-53.876,0c-7.632,0-14,6.368-14,14S423.708,108.448,431.34,108.448L431.34,108.448z"></path></g></g><g display="none"><g display="inline"><path fill="#43BC8F" d="M472.564,848.479c-0.007,0.281-0.496,4.677-0.01,1.738c-0.29,1.755-0.861,3.448-1.467,5.114    c0.973-2.675-0.758,1.055-0.918,1.327c-0.929,1.336-0.95,1.443-0.066,0.323c-0.546,0.664-1.12,1.303-1.724,1.915    c-0.21,0.224-3.38,2.827-1.088,1.137c-1.389,1.024-2.929,1.818-4.476,2.569c2.592-1.259-1.271,0.221-1.59,0.307    c-1.652,0.314-1.728,0.372-0.224,0.172c-0.905,0.088-1.813,0.132-2.724,0.132c-0.362,0.009-4.618-0.524-1.653-0.018    c-0.568-0.098-5.418-1.682-2.884-0.593c-1.189-0.511-2.301-1.185-3.405-1.853c-1.333-0.928-1.424-0.961-0.273-0.103    c-0.655-0.555-1.283-1.139-1.886-1.751c-0.234-0.228-2.716-3.434-1.083-1.15c-0.326-0.455-2.669-4.927-1.624-2.415    c-0.511-1.228-0.85-2.518-1.186-3.8c-0.311-1.659-0.365-1.755-0.161-0.285c-0.086-0.921-0.129-1.843-0.129-2.768    c-0.102-4.361,1.543-7.611,4.184-10.417c0.21-0.224,3.381-2.827,1.088-1.137c1.389-1.024,2.929-1.818,4.476-2.569    c-2.592,1.259,1.271-0.221,1.59-0.307c1.652-0.314,1.727-0.371,0.223-0.172c0.906-0.088,1.814-0.132,2.724-0.132    c0.362-0.009,4.618,0.524,1.653,0.019c0.568,0.097,5.418,1.681,2.884,0.592c1.189,0.511,2.301,1.184,3.405,1.853    c1.333,0.927,1.424,0.961,0.272,0.103c0.655,0.555,1.284,1.139,1.886,1.751c0.235,0.228,2.717,3.434,1.084,1.15    c0.326,0.455,2.67,4.927,1.624,2.415c0.511,1.228,0.85,2.517,1.186,3.799c0.312,1.659,0.365,1.755,0.161,0.286    C472.521,846.633,472.564,847.556,472.564,848.479c0.179,7.628,6.233,14,14,14c7.496,0,14.179-6.368,14-14    c-0.55-23.462-18.705-42.163-42.285-42.733c-23.576-0.57-41.756,20.134-42.285,42.733c-0.55,23.459,19.532,42.185,42.285,42.734    c23.576,0.57,41.756-20.135,42.285-42.734c0.179-7.632-6.504-14-14-14C478.797,834.479,472.743,840.852,472.564,848.479z"></path></g></g><g display="none"><g display="inline"><path fill="#43BC8F" d="M201.615,71.21c0.017-1.401,0.068-2.792,0.154-4.191c0.273-4.448-0.528,2.621,0.171-1.734    c0.428-2.666,1.145-5.276,1.954-7.848c0.059-0.188,1.606-4.279,0.484-1.627c0.515-1.217,1.115-2.396,1.715-3.573    c0.598-1.172,1.276-2.301,1.955-3.428c0.253-0.421,3.196-4.63,1.57-2.528c1.6-2.069,3.41-3.965,5.278-5.791    c0.935-0.914,1.932-1.761,2.927-2.607c3.223-2.739-2.123,1.468,1.344-0.963c2.155-1.511,4.461-2.791,6.803-3.983    c0.203-0.103,4.163-1.758,1.511-0.71c1.659-0.655,3.369-1.17,5.081-1.664c1.299-0.374,2.623-0.653,3.944-0.932    c0.233-0.049,4.615-0.625,1.693-0.301c1.849-0.205,3.723-0.273,5.582-0.273c0.225,0,0.45,0,0.675,0c1.357,0,2.715,0,4.072,0    c15.75,0,31.5,0,47.25,0c60.156,0,120.313,0,180.469,0c55.53,0,111.06,0,166.59,0c9.968,0,19.936,0,29.902,0    c0.961,0,1.893,0.033,2.853,0.069c0.197,0.007,4.727,0.44,1.773,0.04c1.349,0.183,2.682,0.464,4.013,0.745    c2.626,0.554,5.184,1.391,7.698,2.316c-2.663-0.979,1.295,0.606,1.511,0.71c1.583,0.76,3.101,1.649,4.604,2.553    c1.124,0.676,2.199,1.43,3.272,2.183c-2.298-1.611,1.089,0.906,1.268,1.058c1.992,1.693,3.803,3.589,5.539,5.539    c0.147,0.166,2.729,3.538,1.058,1.268c0.778,1.056,1.481,2.165,2.183,3.272c0.705,1.112,1.33,2.271,1.954,3.428    c0.248,0.46,2.29,5.169,1.309,2.686c0.987,2.497,1.7,5.09,2.316,7.698c0.313,1.325,0.529,2.67,0.745,4.013    c-0.471-2.932,0.026,1.564,0.04,1.773c0.062,1,0.068,2.003,0.068,3.005c0,0.643,0,1.287,0,1.93c0,26.344,0,52.688,0,79.031    c0,53.363,0,106.726,0,160.088c0,65.33,0,130.659,0,195.989c0,62.243,0,124.487,0,186.73c0,44.106,0,88.212,0,132.317    c0,10.547,0,21.094,0,31.641c0,1.574,0,3.148,0,4.723c0,0.971-0.033,1.858-0.068,2.829c-0.008,0.197-0.441,4.727-0.04,1.773    c-0.184,1.349-0.465,2.682-0.745,4.013c-0.554,2.626-1.391,5.183-2.316,7.697c0.98-2.663-0.605,1.295-0.71,1.512    c-0.76,1.583-1.648,3.1-2.553,4.603c-0.676,1.124-1.43,2.199-2.183,3.272c1.611-2.297-0.906,1.089-1.058,1.268    c-1.693,1.992-3.589,3.803-5.539,5.539c-0.166,0.147-3.538,2.729-1.268,1.058c-1.057,0.778-2.165,1.481-3.272,2.183    c-1.111,0.705-2.271,1.33-3.428,1.954c-0.46,0.249-5.169,2.29-2.687,1.31c-2.496,0.986-5.09,1.699-7.698,2.315    c-1.324,0.313-2.67,0.529-4.013,0.745c2.932-0.471-1.563,0.026-1.773,0.04c-1.057,0.064-2.116,0.068-3.174,0.068    c-1.167,0-2.334,0-3.501,0c-5.679,0-11.357,0-17.037,0c-21.927,0-43.854,0-65.781,0c-63.644,0-127.287,0-190.931,0    c-47.195,0-94.391,0-141.586,0c-3.206,0-6.411,0-9.616,0c-1.929,0-3.845-0.107-5.766-0.272c2.914,0.251-1.445-0.255-1.693-0.301    c-1.329-0.247-2.637-0.59-3.944-0.933c-1.295-0.34-2.564-0.772-3.831-1.204c-1.542-0.604-1.664-0.621-0.363-0.053    c-0.808-0.354-1.607-0.726-2.398-1.117c-9.454-4.538-15.083-10.412-19.877-19.3c-0.627-1.163-1.171-2.369-1.715-3.573    c1.18,2.615-0.417-1.43-0.484-1.627c-0.871-2.556-1.461-5.197-1.954-7.848c-0.806-4.34,0.211,2.707-0.171-1.734    c-0.12-1.394-0.137-2.793-0.154-4.19c0-0.027,0-0.055,0-0.082c0-0.535,0-1.071,0-1.606c0-3.028,0-6.057,0-9.084    c0-33.892,0-67.782,0-101.674c0-57.447,0-114.896,0-172.344c0-65.952,0-131.905,0-197.858c0-59.405,0-118.81,0-178.214    c0-37.805,0-75.609,0-113.414C201.615,83.479,201.615,77.344,201.615,71.21c0-7.632-6.368-14-14-14s-14,6.368-14,14    c0,19.882,0,39.764,0,59.645c0,49.61,0,99.221,0,148.831c0,64.286,0,128.572,0,192.858c0,63.91,0,127.82,0,191.73    c0,48.481,0,96.963,0,145.444c0,13.751,0,27.502,0,41.253c0,9.804-0.198,19.222,1.854,28.948    c5.244,24.854,25.635,44.696,49.65,51.614c7.474,2.153,15.237,2.506,22.954,2.506c15.451,0,30.901,0,46.352,0    c59.943,0,119.886,0,179.829,0c55.831,0,111.662,0,167.492,0c10.311,0,20.621,0,30.932,0c38.848,0,70.265-32.396,70.265-70.955    c0-23.889,0-47.777,0-71.666c0-51.962,0-103.923,0-155.884c0-64.982,0-129.964,0-194.946c0-62.95,0-125.899,0-188.849    c0-45.865,0-91.73,0-137.595c0-11.822,0-23.645,0-35.466c0-2.31,0-4.621,0-6.931c0-17.304-6.223-32.956-17.027-46.282    c-12.718-15.686-33.48-24.409-53.433-24.409c-3.391,0-6.781,0-10.172,0c-18.603,0-37.205,0-55.808,0c-62.007,0-124.014,0-186.02,0    c-52.241,0-104.481,0-156.721,0c-6.627,0-13.255,0-19.882,0c-38.568,0-69.794,31.9-70.264,70.153c-0.094,7.632,6.439,14,14,14    C195.318,85.21,201.521,78.841,201.615,71.21z"></path></g></g><g display="none"><g display="inline"><path fill="#43BC8F" d="M674.514,383.729c-32.633,0-65.266,0-97.897,0c-64.147,0-128.295,0-192.442,0    c-45.036,0-90.072,0-135.108,0c-2.341,0-4.682,0-7.023,0c4.667,4.667,9.333,9.333,14,14c0-39.506,0-79.011,0-118.517    c0-59.772,0-119.545,0-179.318c0-10.037,0-20.075,0-30.112c-4.667,4.667-9.333,9.333-14,14c32.633,0,65.265,0,97.898,0    c64.147,0,128.294,0,192.442,0c45.035,0,90.071,0,135.107,0c2.341,0,4.683,0,7.023,0c-4.667-4.667-9.333-9.333-14-14    c0,39.506,0,79.011,0,118.517c0,59.772,0,119.545,0,179.318c0,10.037,0,20.075,0,30.112c0,7.632,6.368,14,14,14s14-6.368,14-14    c0-39.506,0-79.011,0-118.517c0-59.772,0-119.545,0-179.318c0-10.037,0-20.075,0-30.112c0-7.632-6.368-14-14-14    c-32.633,0-65.266,0-97.897,0c-64.147,0-128.295,0-192.442,0c-45.036,0-90.072,0-135.108,0c-2.341,0-4.682,0-7.023,0    c-7.632,0-14,6.368-14,14c0,39.506,0,79.011,0,118.517c0,59.772,0,119.545,0,179.318c0,10.037,0,20.075,0,30.112    c0,7.632,6.368,14,14,14c32.633,0,65.265,0,97.898,0c64.147,0,128.294,0,192.442,0c45.035,0,90.071,0,135.107,0    c2.341,0,4.683,0,7.023,0c7.632,0,14-6.368,14-14S682.146,383.729,674.514,383.729z"></path></g></g><g display="none"><g display="inline"><path fill="#43BC8F" d="M611.549,661.536c-0.053,12.858-0.897,20.625-3.319,31.984c-1.126,5.281-2.572,10.49-4.207,15.635    c-0.811,2.552-1.714,5.072-2.646,7.581c-0.465,1.25-0.96,2.488-1.454,3.727c-0.63,1.53-0.674,1.644-0.13,0.339    c-0.352,0.813-0.709,1.623-1.074,2.431c-4.486,10.045-10.085,19.573-16.452,28.536c-0.761,1.071-1.546,2.123-2.331,3.176    c-2.582,3.459,1.654-2.063-1.032,1.312c-1.634,2.052-3.339,4.046-5.067,6.019c-3.741,4.273-7.747,8.311-11.9,12.183    c-8.399,7.831-13.941,11.927-24.409,18.301c-4.515,2.749-9.189,5.229-13.943,7.537c-1.193,0.58-2.4,1.131-3.607,1.681    c-0.17,0.078-4.187,1.809-1.536,0.699c-2.873,1.202-5.794,2.288-8.729,3.326c-5.075,1.795-10.257,3.28-15.48,4.573    c-2.638,0.653-5.299,1.209-7.965,1.731c-1.341,0.263-2.688,0.493-4.034,0.723c-0.491,0.084-5.832,0.843-3.073,0.488    c-11.556,1.487-23.267,1.626-34.873,0.713c-1.381-0.108-2.76-0.252-4.138-0.395c-0.188-0.02-4.699-0.585-1.75-0.181    c-2.712-0.372-5.41-0.844-8.101-1.349c-5.765-1.082-11.455-2.538-17.072-4.223c-5.125-1.537-10.153-3.384-15.104-5.408    c2.658,1.087-1.364-0.622-1.537-0.699c-1.211-0.541-2.409-1.11-3.607-1.681c-2.788-1.326-5.522-2.763-8.231-4.241    c-4.626-2.525-9.101-5.322-13.466-8.271c-5.844-3.948-6.961-4.898-11.759-8.97c-8.333-7.07-15.88-15.039-22.682-23.583    c1.764,2.216-0.89-1.188-1-1.337c-0.786-1.053-1.547-2.124-2.308-3.195c-1.523-2.145-2.971-4.342-4.391-6.556    c-3.09-4.814-5.874-9.819-8.453-14.924c-1.196-2.367-2.308-4.776-3.389-7.198c-1.783-3.99,0.995,2.495-0.662-1.557    c-0.505-1.234-0.979-2.48-1.455-3.727c-2.072-5.438-3.791-11.005-5.28-16.628c-1.394-5.261-2.463-10.604-3.334-15.974    c-0.032-0.193-0.648-4.666-0.269-1.722c-0.176-1.37-0.319-2.745-0.461-4.119c-0.335-3.232-0.536-6.478-0.684-9.723    c-0.256-5.619-0.164-11.249,0.139-16.863c0.149-2.775,0.401-5.543,0.688-8.307c0.02-0.188,0.585-4.698,0.181-1.749    c0.248-1.811,0.548-3.614,0.855-5.415c1.892-11.081,5.041-21.927,9.125-32.391c0.067-0.173,1.754-4.221,0.624-1.576    c0.522-1.222,1.074-2.43,1.625-3.638c1.1-2.411,2.286-4.781,3.499-7.136c2.619-5.081,5.556-9.992,8.68-14.776    c6.037-9.245,10.756-14.922,19.331-23.563c8.578-8.645,14.374-13.227,23.563-19.331c4.394-2.918,8.957-5.575,13.606-8.064    c2.334-1.25,4.712-2.417,7.103-3.554c1.199-0.57,2.411-1.112,3.623-1.653c1.517-0.656,1.625-0.708,0.324-0.157    c0.821-0.34,1.644-0.673,2.47-0.999c10.439-4.171,21.333-7.144,32.391-9.124c1.348-0.242,2.702-0.45,4.056-0.658    c4.464-0.688-2.764,0.316,1.736-0.226c2.754-0.331,5.52-0.56,8.287-0.755c6.075-0.428,12.173-0.451,18.256-0.225    c2.785,0.104,5.566,0.311,8.343,0.552c1.379,0.12,2.754,0.274,4.129,0.428c4.504,0.505-2.733-0.425,1.736,0.226    c5.838,0.849,11.616,2.079,17.329,3.543c17.829,4.567,30.362,10.299,46.242,20.667c1.835,1.198,3.631,2.454,5.417,3.723    c0.712,0.51,1.42,1.025,2.124,1.546c0.148,0.109,3.568,2.749,1.337,1.001c3.441,2.695,6.743,5.564,9.963,8.52    c6.44,5.911,12.343,12.393,17.784,19.228c-0.843-1.109-0.771-1.015,0.216,0.285c0.793,1.046,1.563,2.111,2.331,3.176    c1.283,1.776,2.51,3.592,3.723,5.417c2.431,3.66,4.673,7.442,6.808,11.281c2.146,3.857,4.091,7.823,5.922,11.838    c0.365,0.808,0.723,1.617,1.074,2.431c-1.15-2.634,0.555,1.402,0.624,1.576c0.826,2.067,1.585,4.16,2.327,6.259    c3.005,8.498,5.209,17.265,6.797,26.132c0.157,0.898,0.308,1.799,0.45,2.7c0.031,0.193,0.647,4.666,0.269,1.722    c0.294,2.287,0.513,4.584,0.713,6.881C611.376,652.194,611.53,656.866,611.549,661.536c0.031,7.631,6.345,14,14,14    c7.607,0,14.031-6.368,14-14c-0.196-47.529-18.962-93.254-52.17-127.247c-33.067-33.85-79.122-53.025-126.277-54    c-47.46-0.981-93.848,17.804-128.188,50.322c-34.327,32.505-54.061,78.239-55.812,125.291    c-1.77,47.532,16.439,94.204,48.458,129.089c31.942,34.803,77.343,55.081,124.288,57.606c47.59,2.561,94.528-15.069,129.95-46.577    c35.274-31.378,56.087-76.432,59.383-123.264c0.263-3.734,0.354-7.479,0.37-11.221c0.031-7.632-6.393-14-14-14    C617.894,647.536,611.581,653.905,611.549,661.536z"></path></g></g><g display="none"><g display="inline"><path fill="#43BC8F" d="M504.591,662.13c-0.016,1.399-0.063,2.79-0.143,4.188c-0.013,0.22-0.565,4.693-0.125,1.739    c-0.398,2.672-1.066,5.296-1.821,7.887c-1.501,5.153-2.768,7.575-6.577,13.247c-0.122,0.183-2.732,3.549-0.954,1.342    c-0.819,1.017-1.702,1.979-2.584,2.939c-1.765,1.924-3.712,3.672-5.707,5.351c2.16-1.817-1.153,0.822-1.341,0.955    c-1.072,0.754-2.191,1.438-3.31,2.119c-1.123,0.686-2.288,1.296-3.452,1.906c-0.783,0.399-1.575,0.781-2.376,1.146    c1.324-0.529,1.216-0.49-0.324,0.116c-2.495,0.975-5.08,1.696-7.68,2.328c-1.318,0.32-2.657,0.551-3.993,0.781    c2.932-0.506-1.508,0.105-1.74,0.125c-2.786,0.223-5.587,0.158-8.374,0c-0.22-0.013-4.694-0.565-1.739-0.125    c-1.787-0.267-3.549-0.674-5.303-1.1c-2.596-0.631-5.122-1.521-7.607-2.493c2.675,1.045-1.263-0.68-1.463-0.779    c-1.178-0.585-2.315-1.246-3.452-1.906c-5.355-3.11-6.551-4.275-11.239-9.386c-0.138-0.15-2.865-3.452-1.128-1.197    c-0.798-1.037-1.528-2.124-2.257-3.21c-1.466-2.183-2.714-4.502-3.882-6.854c-1.903-3.835,0.888,2.484-0.677-1.52    c-0.485-1.242-0.887-2.515-1.288-3.786c-0.405-1.281-0.723-2.589-1.04-3.894c-0.123-0.508-1.004-5.762-0.654-2.983    c-0.349-2.766-0.41-5.558-0.378-8.34c0.016-1.391,0.126-2.777,0.237-4.163c0.355-4.44-0.504,2.646,0.245-1.701    c0.458-2.655,1.183-5.255,1.992-7.82c0.401-1.27,0.885-2.51,1.369-3.748c-0.982,2.513,1.153-2.177,1.391-2.63    c4.921-9.392,10.362-14.498,19.596-19.596c1.154-0.638,2.349-1.198,3.542-1.758c-2.597,1.219,1.357-0.494,1.573-0.572    c2.523-0.922,5.131-1.587,7.751-2.161c0.225-0.05,4.613-0.737,1.663-0.365c1.373-0.173,2.756-0.252,4.137-0.331    c3.248-0.186,6.505-0.002,9.736,0.331c-2.947-0.304,1.426,0.318,1.662,0.365c1.762,0.345,3.493,0.827,5.215,1.329    c1.706,0.496,3.369,1.125,5.022,1.771c-2.513-0.982,2.177,1.153,2.63,1.391c6.742,3.532,8.402,5.097,13.525,10.681    c0.139,0.15,2.865,3.452,1.129,1.197c1.064,1.383,2.023,2.844,2.964,4.313c0.945,1.476,1.776,3.021,2.589,4.571    c0.4,0.784,0.782,1.575,1.147,2.376c-0.529-1.324-0.49-1.216,0.116,0.324c1.139,2.915,1.948,5.947,2.617,9    c0.185,0.888,0.349,1.778,0.492,2.673c-0.177-1.466-0.172-1.346,0.014,0.36C504.529,658.413,504.57,660.273,504.591,662.13    c0.087,7.63,6.303,14,14,14c7.565,0,14.087-6.368,14-14c-0.296-25.917-13.542-49.316-35.311-63.261    c-22.045-14.122-50.401-14.021-73.434-2.589c-23.106,11.468-37.045,35.214-39.627,60.283    c-2.679,26.016,10.616,50.36,30.744,65.863c22.164,17.07,53.322,17.674,77.746,5.553c24.566-12.191,39.574-38.864,39.882-65.85    c0.087-7.632-6.435-14-14-14C510.894,648.13,504.678,654.5,504.591,662.13z"></path></g></g><g display="none"><g display="inline"><path fill="#43BC8F" d="M650.744,904.177c-35.456,0-70.912,0-106.369,0c-63.842,0-127.685,0-191.527,0    c-29.011,0-58.022,0-87.034,0c4.667,4.667,9.333,9.333,14,14c0-17.777,0-35.555,0-53.331c0-45.552,0-91.104,0-136.655    c0-61.655,0-123.312,0-184.968c0-66.091,0-132.181,0-198.271c0-58.855,0-117.71,0-176.566c0-39.95,0-79.9,0-119.85    c0-10.538,0-21.076,0-31.613c-4.667,4.667-9.333,9.333-14,14c35.456,0,70.913,0,106.369,0c63.842,0,127.685,0,191.528,0    c29.011,0,58.021,0,87.033,0c-4.667-4.667-9.333-9.333-14-14c0,17.777,0,35.554,0,53.332c0,45.551,0,91.103,0,136.654    c0,61.656,0,123.312,0,184.968c0,66.09,0,132.181,0,198.272c0,58.854,0,117.71,0,176.565c0,39.95,0,79.899,0,119.85    c0,10.538,0,21.075,0,31.613c0,7.632,6.368,14,14,14s14-6.368,14-14c0-17.777,0-35.555,0-53.331c0-45.552,0-91.104,0-136.655    c0-61.655,0-123.312,0-184.968c0-66.091,0-132.181,0-198.271c0-58.855,0-117.71,0-176.566c0-39.95,0-79.9,0-119.85    c0-10.538,0-21.076,0-31.613c0-7.632-6.368-14-14-14c-35.456,0-70.912,0-106.369,0c-63.842,0-127.685,0-191.527,0    c-29.011,0-58.022,0-87.034,0c-7.632,0-14,6.368-14,14c0,17.777,0,35.554,0,53.332c0,45.551,0,91.103,0,136.654    c0,61.656,0,123.312,0,184.968c0,66.09,0,132.181,0,198.272c0,58.854,0,117.71,0,176.565c0,39.95,0,79.899,0,119.85    c0,10.538,0,21.075,0,31.613c0,7.632,6.368,14,14,14c35.456,0,70.913,0,106.369,0c63.842,0,127.685,0,191.528,0    c29.011,0,58.021,0,87.033,0c7.632,0,14-6.368,14-14S658.375,904.177,650.744,904.177z"></path></g></g><g display="none"><g display="inline"><path fill="#43BC8F" d="M604.194,455.55c-42.324,0-84.649,0-126.974,0c-52.883,0-105.765,0-158.648,0c-2.069,0-4.139,0-6.208,0    c4.667,4.667,9.333,9.333,14,14c0-34.137,0-68.274,0-102.412c0-64.216,0-128.433,0-192.649c0-37.002,0-74.004,0-111.006    c0-0.108,0-0.216,0-0.324c-4.667,4.667-9.333,9.333-14,14c42.325,0,84.649,0,126.974,0c52.883,0,105.766,0,158.647,0    c2.07,0,4.14,0,6.209,0c-4.667-4.667-9.333-9.333-14-14c0,34.137,0,68.274,0,102.412c0,64.216,0,128.433,0,192.649    c0,37.002,0,74.004,0,111.006c0,0.108,0,0.216,0,0.324c0,7.632,6.368,14,14,14s14-6.368,14-14c0-34.137,0-68.274,0-102.412    c0-64.216,0-128.433,0-192.649c0-37.002,0-74.004,0-111.006c0-0.108,0-0.216,0-0.324c0-7.632-6.368-14-14-14    c-42.324,0-84.649,0-126.974,0c-52.883,0-105.765,0-158.648,0c-2.069,0-4.139,0-6.208,0c-7.632,0-14,6.368-14,14    c0,34.137,0,68.274,0,102.412c0,64.216,0,128.433,0,192.649c0,37.002,0,74.004,0,111.006c0,0.108,0,0.216,0,0.324    c0,7.632,6.368,14,14,14c42.325,0,84.649,0,126.974,0c52.883,0,105.766,0,158.647,0c2.07,0,4.14,0,6.209,0c7.632,0,14-6.368,14-14    S611.826,455.55,604.194,455.55z"></path></g></g><g display="none"><g display="inline"><path fill="#43BC8F" d="M569.703,697.699c-0.016,2.809-0.107,5.609-0.277,8.413c-0.085,1.387-0.215,2.77-0.344,4.152    c-0.019,0.19-0.575,4.702-0.167,1.753c-0.808,5.834-2.121,11.589-3.744,17.246c-0.739,2.578-1.603,5.118-2.507,7.643    c-0.45,1.256-0.94,2.497-1.43,3.738c-1.604,4.063,1.099-2.435-0.674,1.548c-2.329,5.233-5.1,10.262-8.121,15.123    c-10.604,17.06-25.852,30.67-44.883,40.382c-1.18,0.602-2.379,1.167-3.577,1.73c-0.172,0.081-4.171,1.836-1.522,0.724    c-2.462,1.034-4.972,1.948-7.494,2.821c-5.532,1.915-11.223,3.346-16.966,4.464c-1.342,0.262-2.692,0.479-4.042,0.695    c-4.448,0.716,2.76-0.297-1.734,0.226c-2.763,0.32-5.54,0.504-8.316,0.642c-6.065,0.302-12.148,0.07-18.191-0.498    c-0.19-0.018-4.702-0.574-1.752-0.166c-1.357-0.188-2.708-0.42-4.057-0.652c-2.68-0.461-5.335-1.053-7.978-1.688    c-5.656-1.359-11.186-3.205-16.592-5.34c-4.063-1.604,2.434,1.099-1.549-0.674c-1.211-0.539-2.405-1.117-3.599-1.694    c-2.379-1.151-4.703-2.415-7.004-3.715c-2.294-1.296-4.525-2.699-6.732-4.137c-1.102-0.717-2.181-1.469-3.259-2.22    c-0.391-0.272-4.526-3.357-2.431-1.729c-4.141-3.219-8.025-6.756-11.731-10.462c-1.853-1.854-3.619-3.792-5.353-5.757    c-0.868-0.983-1.704-1.993-2.541-3.002c-0.555-0.677-1.102-1.358-1.642-2.046c0.853,1.102,0.788,1.002-0.194-0.301    c-3.144-4.224-5.952-8.689-8.541-13.271c-1.301-2.304-2.491-4.667-3.643-7.048c-0.578-1.194-1.118-2.407-1.657-3.619    c1.092,2.454-0.925-2.363-1.1-2.821c-1.922-5.023-3.435-10.195-4.69-15.422c-0.637-2.648-1.143-5.326-1.604-8.01    c-0.034-0.196-0.657-4.658-0.283-1.716c-0.233-1.831-0.396-3.67-0.548-5.51c-1-12.07-0.138-22.572,1.844-32.189    c1.088-5.281,2.604-10.468,4.367-15.561c2.085-6.025,2.748-7.368,6.053-13.679c5.644-10.776,10.178-16.801,17.708-24.815    c14.614-15.553,31.857-25.608,52.104-31.178c4.371-1.202,8.821-2.093,13.294-2.813c1.688-0.247,1.81-0.269,0.364-0.065    c1.372-0.174,2.749-0.304,4.126-0.433c2.315-0.218,4.639-0.333,6.962-0.422c4.676-0.181,9.361-0.027,14.026,0.307    c0.922,0.071,1.844,0.153,2.764,0.244c0.19,0.019,4.702,0.575,1.753,0.167c2.707,0.374,5.394,0.882,8.069,1.434    c4.407,0.907,8.744,2.125,13.025,3.504c2.121,0.684,4.212,1.458,6.292,2.254c0.828,0.321,1.652,0.652,2.473,0.991    c-2.658-1.083,1.348,0.645,1.522,0.725c4.007,1.834,7.883,3.943,11.671,6.189c1.888,1.119,3.727,2.316,5.552,3.532    c1.094,0.729,2.165,1.491,3.234,2.253c0.15,0.107,3.601,2.707,1.362,0.968c6.902,5.364,13.146,11.544,18.788,18.211    c0.561,0.67,1.115,1.346,1.662,2.028c2.713,3.344-1.562-2.129,1.011,1.327c1.308,1.757,2.541,3.567,3.755,5.391    c2.683,4.025,5.064,8.244,7.263,12.551c3.406,6.676,5.96,13.647,8.297,22.924c0.553,2.195,1.01,4.414,1.442,6.636    c0.169,0.895,0.329,1.792,0.479,2.69c0.033,0.196,0.657,4.658,0.282,1.716C569.423,687.464,569.674,692.584,569.703,697.699    c0.042,7.631,6.337,14,14,14c7.6,0,14.042-6.368,14-14c-0.268-48.488-25.658-93.461-66.794-119.032    c-41.668-25.901-95.269-26.511-138.39-3.928c-42.735,22.382-69.967,66.893-73.386,114.547    c-3.488,48.608,20.711,95.171,59.926,123.105c40.132,28.589,93.452,31.527,137.846,11.766    c43.807-19.499,73.71-62.734,79.698-109.779c0.706-5.542,1.068-11.093,1.1-16.679c0.042-7.632-6.4-14-14-14    C576.04,683.699,569.745,690.068,569.703,697.699z"></path></g></g><g display="none"><g display="inline"><path fill="#43BC8F" d="M502.136,697.295c-0.226,18.964-12.544,35.871-30.055,41.655c-2.566,0.848-5.215,1.421-7.87,1.899    c2.916-0.525-1.501,0.132-1.74,0.152c-1.395,0.116-2.795,0.133-4.192,0.149c-1.398,0.017-2.797-0.066-4.192-0.149    c-0.228-0.014-4.683-0.61-1.74-0.152c-3.111-0.484-6.154-1.333-9.139-2.319c-0.199-0.065-4.232-1.694-1.597-0.544    c-1.211-0.529-2.383-1.14-3.554-1.75c-2.33-1.215-4.529-2.664-6.67-4.183c2.294,1.627-1.083-0.924-1.256-1.071    c-0.994-0.849-1.929-1.763-2.863-2.677c-0.934-0.913-1.806-1.889-2.676-2.862c-0.574-0.657-1.132-1.326-1.676-2.008    c0.862,1.103,0.811,0.997-0.153-0.317c-1.522-2.146-2.82-4.44-4.034-6.771c-0.1-0.19-1.849-4.137-0.762-1.482    c-0.505-1.234-0.924-2.502-1.342-3.769c-0.848-2.566-1.421-5.214-1.899-7.869c0.525,2.916-0.132-1.501-0.152-1.74    c-0.155-1.861-0.155-3.732-0.133-5.598c0.017-1.393,0.132-2.781,0.248-4.167c0.371-4.435-0.503,2.637,0.278-1.7    c0.478-2.651,1.234-5.244,2.078-7.8c0.066-0.198,1.695-4.231,0.545-1.597c0.528-1.211,1.14-2.383,1.75-3.554    c0.608-1.166,1.295-2.289,1.981-3.411c0.257-0.421,3.23-4.603,1.597-2.508c1.607-2.063,3.419-3.957,5.286-5.783    c0.935-0.914,1.93-1.764,2.923-2.612c3.22-2.75-2.127,1.472,1.331-0.98c2.146-1.521,4.441-2.819,6.771-4.033    c0.191-0.1,4.136-1.849,1.483-0.763c1.648-0.674,3.348-1.214,5.05-1.732c9.694-2.953,18.44-2.45,28.848,1.258    c4.052,1.443-2.341-1.148,1.541,0.654c1.196,0.555,2.353,1.191,3.507,1.827c1.151,0.634,2.258,1.346,3.362,2.056    c0.168,0.108,3.643,2.632,1.404,0.888c2.063,1.607,3.957,3.418,5.783,5.286c0.914,0.935,1.764,1.93,2.612,2.923    c2.75,3.22-1.472-2.127,0.98,1.331c1.521,2.146,2.819,4.44,4.034,6.771c0.1,0.19,1.849,4.136,0.762,1.482    c0.506,1.234,0.925,2.502,1.343,3.768c0.848,2.566,1.421,5.214,1.899,7.87c-0.525-2.916,0.132,1.5,0.152,1.74    C502.103,694.497,502.12,695.897,502.136,697.295c0.091,7.63,6.3,14,14,14c7.563,0,14.091-6.368,14-14    c-0.308-25.81-14.001-49.506-36.35-62.483c-22.452-13.037-51.279-12.104-73.273,1.346c-21.891,13.386-34.938,38.407-34.025,63.94    c0.911,25.476,16.042,49.164,38.605,60.925c22.262,11.604,49.58,10.479,70.951-2.59c21.173-12.947,33.799-36.51,34.092-61.138    c0.091-7.632-6.438-14-14-14C508.436,683.295,502.227,689.665,502.136,697.295z"></path></g></g><g display="none"><g display="inline"><path fill="#43BC8F" d="M792.335,641.95c-23.033,0-46.067,0-69.101,0c-54.976,0-109.95,0-164.925,0c-65.729,0-131.457,0-197.185,0    c-55.293,0-110.586,0-165.879,0c-23.669,0-47.338,0-71.007,0c-0.006,0-0.012,0-0.018,0c4.667,4.667,9.333,9.333,14,14    c0-33.033,0-66.067,0-99.101c0-64.191,0-128.382,0-192.573c0-42.983,0-85.966,0-128.949c0-1.274,0-2.547,0-3.821    c0-0.173,0-0.346,0-0.519c0-0.431,0.164-2.82-0.172-0.344c0.178-1.314,0.565-2.59,0.949-3.854    c-0.797,2.625,0.509-0.976,0.732-1.381c0.916-1.339,0.918-1.45,0.009-0.333c0.541-0.664,1.113-1.298,1.719-1.903    c0.268-0.282,3.434-2.64,1.142-1.048c1.063-0.738,2.231-1.306,3.392-1.87c-2.581,1.254,1.303-0.16,1.627-0.24    c3.932-0.97-2.485,0.034,1.652-0.078c0.12-0.003,0.24,0,0.36,0c0.888,0,1.776,0,2.664,0c11.304,0,22.607,0,33.911,0    c49.767,0,99.533,0,149.299,0c65.356,0,130.712,0,196.069,0c56.2,0,112.4,0,168.601,0c16.934,0,33.867,0,50.8,0    c4.322,0,8.645,0,12.966,0c0.956,0,1.911,0,2.866,0c0.153,0,0.307,0,0.46,0c4.267,0-2.377-0.694,1.671,0.078    c0.273,0.052,4.316,1.377,1.628,0.24c0.524,0.222,4.78,2.862,2.631,1.2c1.017,0.786,1.904,1.72,2.786,2.648    c2.701,2.842-1.227-2.03,0.845,1.307c0.211,0.34,1.69,4.026,0.731,1.381c0.452,1.248,0.702,2.556,0.949,3.854    c-0.45-2.364-0.172-0.08-0.172,0.716c0,1.177,0,2.354,0,3.532c0,5.726,0,11.451,0,17.177c0,22.072,0,44.143,0,66.214    c0,63.714,0,127.429,0,191.143c0,46.172,0,92.345,0,138.517c0,2.67,0,5.339,0,8.009c0,7.632,6.368,14,14,14s14-6.368,14-14    c0-33.033,0-66.067,0-99.101c0-64.191,0-128.382,0-192.573c0-42.983,0-85.966,0-128.949c0-8.446-1.127-16.43-5.332-24.052    c-6.975-12.644-21.117-19.34-35.146-19.34c-9.886,0-19.772,0-29.658,0c-48.044,0-96.088,0-144.132,0    c-65.118,0-130.237,0-195.355,0c-57.448,0-114.895,0-172.342,0c-25.03,0-50.061,0-75.09,0c-21.577,0-39.059,18.1-39.059,39.494    c0,3.605,0,7.209,0,10.814c0,19.008,0,38.016,0,57.024c0,62.3,0,124.601,0,186.901c0,51.042,0,102.084,0,153.126    c0,5.552,0,11.103,0,16.654c0,7.632,6.368,14,14,14c23.034,0,46.067,0,69.101,0c54.975,0,109.95,0,164.925,0    c65.728,0,131.457,0,197.184,0c55.293,0,110.586,0,165.879,0c23.669,0,47.338,0,71.008,0c0.006,0,0.012,0,0.018,0    c7.632,0,14-6.368,14-14S799.967,641.95,792.335,641.95z"></path></g></g><g display="none"><g display="inline"><path fill="#43BC8F" d="M868.52,656.383c0,11.396,0,22.793,0,34.189c0-5.082-0.053-0.912-0.739,1.16    c-1.044,3.149,1.353-2.813-0.058,0.149c-0.401,0.846-0.879,1.651-1.354,2.456c-0.474,0.802-1.015,1.562-1.555,2.319    c2.206-3.1,0.379-0.566-0.166,0.052c-1.455,1.647-3.105,3.112-4.799,4.507c3.098-2.551-1.732,1.094-2.653,1.672    c-1.647,1.034-3.367,1.949-5.1,2.831c-0.87,0.443-1.758,0.852-2.646,1.261c-3.085,1.423,2.896-1.158-0.245,0.117    c-2.086,0.847-4.215,1.584-6.354,2.283c-6.709,2.197-13.651,3.689-20.622,4.77c-4.488,0.696,2.551-0.297-0.626,0.097    c-0.979,0.122-1.96,0.227-2.942,0.325c-1.087,0.11-2.177,0.205-3.268,0.27c-1.405,0.084-2.838,0.005-4.244,0.006    c-31.014,0.013-62.027,0.025-93.042,0.038c-57.742,0.024-115.485,0.048-173.228,0.071c-65.813,0.027-131.625,0.055-197.437,0.082    c-55.224,0.022-110.447,0.045-165.671,0.068c-25.977,0.011-51.953,0.021-77.929,0.032c-0.271,0-0.542,0-0.812,0    c-4.501,0.002-8.944-0.124-13.422-0.621c1.422,0.197,1.299,0.169-0.368-0.086c-1.31-0.209-2.607-0.48-3.904-0.753    c-2.456-0.517-4.872-1.207-7.264-1.96c-0.792-0.249-6.355-2.395-3.216-1.063c-1.686-0.716-3.326-1.535-4.949-2.381    c-3.272-1.703-6.363-3.738-9.314-5.945c3.3,2.469-0.691-0.677-1.38-1.284c-1.06-0.936-2.072-1.923-3.07-2.922    c-0.928-0.93-1.813-1.901-2.685-2.883c-0.786-0.884-4.026-5.045-0.954-1.021c-2.09-2.737-3.954-5.668-5.52-8.736    c-0.289-0.566-0.563-1.141-0.814-1.726c1.238,2.141,1.86,4.448,1.868,6.924c0-0.18,0-0.36,0-0.54c0-0.914,0-1.829,0-2.743    c0-10.339,0-20.678,0-31.017c-4.667,4.667-9.333,9.333-14,14c18.75,0,37.5,0,56.25,0c47.475,0,94.95,0,142.425,0    c63.038,0,126.077,0,189.115,0c65.441,0,130.881,0,196.322,0c54.681,0,109.361,0,164.042,0c30.76,0,61.52,0,92.279,0    c2.684,0,5.367,0,8.051,0c7.632,0,14-6.368,14-14s-6.368-14-14-14c-18.75,0-37.5,0-56.249,0c-47.476,0-94.95,0-142.425,0    c-63.039,0-126.077,0-189.116,0c-65.44,0-130.88,0-196.321,0c-54.681,0-109.362,0-164.043,0c-30.76,0-61.52,0-92.279,0    c-2.684,0-5.367,0-8.051,0c-7.632,0-14,6.368-14,14c0,11.396,0,22.793,0,34.189c0,9.594,9.78,20.513,15.74,26.769    c18.588,19.511,44.363,25.808,70.466,25.797c29.924-0.013,59.848-0.025,89.771-0.037c57.212-0.023,114.424-0.048,171.637-0.071    c65.842-0.027,131.683-0.054,197.525-0.081c55.813-0.023,111.626-0.046,167.438-0.069c27.125-0.011,54.25-0.022,81.376-0.033    c17.342-0.008,35.848-5.126,51.362-12.519c14.915-7.106,31.168-22.326,31.168-40.185c0-11.253,0-22.507,0-33.76    c0-7.632-6.368-14-14-14S868.52,648.751,868.52,656.383z"></path></g></g><g display="none"><g display="inline"><path fill="#43BC8F" d="M458.279,264.487c7.632,0,14-6.368,14-14s-6.368-14-14-14s-14,6.368-14,14    S450.647,264.487,458.279,264.487L458.279,264.487z"></path></g></g><g display="none"><g display="inline"><path fill="#43BC8F" d="M298.42,311.908c-31.098,29.543-62.195,59.086-93.292,88.629c-13.113,12.458,6.718,32.226,19.799,19.799    c31.098-29.543,62.195-59.086,93.292-88.629C331.333,319.249,311.501,299.481,298.42,311.908L298.42,311.908z"></path></g></g><g display="none"><g display="inline"><path fill="#43BC8F" d="M229.402,302.578c-11.46,10.887-22.919,21.773-34.379,32.66c-13.114,12.458,6.718,32.226,19.799,19.799    c11.46-10.887,22.919-21.773,34.379-32.66C262.314,309.919,242.483,290.151,229.402,302.578L229.402,302.578z"></path></g></g><g display="none"><g display="inline"><path fill="#43BC8F" d="M398.16,687.432c40.079,0,80.158,0,120.237,0c7.632,0,14-6.368,14-14s-6.368-14-14-14    c-40.079,0-80.158,0-120.237,0c-7.632,0-14,6.368-14,14S390.528,687.432,398.16,687.432L398.16,687.432z"></path></g></g><g display="none"><g display="inline"><path fill="#43BC8F" d="M686.884,15.33c0,17.74,0,35.48,0,53.22c0,45.475,0,90.95,0,136.425c0,61.593,0,123.187,0,184.78    c0,66.095,0,132.19,0,198.285c0,58.979,0,117.959,0,176.939c0,40.247,0,80.494,0,120.742c0,10.917,0,21.833,0,32.75    c4.667-4.667,9.333-9.333,14-14c-30.706,0-61.413,0-92.119,0c-63.371,0-126.742,0-190.113,0c-52.914,0-105.828,0-158.743,0    c-9.068,0-18.137,0-27.206,0c4.667,4.667,9.333,9.333,14,14c0-17.74,0-35.479,0-53.22c0-45.475,0-90.95,0-136.425    c0-61.594,0-123.188,0-184.781c0-66.095,0-132.189,0-198.285c0-58.979,0-117.959,0-176.939c0-40.248,0-80.495,0-120.743    c0-10.917,0-21.833,0-32.75c-4.667,4.667-9.333,9.333-14,14c30.707,0,61.413,0,92.119,0c63.371,0,126.742,0,190.113,0    c52.914,0,105.828,0,158.742,0c9.069,0,18.138,0,27.206,0c7.632,0,14-6.368,14-14s-6.368-14-14-14c-30.706,0-61.413,0-92.119,0    c-63.371,0-126.742,0-190.113,0c-52.914,0-105.828,0-158.743,0c-9.068,0-18.137,0-27.206,0c-7.632,0-14,6.368-14,14    c0,17.74,0,35.48,0,53.22c0,45.475,0,90.95,0,136.425c0,61.593,0,123.187,0,184.78c0,66.095,0,132.19,0,198.285    c0,58.979,0,117.959,0,176.939c0,40.247,0,80.494,0,120.742c0,10.917,0,21.833,0,32.75c0,7.632,6.368,14,14,14    c30.707,0,61.413,0,92.119,0c63.371,0,126.742,0,190.113,0c52.914,0,105.828,0,158.742,0c9.069,0,18.138,0,27.206,0    c7.632,0,14-6.368,14-14c0-17.74,0-35.479,0-53.22c0-45.475,0-90.95,0-136.425c0-61.594,0-123.188,0-184.781    c0-66.095,0-132.189,0-198.285c0-58.979,0-117.959,0-176.939c0-40.248,0-80.495,0-120.743c0-10.917,0-21.833,0-32.75    c0-7.632-6.368-14-14-14S686.884,7.698,686.884,15.33z"></path></g></g><g display="none"><g display="inline"><path fill="#43BC8F" d="M646.386,712.857c-37.221,0-74.44,0-111.661,0c-62.727,0-125.454,0-188.181,0c-19.781,0-39.561,0-59.342,0    c4.667,4.667,9.333,9.333,14,14c0-23.649,0-47.299,0-70.947c0-55.909,0-111.817,0-167.726c0-65.609,0-131.218,0-196.826    c0-52.75,0-105.5,0-158.251c0-17.88,0-35.76,0-53.641c-4.667,4.667-9.333,9.333-14,14c37.22,0,74.44,0,111.661,0    c62.727,0,125.454,0,188.181,0c19.78,0,39.562,0,59.342,0c-4.667-4.667-9.333-9.333-14-14c0,23.649,0,47.298,0,70.948    c0,55.908,0,111.817,0,167.725c0,65.609,0,131.218,0,196.826c0,52.75,0,105.501,0,158.251c0,17.88,0,35.761,0,53.641    c0,7.632,6.368,14,14,14s14-6.368,14-14c0-23.649,0-47.299,0-70.947c0-55.909,0-111.817,0-167.726c0-65.609,0-131.218,0-196.826    c0-52.75,0-105.5,0-158.251c0-17.88,0-35.76,0-53.641c0-7.632-6.368-14-14-14c-37.221,0-74.44,0-111.661,0    c-62.727,0-125.454,0-188.181,0c-19.781,0-39.561,0-59.342,0c-7.632,0-14,6.368-14,14c0,23.649,0,47.298,0,70.948    c0,55.908,0,111.817,0,167.725c0,65.609,0,131.218,0,196.826c0,52.75,0,105.501,0,158.251c0,17.88,0,35.761,0,53.641    c0,7.632,6.368,14,14,14c37.22,0,74.44,0,111.661,0c62.727,0,125.454,0,188.181,0c19.78,0,39.562,0,59.342,0    c7.632,0,14-6.368,14-14S654.018,712.857,646.386,712.857z"></path></g></g><g display="none"><g display="inline"><path fill="#43BC8F" d="M498.794,824.435c-0.021,1.402-0.083,2.788-0.188,4.187c0.217-2.885-0.264,1.427-0.316,1.694    c-0.261,1.324-0.638,2.622-1.015,3.916c-0.055,0.189-1.565,4.295-0.448,1.651c-1.028,2.432-2.367,4.718-3.795,6.933    c-2.276,3.529,1.699-1.885-0.956,1.357c-0.83,1.012-1.743,1.951-2.654,2.89c-0.913,0.938-1.902,1.797-2.89,2.654    c-3.169,2.749,2.105-1.42-1.357,0.956c-2.178,1.493-4.536,2.699-6.933,3.795c2.597-1.188-1.447,0.383-1.651,0.448    c-1.284,0.415-2.602,0.715-3.916,1.015c-0.247,0.057-4.595,0.621-1.694,0.316c-1.39,0.146-2.79,0.167-4.187,0.188    c-1.398,0.021-2.794-0.083-4.188-0.188c2.886,0.217-1.426-0.264-1.693-0.316c-1.324-0.261-2.622-0.638-3.916-1.015    c-0.19-0.055-4.295-1.565-1.652-0.448c-2.432-1.028-4.718-2.367-6.932-3.795c-3.529-2.276,1.884,1.699-1.357-0.956    c-1.012-0.83-1.952-1.743-2.89-2.654c-0.938-0.913-1.797-1.902-2.654-2.89c-2.75-3.169,1.42,2.105-0.957-1.357    c-1.494-2.178-2.699-4.536-3.795-6.933c1.188,2.597-0.382-1.447-0.448-1.651c-0.415-1.284-0.715-2.602-1.015-3.916    c-0.057-0.247-0.622-4.595-0.316-1.694c-0.146-1.39-0.167-2.79-0.188-4.187c-0.021-1.398,0.083-2.794,0.188-4.187    c-0.217,2.885,0.263-1.427,0.316-1.694c0.261-1.324,0.638-2.622,1.015-3.916c0.055-0.189,1.566-4.295,0.448-1.651    c1.028-2.432,2.368-4.718,3.795-6.933c2.276-3.529-1.7,1.885,0.957-1.357c0.83-1.012,1.743-1.951,2.654-2.89    c0.913-0.938,1.902-1.797,2.89-2.654c3.169-2.749-2.106,1.42,1.357-0.956c2.177-1.493,4.536-2.699,6.932-3.795    c-2.596,1.188,1.447-0.383,1.652-0.448c1.283-0.415,2.602-0.715,3.916-1.015c0.246-0.057,4.595-0.621,1.693-0.316    c1.391-0.146,2.791-0.167,4.188-0.188c1.398-0.021,2.794,0.083,4.187,0.188c-2.885-0.217,1.427,0.264,1.694,0.316    c1.324,0.261,2.622,0.638,3.916,1.015c0.189,0.055,4.295,1.565,1.651,0.448c2.432,1.028,4.718,2.367,6.933,3.795    c3.529,2.276-1.885-1.699,1.357,0.956c1.012,0.83,1.951,1.743,2.89,2.654c0.938,0.913,1.797,1.902,2.654,2.89    c2.749,3.169-1.42-2.105,0.956,1.357c1.493,2.178,2.699,4.536,3.795,6.933c-1.188-2.597,0.383,1.447,0.448,1.651    c0.415,1.284,0.715,2.602,1.015,3.916c0.057,0.247,0.621,4.595,0.316,1.694C498.752,821.638,498.774,823.038,498.794,824.435    c0.114,7.63,6.281,14,14,14c7.545,0,14.114-6.368,14-14c-0.404-26.964-18.142-50.318-44.05-57.856    c-26.004-7.566-53.998,4.833-67.759,27.573c-14.046,23.21-9.182,53.614,9.382,72.71c18.891,19.432,49.516,22.525,72.71,9.382    c18.459-10.461,29.403-30.882,29.717-51.809c0.114-7.632-6.455-14-14-14C505.076,810.435,498.909,816.805,498.794,824.435z"></path></g></g><g display="none"><g display="inline"><path fill="#43BC8F" d="M882.1,56.393c0,19.426,0,38.852,0,58.278c0,48.77,0,97.54,0,146.31c0,63.852,0,127.704,0,191.555    c0,64.672,0,129.344,0,194.016c0,51.23,0,102.46,0,153.69c0,23.526,0,47.052,0,70.578c0,0.285,0,0.569,0,0.854    c4.667-4.667,9.333-9.333,14-14c-18.101,0-36.202,0-54.303,0c-46.195,0-92.391,0-138.586,0c-62.128,0-124.255,0-186.382,0    c-65.898,0-131.796,0-197.693,0c-57.506,0-115.012,0-172.518,0c-36.952,0-73.904,0-110.856,0c-7.254,0-14.508,0-21.762,0    c4.667,4.667,9.333,9.333,14,14c0-19.426,0-38.852,0-58.277c0-48.771,0-97.54,0-146.31c0-63.853,0-127.704,0-191.556    c0-64.672,0-129.344,0-194.016c0-51.23,0-102.46,0-153.69c0-23.526,0-47.053,0-70.579c0-0.285,0-0.569,0-0.854    c-4.667,4.667-9.333,9.333-14,14c18.101,0,36.202,0,54.303,0c46.195,0,92.391,0,138.585,0c62.127,0,124.255,0,186.382,0    c65.897,0,131.795,0,197.692,0c57.506,0,115.012,0,172.518,0c36.952,0,73.904,0,110.856,0c7.254,0,14.509,0,21.763,0    c7.632,0,14-6.368,14-14s-6.368-14-14-14c-18.101,0-36.202,0-54.303,0c-46.195,0-92.391,0-138.586,0    c-62.128,0-124.255,0-186.382,0c-65.898,0-131.796,0-197.693,0c-57.506,0-115.012,0-172.518,0c-36.952,0-73.904,0-110.856,0    c-7.254,0-14.508,0-21.762,0c-7.632,0-14,6.368-14,14c0,19.426,0,38.852,0,58.278c0,48.77,0,97.54,0,146.31    c0,63.852,0,127.704,0,191.555c0,64.672,0,129.344,0,194.016c0,51.23,0,102.46,0,153.69c0,23.526,0,47.052,0,70.578    c0,0.285,0,0.569,0,0.854c0,7.632,6.368,14,14,14c18.101,0,36.202,0,54.303,0c46.195,0,92.391,0,138.585,0    c62.127,0,124.255,0,186.382,0c65.897,0,131.795,0,197.692,0c57.506,0,115.012,0,172.518,0c36.952,0,73.904,0,110.856,0    c7.254,0,14.509,0,21.763,0c7.632,0,14-6.368,14-14c0-19.426,0-38.852,0-58.277c0-48.771,0-97.54,0-146.31    c0-63.853,0-127.704,0-191.556c0-64.672,0-129.344,0-194.016c0-51.23,0-102.46,0-153.69c0-23.526,0-47.053,0-70.579    c0-0.285,0-0.569,0-0.854c0-7.632-6.368-14-14-14S882.1,48.761,882.1,56.393z"></path></g></g><g display="none"><g display="inline"><path fill="#43BC8F" d="M780.683,739.088c-0.016,1.406-0.062,2.804-0.14,4.207c-0.012,0.201-0.537,4.709-0.11,1.771    c-0.391,2.688-1.044,5.331-1.783,7.941c-1.472,5.205-2.688,7.686-6.42,13.437c-0.104,0.159-2.633,3.651-0.898,1.416    c-0.805,1.036-1.673,2.021-2.539,3.004c-1.734,1.967-3.65,3.766-5.615,5.499c-0.154,0.136-3.537,2.748-1.278,1.07    c-1.056,0.784-2.159,1.5-3.262,2.216c-2.589,1.681-5.349,3.081-8.153,4.357c2.602-1.184-1.431,0.465-1.622,0.532    c-1.267,0.449-2.562,0.816-3.854,1.182c-1.305,0.369-2.632,0.652-3.956,0.935c-0.213,0.045-4.624,0.704-1.695,0.346    c-2.359,0.289-4.749,0.386-7.124,0.386c-0.797,0-1.594,0-2.391,0c-11.787,0-23.574,0-35.361,0c-52.383,0-104.766,0-157.147,0    c-65.203,0-130.407,0-195.61,0c-47.315,0-94.631,0-141.947,0c-7.354,0-14.708,0-22.062,0c-10.089,0-18.131-2.467-27.355-8.453    c-0.159-0.104-3.651-2.633-1.416-0.898c-1.036-0.805-2.021-1.673-3.004-2.539c-1.967-1.734-3.766-3.65-5.499-5.615    c-0.136-0.154-2.748-3.537-1.07-1.278c-0.784-1.056-1.5-2.159-2.216-3.262c-1.68-2.589-3.081-5.349-4.357-8.153    c1.184,2.602-0.465-1.431-0.533-1.622c-0.449-1.267-0.815-2.562-1.181-3.854c-0.369-1.305-0.652-2.632-0.934-3.956    c-0.045-0.213-0.705-4.624-0.346-1.695c-0.289-2.359-0.386-4.75-0.386-7.125c0-0.804,0-1.607,0-2.41c0-34.687,0-69.373,0-104.06    c0-62.799,0-125.598,0-188.396c0-59.675,0-119.351,0-179.025c0-18.905,0-37.81,0-56.715c0-5.011,0-10.022,0-15.033    c0-1.182,0-2.363,0-3.545c0-0.229,0-0.457,0-0.686c0-0.029,0-0.058,0-0.086c0-1.405,0.062-2.805,0.14-4.208    c0.062-0.923,0.144-1.844,0.246-2.764c-0.207,1.444-0.177,1.326,0.091-0.355c1.816-10.833,5.984-18.544,12.302-25.413    c1.775-1.931,3.728-3.689,5.729-5.38c3.25-2.747-2.125,1.482,1.348-0.985c1.073-0.762,2.193-1.456,3.311-2.149    c2.25-1.394,4.627-2.569,7.034-3.664c-2.602,1.184,1.43-0.465,1.622-0.533c1.691-0.6,3.426-1.07,5.162-1.521    c1.316-0.341,2.653-0.596,3.988-0.85c4.359-0.83-2.721,0.217,1.733-0.229c1.858-0.186,3.737-0.248,5.604-0.248    c0.174,0,0.349,0,0.523,0c1.06,0,2.121,0,3.181,0c12.674,0,25.348,0,38.022,0c53.35,0,106.7,0,160.049,0    c65.096,0,130.191,0,195.287,0c46.134,0,92.267,0,138.4,0c4.972,0,9.944,0,14.916,0c1.172,0,2.344,0,3.516,0    c0.227,0,0.453,0,0.68,0c0.028,0,0.058,0,0.086,0c1.405,0,2.805,0.062,4.207,0.14c0.924,0.062,1.845,0.144,2.765,0.246    c-1.444-0.207-1.326-0.177,0.355,0.091c10.832,1.816,18.544,5.984,25.413,12.302c1.931,1.775,3.688,3.728,5.38,5.729    c2.747,3.25-1.482-2.125,0.985,1.348c0.763,1.073,1.456,2.193,2.148,3.311c1.395,2.25,2.569,4.627,3.664,7.034    c-1.184-2.601,0.465,1.43,0.532,1.622c0.601,1.691,1.07,3.426,1.521,5.162c0.341,1.316,0.596,2.653,0.85,3.988    c0.83,4.359-0.217-2.721,0.229,1.733c0.187,1.858,0.248,3.737,0.248,5.604c0,0.176,0,0.352,0,0.528c0,1.069,0,2.139,0,3.208    c0,36.198,0,72.396,0,108.593c0,63.217,0,126.434,0,189.651c0,59,0,118.001,0,177.001    C780.683,691.675,780.683,715.381,780.683,739.088c0,7.632,6.368,14,14,14s14-6.368,14-14c0-27.046,0-54.091,0-81.137    c0-60.312,0-120.624,0-180.936c0-62.343,0-124.685,0-187.028c0-33.136,0-66.273,0-99.41c0-13.179-2.958-25.656-8.926-37.413    c-11.738-23.126-35.257-37.018-60.4-40.099c-8.817-1.081-18.12-0.386-26.969-0.386c-46.476,0-92.95,0-139.426,0    c-65.13,0-130.26,0-195.39,0c-53.078,0-106.155,0-159.232,0c-12.423,0-24.845,0-37.268,0c-7.447,0-14.833,0.606-22.116,2.327    c-25,5.907-44.312,25.233-53.245,48.79c-4.96,13.079-4.295,27.033-4.295,40.728c0,17.831,0,35.662,0,53.494    c0,58.699,0,117.398,0,176.097c0,63.384,0,126.769,0,190.154c0,36.834,0,73.667,0,110.501c0,5.51,0.256,10.878,1.054,16.379    c3.506,24.173,19.847,45.921,41.806,56.483c15.299,7.359,30.787,7.753,47.118,7.753c43.474,0,86.947,0,130.42,0    c64.738,0,129.477,0,194.215,0c55.296,0,110.593,0,165.889,0c14.511,0,29.021,0,43.532,0c2.291,0,4.583,0,6.875,0    c22.46,0,44.635-10.233,58.805-27.728c11.241-13.878,17.354-30.679,17.553-48.57c0.085-7.632-6.433-14-14-14    C786.988,725.088,780.768,731.458,780.683,739.088z"></path></g></g><g display="none"><g display="inline"><path fill="#43BC8F" d="M708.23,703.213c-28.914,0-57.829,0-86.743,0c-62.136,0-124.271,0-186.406,0    c-58.444,0-116.888,0-175.333,0c-19.292,0-38.585,0-57.878,0c4.667,4.667,9.333,9.333,14,14c0-28.914,0-57.829,0-86.743    c0-62.136,0-124.271,0-186.406c0-58.444,0-116.888,0-175.333c0-19.292,0-38.585,0-57.878c-4.667,4.667-9.333,9.333-14,14    c28.915,0,57.829,0,86.743,0c62.136,0,124.271,0,186.406,0c58.444,0,116.889,0,175.333,0c19.292,0,38.585,0,57.878,0    c-4.667-4.667-9.333-9.333-14-14c0,28.915,0,57.829,0,86.743c0,62.135,0,124.271,0,186.406c0,58.443,0,116.888,0,175.332    c0,19.293,0,38.585,0,57.878c0,7.632,6.368,14,14,14s14-6.368,14-14c0-28.914,0-57.829,0-86.743c0-62.136,0-124.271,0-186.406    c0-58.444,0-116.888,0-175.333c0-19.292,0-38.585,0-57.878c0-7.632-6.368-14-14-14c-28.914,0-57.829,0-86.743,0    c-62.136,0-124.271,0-186.406,0c-58.444,0-116.888,0-175.333,0c-19.292,0-38.585,0-57.878,0c-7.632,0-14,6.368-14,14    c0,28.915,0,57.829,0,86.743c0,62.135,0,124.271,0,186.406c0,58.443,0,116.888,0,175.332c0,19.293,0,38.585,0,57.878    c0,7.632,6.368,14,14,14c28.915,0,57.829,0,86.743,0c62.136,0,124.271,0,186.406,0c58.444,0,116.889,0,175.333,0    c19.292,0,38.585,0,57.878,0c7.632,0,14-6.368,14-14S715.862,703.213,708.23,703.213z"></path></g></g></svg>
