<svg xmlns="http://www.w3.org/2000/svg" xmlns:xlink="http://www.w3.org/1999/xlink" version="1.2" baseProfile="tiny" x="0px" y="0px" viewBox="0 0 100 100" xml:space="preserve"><path fill="#ECEEEB" d="M40,65h2.5c4.136,0,7.5-3.364,7.5-7.5S46.636,50,42.5,50H35v20h5V65z M40,55h2.5c1.379,0,2.5,1.122,2.5,2.5  S43.879,60,42.5,60H40V55z"></path><polygon fill="#ECEEEB" points="75,65 82.5,65 82.5,60 75,60 75,55 85,55 85,50 70,50 70,70 75,70 "></polygon><path fill="#ECEEEB" d="M67.5,62.5v-5c0-4.136-3.364-7.5-7.5-7.5h-7.5v20H60C64.136,70,67.5,66.636,67.5,62.5z M57.5,55H60  c1.379,0,2.5,1.122,2.5,2.5v5c0,1.378-1.121,2.5-2.5,2.5h-2.5V55z"></path><path fill="#ECEEEB" d="M77.5,30l-25-25h-35c-5.523,0-10,4.477-10,10v70c0,5.523,4.477,10,10,10h50c5.523,0,10-4.477,10-10v-5H95V40H77.5V30z   M50,13.107L69.393,32.5H50V13.107z M90,45v30H30V45H90z"></path></svg>
