<svg xmlns="http://www.w3.org/2000/svg" xmlns:xlink="http://www.w3.org/1999/xlink" version="1.1" x="0px" y="0px" viewBox="0 0 100 100" style="enable-background:new 0 0 100 100;" xml:space="preserve"><path fill="#43BC8F" d="M54.9,49.6V39.4c6.3-3.2,10.7-9.8,10.7-17.4c0-10.8-8.8-19.5-19.5-19.5c-10.8,0-19.5,8.8-19.5,19.5  c0,7.6,4.4,14.2,10.7,17.4v20.6l-1.6-2.4c-2.7-4-8.2-5.1-12.3-2.3c-1.9,1.3-3.3,3.3-3.7,5.7c-0.4,2.3,0,4.7,1.4,6.6l17.8,26  c1.7,2.5,4.5,3.9,7.6,3.8c0.1,0,0.2,0,0.3,0h24.4c5.2,0,9.4-4.2,9.4-9.4V76C80.5,62.2,71.2,52.7,54.9,49.6z M74.5,88.1  c0,1.9-1.5,3.4-3.4,3.4l-24.4,0c0,0-0.2,0-0.2,0c0,0-0.1,0-0.1,0c-0.1,0-0.1,0-0.2,0c-1,0-1.9-0.4-2.4-1.2L26,64.2  c-0.9-1.3-0.5-3,0.7-3.9c1.3-0.9,3-0.5,3.9,0.7l7.2,10.5c0.7,1.1,2.1,1.6,3.4,1.2c1.3-0.4,2.1-1.6,2.1-2.9V41.3v-6.1v-7.6  c0-1.5,1.2-2.8,2.8-2.8c1.5,0,2.8,1.2,2.8,2.8v7.6v6.1v10.9c0,1.5,1.1,2.8,2.6,3c8.6,1.2,23,5.5,23,20.7V88.1z M32.6,22  c0-7.4,6-13.5,13.5-13.5s13.5,6,13.5,13.5c0,4-1.8,7.7-4.6,10.2v-4.6c0-4.9-4-8.8-8.8-8.8c-4.9,0-8.8,4-8.8,8.8v4.6  C34.4,29.7,32.6,26.1,32.6,22z"></path></svg>
