<svg xmlns="http://www.w3.org/2000/svg" xmlns:xlink="http://www.w3.org/1999/xlink" version="1.0" x="0px" y="0px" viewBox="0 0 100 100" enable-background="new 0 0 100 100" xml:space="preserve"><g><circle fill="#43BC8F" cx="62.7" cy="11" r="6.1"></circle><path fill="#43BC8F" d="M87.3,21L87.3,21c-0.3-0.6-1-0.8-1.7-0.6L76,23.7c-0.3,0.1-0.6,0.1-0.9,0c-2.2-0.8-11.6-4-12.2-4.3l0,0l-1.6-0.7   c-0.5-0.2-1-0.3-1.6-0.2l-5.8,1.1c-0.4,0.1-0.8,0.4-0.9,0.8c0,0-3.4,6-3.7,11.3c-0.5,9.4,1.3,15.1,1.3,15.1c1.1,3.8,3.2,11,3.8,13   c0.1,0.3,0.1,0.6-0.1,0.9l-2,4.4c0,0.1-0.2,0.1-0.3,0.1l-16-7c-0.1,0-0.2-0.1-0.4-0.1l-13.1-1.4c-0.2,0-0.5,0-0.7,0.1L13.2,62   c0,0-0.1,0-0.1,0.1c0,0,0,0-0.1,0c0,0,0,0,0,0.1c-0.1,0.1-0.6,0.3-0.6,0.8c0,0.5,0,10.3,0,10.4l2.8,11.1c0.1,0.4,0.5,0.7,0.9,0.8   l55,9.7c0.1,0,0.1,0,0.2,0c0.2,0,0.5-0.1,0.6-0.2l8.1-6.2c0.3-0.2,0.2-0.8,0.2-1.1c0,0,0.4-9.3,0.3-9.4c0,0,0,0-0.1-0.1   c-0.1-0.1-0.1-0.1-0.2-0.2c0,0-0.1,0-0.1-0.1c0,0-0.1,0-0.1-0.1l-21.5-9.4c-0.1-0.1-0.2-0.2-0.1-0.3l3.8-6.1   c0.3-0.5,0.4-1.1,0.3-1.6l-2.3-9.8c-0.3-1.1,0.8-2.1,1.9-1.6l9,3.7c0.4,0.2,0.7,0.5,0.7,1l1.8,14.7c0.1,0.6,0.6,0.8,1.2,0.8h1.9   c0.7,0,1.3-0.6,1.3-1.3V49.4c0-0.5-0.3-1-0.8-1.2l-14-6.3c-0.4-0.2-0.7-0.5-0.8-1L61.3,36c0-0.2,0-0.4,0-0.6l0.1-0.4   c0.3-0.8,1.2-1.2,2-0.9l5.1,2.4c0.3,0.2,0.7,0.2,1,0.1l10.9-3.4c0.8-0.2,1.2-1.1,0.9-1.8L81.2,31c-0.2-0.6-0.8-1-1.5-0.9l-9.1,1.1   c-0.3,0-0.6,0-0.8-0.2l-5.3-2.8c-0.5-0.3-0.7-0.9-0.6-1.4c0.2-0.6,0.9-1,1.5-0.8l8.8,2.9c0.4,0.1,0.7,0.1,1.1-0.1L86.8,23   C87.5,22.6,87.7,21.7,87.3,21z M15.1,63.4l7.4-4.2c0,0,0.1,0,0.1,0l12.5,1.4c0,0,0,0,0.1,0l15.8,6.9c0.1,0,0.2,0.2,0.1,0.3   l-2.6,5.6c0,0.1-0.2,0.1-0.3,0.1l-12.4-5.2c-0.1,0-0.2-0.1-0.4-0.1l-13-1.4c-0.3,0-0.5,0-0.8,0.2L17,69.5c-0.1,0.1-0.3,0-0.3-0.1   L15,63.6C15,63.5,15,63.4,15.1,63.4z M17.4,71.8l5.2-2.9c0,0,0.1,0,0.1,0l12.5,1.4c0,0,0,0,0.1,0l12.2,5.1c0.1,0,0.2,0.2,0.1,0.3   L47,76.8c-0.2,0.5-0.1,1,0.2,1.3l-29.8-6L17.4,71.8z M51.7,79.1c0,0,0.1-0.1,0.1-0.1l0.8-1.3c0.1-0.1,0.2-0.1,0.3-0.1l7.9,3.3   L51.7,79.1z M77.1,79l-5.9,3.8c-0.1,0-0.1,0-0.2,0l-16.9-7.1c-0.1,0-0.2-0.2-0.1-0.3l3.2-5.2c0.1-0.1,0.2-0.1,0.3-0.1l19.7,8.5   C77.3,78.7,77.3,78.9,77.1,79z"></path></g></svg>
