<svg xmlns="http://www.w3.org/2000/svg" xmlns:xlink="http://www.w3.org/1999/xlink" version="1.1" x="0px" y="0px" viewBox="0 0 96.25 95.5" enable-background="new 0 0 96.25 95.5" xml:space="preserve"><g><g><path fill="#43BC8F" d="M47.149,74.776c1.127,4.01,3.077,8.916,3.463,11.452c1.271,8.347-10.549,12.334-15.189,5.598    c-2.216-3.221-2.315-6.199-3.996-11.458c-5.922,1.636-9.124,4.036-13.589,3.463c-6.731-0.863-8.479-10.16-3.729-14.388    c2.986-2.658,7.848-2.6,11.991-4.528c0,0-3.9-12.268-6.13-18.12c-4.449,1.324-10.965,4.107-13.855,3.463    c-3.517-1.367-5.922-4.201-5.863-7.992c0.125-7.736,8.914-8.301,14.657-10.658c-1.42-4.5-3.772-7.614-3.466-12.523    c0.397-6.311,7.883-9.966,13.325-6.129c2.571,1.812,4.238,8.418,5.86,13.322l17.854-5.861c-2.043-6.535-5.954-12.965-1.068-17.854    c3.66-3.658,10.118-2.733,12.792,1.065c2.458,3.495,2.712,7.752,3.995,11.458c4.83-1.651,10.923-4.726,15.47-3.183    c3.735,1.268,5.533,6.202,4.516,9.313c-1.876,5.943-8.631,6.734-14.657,8.791l5.863,18.12c5.008-1.641,7.547-3.756,12.257-3.729    c4.806,0.027,7.818,3.49,8.261,6.926c1.143,8.916-8.924,9.721-15.189,11.99c1.926,6.229,3.564,7.568,3.466,12.523    c-0.171,8.477-10.877,10.439-15.456,3.998C67.073,77.502,66.655,73.759,65,68.91C65,68.91,47.429,75.024,47.149,74.776z     M59.672,53.457l-6.396-18.12l-17.318,6.127l5.861,17.853L59.672,53.457z"></path></g></g></svg>
